G04*
G04 #@! TF.GenerationSoftware,Altium Limited,Altium Designer,22.10.1 (41)*
G04*
G04 Layer_Physical_Order=1*
G04 Layer_Color=255*
%FSLAX44Y44*%
%MOMM*%
G71*
G04*
G04 #@! TF.SameCoordinates,B602C00A-04D7-4507-9B25-3B951254DDD7*
G04*
G04*
G04 #@! TF.FilePolarity,Positive*
G04*
G01*
G75*
%ADD19C,2.0000*%
%ADD20C,2.0000*%
%ADD21C,1.8000*%
%ADD22O,3.5000X2.0000*%
%ADD23C,3.0000*%
%ADD24R,1.8000X1.8000*%
D19*
X298300Y103800D02*
X298500Y104000D01*
D20*
X336200Y176300D02*
D03*
X436200D02*
D03*
X182100Y104000D02*
D03*
X457100D02*
D03*
X180900Y54300D02*
D03*
X455900D02*
D03*
X329200Y65800D02*
D03*
X229200D02*
D03*
X178800Y144400D02*
D03*
X306800D02*
D03*
X298500Y104000D02*
D03*
X426500D02*
D03*
D21*
X307300Y177200D02*
D03*
X335600Y206400D02*
D03*
X404100Y214700D02*
D03*
X129100Y201600D02*
D03*
X515200Y142200D02*
D03*
Y116800D02*
D03*
X419500Y142886D02*
D03*
X337500D02*
D03*
X307300Y177200D02*
D03*
X335600Y206400D02*
D03*
X128300Y87500D02*
D03*
X128600Y137800D02*
D03*
X404100Y214700D02*
D03*
X129100Y201600D02*
D03*
X670000Y30000D02*
D03*
Y220000D02*
D03*
D22*
X128600Y87500D02*
D03*
X128600Y137800D02*
D03*
X670000Y30000D02*
D03*
Y220000D02*
D03*
D23*
X432850Y215850D02*
D03*
X632600Y215350D02*
D03*
D24*
X515200Y91400D02*
D03*
M02*
