G04*
G04 #@! TF.GenerationSoftware,Altium Limited,Altium Designer,22.10.1 (41)*
G04*
G04 Layer_Color=8388736*
%FSLAX44Y44*%
%MOMM*%
G71*
G04*
G04 #@! TF.SameCoordinates,0E9425E9-A874-4ED2-9F9C-91F8E0F331BA*
G04*
G04*
G04 #@! TF.FilePolarity,Negative*
G04*
G01*
G75*
%ADD18R,1.6200X1.0200*%
%ADD19R,1.0200X1.6200*%
%ADD20C,2.0032*%
%ADD21C,2.0200*%
%ADD22R,10.0200X5.0200*%
%ADD23R,5.0200X5.0200*%
%ADD24C,1.5200*%
%ADD25R,0.0200X0.0200*%
%ADD26C,1.6200*%
%ADD27C,2.2200*%
%ADD28C,1.9700*%
G04:AMPARAMS|DCode=29|XSize=1.97mm|YSize=1.97mm|CornerRadius=0.4975mm|HoleSize=0mm|Usage=FLASHONLY|Rotation=90.000|XOffset=0mm|YOffset=0mm|HoleType=Round|Shape=RoundedRectangle|*
%AMROUNDEDRECTD29*
21,1,1.9700,0.9750,0,0,90.0*
21,1,0.9750,1.9700,0,0,90.0*
1,1,0.9950,0.4875,0.4875*
1,1,0.9950,0.4875,-0.4875*
1,1,0.9950,-0.4875,-0.4875*
1,1,0.9950,-0.4875,0.4875*
%
%ADD29ROUNDEDRECTD29*%
%ADD30C,3.0200*%
G04:AMPARAMS|DCode=31|XSize=1.97mm|YSize=1.97mm|CornerRadius=0.4975mm|HoleSize=0mm|Usage=FLASHONLY|Rotation=0.000|XOffset=0mm|YOffset=0mm|HoleType=Round|Shape=RoundedRectangle|*
%AMROUNDEDRECTD31*
21,1,1.9700,0.9750,0,0,0.0*
21,1,0.9750,1.9700,0,0,0.0*
1,1,0.9950,0.4875,-0.4875*
1,1,0.9950,-0.4875,-0.4875*
1,1,0.9950,-0.4875,0.4875*
1,1,0.9950,0.4875,0.4875*
%
%ADD31ROUNDEDRECTD31*%
%ADD32R,8.0200X8.0200*%
D18*
X154250Y587700D02*
D03*
X245750Y562300D02*
D03*
X154250D02*
D03*
X245750Y587700D02*
D03*
X324250D02*
D03*
X415750Y562300D02*
D03*
X324250D02*
D03*
X415750Y587700D02*
D03*
X585750D02*
D03*
X494250Y562300D02*
D03*
X585750D02*
D03*
X494250Y587700D02*
D03*
X664250D02*
D03*
X755750Y562300D02*
D03*
X664250D02*
D03*
X755750Y587700D02*
D03*
X1003550Y588700D02*
D03*
X1095050Y563300D02*
D03*
X1003550D02*
D03*
X1095050Y588700D02*
D03*
X833514Y587800D02*
D03*
X925014Y562400D02*
D03*
X833514D02*
D03*
X925014Y587800D02*
D03*
D19*
X587300Y405750D02*
D03*
X612700D02*
D03*
X587300Y314250D02*
D03*
X612700D02*
D03*
X87300D02*
D03*
X112700Y405750D02*
D03*
Y314250D02*
D03*
X87300Y405750D02*
D03*
X362700Y314250D02*
D03*
X337300D02*
D03*
X362700Y405750D02*
D03*
X337300D02*
D03*
D20*
X1352900Y47900D02*
D03*
D21*
X1607000Y755000D02*
D03*
Y883000D02*
D03*
X1659300Y754700D02*
D03*
Y882700D02*
D03*
X895000Y67700D02*
D03*
X845000Y92700D02*
D03*
Y42700D02*
D03*
X895000Y154300D02*
D03*
X845000Y179300D02*
D03*
Y129300D02*
D03*
X985300Y641000D02*
D03*
X1113300D02*
D03*
X646000Y640000D02*
D03*
X774000D02*
D03*
X476000D02*
D03*
X604000D02*
D03*
X306000D02*
D03*
X434000D02*
D03*
X85000Y175000D02*
D03*
Y225000D02*
D03*
X335000D02*
D03*
Y175000D02*
D03*
X585000Y225000D02*
D03*
Y175000D02*
D03*
X1308800Y530000D02*
D03*
X1212800D02*
D03*
Y690000D02*
D03*
X1308800D02*
D03*
X264000Y640000D02*
D03*
X136000D02*
D03*
X943264Y640100D02*
D03*
X815264D02*
D03*
D22*
X1800000Y780000D02*
D03*
Y850000D02*
D03*
Y920000D02*
D03*
D23*
X1616700Y617900D02*
D03*
Y217900D02*
D03*
X1786700Y617900D02*
D03*
Y217900D02*
D03*
D24*
X1613200Y128300D02*
D03*
Y102900D02*
D03*
Y77500D02*
D03*
Y52100D02*
D03*
X869543Y336800D02*
D03*
Y311400D02*
D03*
X828900Y337600D02*
D03*
Y312200D02*
D03*
X909800Y336400D02*
D03*
Y311000D02*
D03*
D25*
X1458300Y598200D02*
D03*
X1459300Y831200D02*
D03*
X1409300D02*
D03*
X1410300Y598200D02*
D03*
X1434300Y513200D02*
D03*
D26*
X370000Y497300D02*
D03*
Y522700D02*
D03*
X200000Y497300D02*
D03*
Y522700D02*
D03*
X540000Y497300D02*
D03*
Y522700D02*
D03*
X710000Y497300D02*
D03*
Y522700D02*
D03*
X1049300Y498300D02*
D03*
Y523700D02*
D03*
X879264Y497400D02*
D03*
Y522800D02*
D03*
D27*
X1115200Y108420D02*
D03*
Y82975D02*
D03*
Y133865D02*
D03*
Y159310D02*
D03*
Y286535D02*
D03*
Y311980D02*
D03*
Y337425D02*
D03*
Y362870D02*
D03*
Y388315D02*
D03*
Y413760D02*
D03*
Y439205D02*
D03*
X962530D02*
D03*
Y413760D02*
D03*
Y388315D02*
D03*
Y362870D02*
D03*
Y337425D02*
D03*
Y311980D02*
D03*
Y286535D02*
D03*
Y261090D02*
D03*
Y235645D02*
D03*
Y210200D02*
D03*
Y184755D02*
D03*
Y159310D02*
D03*
Y133865D02*
D03*
Y108420D02*
D03*
Y82975D02*
D03*
X1115200Y184755D02*
D03*
Y210200D02*
D03*
Y235645D02*
D03*
Y261090D02*
D03*
X770000Y708000D02*
D03*
X650000Y830000D02*
D03*
Y708000D02*
D03*
X710000Y688000D02*
D03*
X770000Y830000D02*
D03*
X1109300Y709000D02*
D03*
X989300Y831000D02*
D03*
Y709000D02*
D03*
X1049300Y689000D02*
D03*
X1109300Y831000D02*
D03*
X939264Y708100D02*
D03*
X819264Y830100D02*
D03*
Y708100D02*
D03*
X879264Y688100D02*
D03*
X939264Y830100D02*
D03*
X430000Y708000D02*
D03*
X310000Y830000D02*
D03*
Y708000D02*
D03*
X370000Y688000D02*
D03*
X430000Y830000D02*
D03*
X600000D02*
D03*
X540000Y688000D02*
D03*
X480000Y708000D02*
D03*
Y830000D02*
D03*
X600000Y708000D02*
D03*
X260000Y830000D02*
D03*
X200000Y688000D02*
D03*
X140000Y708000D02*
D03*
Y830000D02*
D03*
X260000Y708000D02*
D03*
D28*
X1915000Y199998D02*
D03*
Y249997D02*
D03*
Y674997D02*
D03*
X474997Y75000D02*
D03*
X224998D02*
D03*
X854267Y925100D02*
D03*
X1024303Y926000D02*
D03*
X685003Y925000D02*
D03*
X515003D02*
D03*
X345003Y925500D02*
D03*
X175002Y925000D02*
D03*
X724997Y75000D02*
D03*
X1915000Y374997D02*
D03*
Y524997D02*
D03*
D29*
Y149998D02*
D03*
Y624998D02*
D03*
Y324998D02*
D03*
Y474998D02*
D03*
D30*
X215000Y195000D02*
D03*
Y345000D02*
D03*
Y295000D02*
D03*
Y245000D02*
D03*
X465000Y195000D02*
D03*
Y345000D02*
D03*
Y295000D02*
D03*
Y245000D02*
D03*
X715000Y195000D02*
D03*
Y345000D02*
D03*
Y295000D02*
D03*
Y245000D02*
D03*
D31*
X424998Y75000D02*
D03*
X174998D02*
D03*
X904267Y925100D02*
D03*
X1074302Y926000D02*
D03*
X735002Y925000D02*
D03*
X565002D02*
D03*
X395002Y925500D02*
D03*
X225002Y925000D02*
D03*
X674998Y75000D02*
D03*
D32*
X1445000Y920000D02*
D03*
X1255000D02*
D03*
X1445000Y80000D02*
D03*
X1255000D02*
D03*
M02*
