G04*
G04 #@! TF.GenerationSoftware,Altium Limited,Altium Designer,22.10.1 (41)*
G04*
G04 Layer_Color=128*
%FSLAX44Y44*%
%MOMM*%
G71*
G04*
G04 #@! TF.SameCoordinates,0E9425E9-A874-4ED2-9F9C-91F8E0F331BA*
G04*
G04*
G04 #@! TF.FilePolarity,Positive*
G04*
G01*
G75*
%ADD16R,1.6000X1.0000*%
%ADD49R,0.8000X1.2500*%
%ADD50R,1.0000X0.6000*%
%ADD51R,1.2500X0.8000*%
%ADD52R,0.6000X1.0000*%
D16*
X45400Y354600D02*
D03*
Y322600D02*
D03*
Y258000D02*
D03*
Y226000D02*
D03*
X293000Y273900D02*
D03*
Y305900D02*
D03*
X551500Y224600D02*
D03*
Y256600D02*
D03*
X293200Y322400D02*
D03*
Y354400D02*
D03*
X45300Y306200D02*
D03*
Y274200D02*
D03*
X551501Y305371D02*
D03*
Y273370D02*
D03*
Y321750D02*
D03*
Y353750D02*
D03*
X293000Y225400D02*
D03*
Y257400D02*
D03*
D49*
X1197930Y158298D02*
D03*
X1177930D02*
D03*
X1198030Y176098D02*
D03*
X1178030D02*
D03*
X1177630Y193802D02*
D03*
X1197630D02*
D03*
X1512900Y127299D02*
D03*
X1532900D02*
D03*
X1512900Y104002D02*
D03*
X1532900D02*
D03*
X570900Y562402D02*
D03*
X590900D02*
D03*
X910264Y562502D02*
D03*
X930264D02*
D03*
X400900Y562402D02*
D03*
X420900D02*
D03*
X740800D02*
D03*
X760800D02*
D03*
X1080200Y563402D02*
D03*
X1100200D02*
D03*
X231000Y562402D02*
D03*
X251000D02*
D03*
X1030000Y439113D02*
D03*
X1010000D02*
D03*
X1029700Y414198D02*
D03*
X1009700D02*
D03*
X1030000Y388298D02*
D03*
X1010000D02*
D03*
Y337425D02*
D03*
X1030000D02*
D03*
Y312698D02*
D03*
X1010000D02*
D03*
X912944Y497602D02*
D03*
X932944D02*
D03*
X1081800Y498502D02*
D03*
X1101800D02*
D03*
X744600Y497502D02*
D03*
X764600D02*
D03*
X576900D02*
D03*
X596900D02*
D03*
X407063D02*
D03*
X427063D02*
D03*
X236500D02*
D03*
X256500D02*
D03*
X1030000Y235898D02*
D03*
X1010000D02*
D03*
X1030000Y285798D02*
D03*
X1010000D02*
D03*
X1030000Y260198D02*
D03*
X1010000D02*
D03*
D50*
X1746402Y47200D02*
D03*
Y66200D02*
D03*
X1770402Y56700D02*
D03*
D51*
X1746102Y87000D02*
D03*
Y107000D02*
D03*
X1725502Y46500D02*
D03*
Y66500D02*
D03*
X815966Y587600D02*
D03*
Y567600D02*
D03*
X476402Y587500D02*
D03*
Y567500D02*
D03*
X646002Y587500D02*
D03*
Y567500D02*
D03*
X985702Y588500D02*
D03*
Y568500D02*
D03*
X1209898Y235000D02*
D03*
Y255000D02*
D03*
X1173902Y235000D02*
D03*
Y255000D02*
D03*
X1138198Y418900D02*
D03*
Y438900D02*
D03*
X889502Y317083D02*
D03*
Y337083D02*
D03*
X928402Y335600D02*
D03*
Y315600D02*
D03*
X849102Y317800D02*
D03*
Y337800D02*
D03*
X1766103Y87600D02*
D03*
Y107600D02*
D03*
X306002Y567500D02*
D03*
Y587500D02*
D03*
X136402Y567500D02*
D03*
Y587500D02*
D03*
D52*
X897064Y562600D02*
D03*
X878064D02*
D03*
X887564Y586600D02*
D03*
X215800Y563100D02*
D03*
X196800D02*
D03*
X206300Y587100D02*
D03*
X386700Y563100D02*
D03*
X367700D02*
D03*
X377200Y587100D02*
D03*
X557500Y562600D02*
D03*
X538500D02*
D03*
X548000Y586600D02*
D03*
X727700Y563000D02*
D03*
X708700D02*
D03*
X718200Y587000D02*
D03*
X1067000Y564000D02*
D03*
X1048000D02*
D03*
X1057500Y588000D02*
D03*
M02*
