M48
;Layer_Color=9474304
;FILE_FORMAT=4:4
METRIC,LZ
;TYPE=PLATED
T1F00S00C0.3000
T2F00S00C0.7620
T3F00S00C0.8000
T4F00S00C0.9000
T5F00S00C1.0000
T7F00S00C1.2000
;TYPE=NON_PLATED
T8F00S00C1.0000
%
T01
X01989636Y003775
X01974495Y00438181
X02075465Y00364286
X0173875Y0034725
X0172275Y002585
X01747Y00460935
X0152025Y00456567
X0149625Y00454412
X01262Y00348
X0118625Y0029025
X0098425Y0028075
X0099925Y00227526
X00726Y0014375
X0048975Y0014975
X00333165Y00312996
X0013775Y0054975
X0021075Y00623177
X00367665Y00658737
X00353Y00686748
X00389Y00539
X00525652Y00496159
X00591688Y005055
X0059225Y005285
X00703217Y00526467
X00657415Y00470969
X006285Y00719
X0052275Y00701
X00698668Y0082025
X0075225Y00616727
X012325Y0072775
X01552Y00558
X01564Y004965
X016435Y005155
X0166175Y00568904
X0167125Y00658
X01703Y006355
X0190125Y005545
X0194075Y006145
X0199225Y0060075
X02039Y005675
X02078495Y00525046
Y00472036
X02060988Y0047975
T02
X01922995Y00396334
Y00421734
Y00447134
X02002995
Y00421734
Y00396334
X02039314Y00396303
Y00421703
Y00447103
X02119314
Y00421703
Y00396303
X01780439Y00390123
Y00415523
Y00440923
Y00364723
Y00339323
Y00313923
X01700439
Y00339323
Y00364723
Y00390123
Y00415523
Y00440923
X01418456Y004394
Y00414
Y003886
Y003632
Y003378
X01338456
Y003632
Y003886
Y00414
Y004394
Y004648
X01293403Y00464531
Y00439131
Y00413731
Y00388331
Y00362931
Y00337531
X01213403
Y00362931
Y00388331
Y00413731
Y00439131
Y00464531
X01159456Y004653
Y004399
Y004145
Y003891
Y003637
Y003383
X01143362Y0024675
Y0016675
X01418456Y004648
X01079456Y004653
Y004399
Y004145
Y003891
Y003637
Y003383
X00988319Y00335899
Y00361299
Y00386699
Y00412099
Y00437499
Y00462899
X00908319
Y00437499
Y00412099
Y00386699
Y00361299
Y00335899
X00816819Y00336849
Y00362249
Y00387649
Y00413049
Y00438449
Y00463849
X00736819
Y00438449
Y00413049
Y00387649
Y00362249
Y00336849
X00990962Y0024675
X01016362
X01041762
X01067162
X01092562
X01117962
Y0016675
X01092562
X01067162
X01041762
X01016362
X00990962
X0033825Y0018258
Y0010258
X0031285
X0028745
X0026205
X0023665
X0021125
X0018585
Y0018258
X0021125
X0023665
X0026205
X0028745
X0031285
X00226419Y00500781
X00201019
X00175619
X00150219
X00124819
X00099419
X00074019
Y00580781
X00099419
X00124819
X00150219
X00175619
X00201019
X00226419
X00437174Y00590157
Y00615557
Y00640957
Y00666357
X00517174
Y00640957
Y00615557
Y00590157
Y00564757
Y00539357
Y00513957
X00437174
Y00539357
Y00564757
X00610415Y00565927
Y00591327
Y00616727
Y00642127
Y00667527
X00690415
Y00642127
Y00616727
Y00591327
Y00565927
Y00540527
Y00515127
X00610415
Y00540527
X00736819Y00489249
X00816819
X00908319Y00488299
X00988319
X01079456Y004907
X01159456
X01213403Y00489931
X01293403
X01338456Y004902
X01418456
X01700439Y00466323
X01780439
X01922995Y00472534
Y00497934
Y00523334
Y00548734
X02002995
Y00523334
Y00497934
Y00472534
X02039314Y00472503
Y00497903
Y00523303
Y00548703
X02119314
Y00523303
Y00497903
Y00472503
X02155745Y00472834
Y00498234
Y00523634
Y00549034
Y00574434
Y00599834
Y00625234
X02235745
Y00599834
Y00574434
Y00549034
Y00523634
Y00498234
Y00472834
T03
X00394915Y00321199
Y00346599
Y00371999
X00611319Y00194149
Y00168749
Y00143349
X00703069Y00147949
Y00173349
Y00198749
X00286165Y00318299
Y00343699
Y00369099
X00193165Y00370249
Y00344849
Y00319449
T04
X01543021Y0007
X01568421
X01604121
X01629521
X01654921
X01680321
X01714021
X01739421
X01764821
X01790221
X0156275Y00295904
Y00395904
X01517621Y0007
X01492221
X00627819Y00240349
X00527819
X00391Y0019575
Y0009575
X00322415Y00432599
X00222415
X01059206Y0055375
X01159206
X01197206Y0055475
X01297206
X0233358Y00658199
X0243358
T05
X0049275Y000655
X0233Y0004
X025795Y000385
Y0010375
Y0016525
X0233025Y0016625
X0232975Y00105
X02329Y0036575
X01996Y003285
X01844743Y00334493
X01763786Y0022493
X018135Y0016625
X0181525Y001045
X0165525Y0013325
X01629929Y0011425
X0160425Y0013425
X01637Y00304654
Y00339654
X0163775Y00390404
Y00425404
X01232412Y0020125
X01197412
X01067662Y001415
X0092575Y00201
X00890665Y00252099
X00855665
X00614319Y00350349
Y00385349
X00475433Y00436564
X00440433
X00461665Y00245349
Y00210349
X0047325Y00133099
X0050825
X002875Y0020825
X00244915Y00250099
X00209915
X00230411Y00669751
Y00704751
X01059206Y0060175
X01362722Y0057075
X01397722
X0229733Y00658949
X0233333Y00616699
X0243408Y00613199
X025805Y0071075
X02651727Y007105
T07
X02160745Y00411034
X02215745Y00436034
Y00386034
X01856244Y00452546
X00793819Y00199349
X00743819
X00768819Y00144349
X00709819Y00240349
X00659819
X00684819Y00295349
X00460415Y00315599
X00485415Y00370599
X00435415
X00375415Y00423599
X00124819Y006215
X00099819Y006765
X00149819
X0015125Y008575
X0010025
X0004925
X0029925
X0035025
X0040125
X0054925
X0060025
X0065125
X00724915Y00675349
Y00625349
X00400415Y00478599
X00350415
X00779915Y00650349
X0080025Y00808
Y008575
X0085025
Y00808
X0090025
Y008575
X0099925Y008575
X0105025
X0110125
X00962319Y00595099
X00937319Y00540099
X00987319
X0119925Y008575
X0125025
X0130125
X0144925
X0150025
X0155125
X0169925
X0175025
X0180125
X0189925
X017725Y00637404
X017175Y00612404
X0171775Y00569404
Y00519404
X0177275Y00544404
X01831244Y00507546
X01881244
X017175Y00662404
X02065745Y00655284
Y00605284
X02120745Y00630284
X0209925Y008575
X0215025
X0220125
X0229925
X0200125
X0195025
X0235025
X0240125
X0254925
X0260025
X0265125
T08
X0049275Y000655
X0233Y0004
X025795Y000385
Y0010375
Y0016525
X0233025Y0016625
X0232975Y00105
X02329Y0036575
X01996Y003285
X01844743Y00334493
X01763786Y0022493
X018135Y0016625
X0181525Y001045
X0165525Y0013325
X01629929Y0011425
X0160425Y0013425
X01067662Y001415
X0092575Y00201
X002875Y0020825
X01059206Y0060175
X0229733Y00658949
X0233333Y00616699
X0243408Y00613199
X025805Y0071075
X02651727Y007105
M30
