M48
;Layer_Color=9474304
;FILE_FORMAT=4:4
METRIC,LZ
;TYPE=PLATED
T1F00S00C1.0000
T2F00S00C1.2000
T3F00S00C1.5000
;TYPE=NON_PLATED
T4F00S00C1.0000
%
T01
X0086Y0003
X00834Y000746
Y001
Y001254
Y0017
Y001954
X0086Y0023
Y0027
X0072Y002
X0068
Y001
X0072
X000223Y001125
X0004Y0003
X000477Y001875
Y0027
T02
X0086Y0003
Y0023
Y0027
X0072Y002375
Y000625
X00445
X003725Y00075
Y00225
X00445Y002375
X002925Y00215
X001925
X001125Y00225
X000477Y0027
X0004Y0003
X001125Y00075
X001925Y00085
X002925
T03
X00776Y0003
Y0022
X00635Y0015
X00445
T04
X0086Y0003
Y0023
Y0027
X0004Y0003
M30
