G04*
G04 #@! TF.GenerationSoftware,Altium Limited,Altium Designer,22.10.1 (41)*
G04*
G04 Layer_Physical_Order=2*
G04 Layer_Color=16711680*
%FSLAX44Y44*%
%MOMM*%
G71*
G04*
G04 #@! TF.SameCoordinates,D4045443-6CB9-420C-902B-608008B4B89B*
G04*
G04*
G04 #@! TF.FilePolarity,Positive*
G04*
G01*
G75*
%ADD16C,1.5000*%
%ADD17C,2.0000*%
%ADD18C,1.0000*%
%ADD19C,2.0000*%
%ADD20O,3.5000X2.0000*%
%ADD21C,1.8000*%
%ADD22R,1.8000X1.8000*%
%ADD23C,0.5000*%
%ADD24R,4.1700X5.7900*%
%ADD25R,7.3998X5.3800*%
D16*
X197153Y61300D02*
X202400D01*
X237000Y26700D01*
X182000Y75100D02*
X183353D01*
X197153Y61300D01*
X237000Y26700D02*
X266100D01*
X336200Y27000D02*
X395600D01*
X182000Y75100D02*
X182957Y74143D01*
X395600Y153000D02*
X413800Y171200D01*
Y221000D01*
X652600Y74494D02*
Y94600D01*
X652266Y119660D02*
X668044D01*
X523600Y27000D02*
Y28353D01*
X523800Y27200D02*
X605306D01*
X677500Y210884D02*
Y220000D01*
X561100Y163600D02*
Y201900D01*
X677500Y210884D02*
X680100Y208284D01*
X560700Y163200D02*
X561100Y163600D01*
Y201900D02*
X577600Y218400D01*
X669200Y217400D02*
X673100Y221300D01*
X670000Y220000D02*
X677500D01*
X517500Y34453D02*
Y60647D01*
Y34453D02*
X523600Y28353D01*
X395600Y27000D02*
Y153000D01*
X539800Y125200D02*
X560700Y146100D01*
Y163200D01*
X444000Y125200D02*
X539800D01*
X680100Y131716D02*
Y208284D01*
X668044Y119660D02*
X680100Y131716D01*
X605306Y27200D02*
X652600Y74494D01*
D17*
X242500Y62000D02*
Y188000D01*
X517000Y62500D02*
X517500Y62000D01*
X195000Y20000D02*
X203100D01*
D18*
X562200Y103900D02*
X599300Y141000D01*
X600900Y67400D02*
Y106600D01*
X638169Y143869D01*
X652748D01*
X562200Y68400D02*
Y103900D01*
D19*
X132500Y125100D02*
D03*
Y75100D02*
D03*
Y175100D02*
D03*
X182000D02*
D03*
Y75100D02*
D03*
X517500Y62000D02*
D03*
X242500D02*
D03*
X577600Y218400D02*
D03*
X627600D02*
D03*
X513800Y221000D02*
D03*
X413800D02*
D03*
X517500Y188000D02*
D03*
X242500D02*
D03*
X523600Y153000D02*
D03*
X395600D02*
D03*
X560757Y163600D02*
D03*
Y63600D02*
D03*
X395600Y27000D02*
D03*
X523600D02*
D03*
X443700Y124900D02*
D03*
D20*
X195000Y230000D02*
D03*
X670000Y30000D02*
D03*
Y220000D02*
D03*
X195300Y20000D02*
D03*
D21*
X652600Y145400D02*
D03*
Y120000D02*
D03*
X600000Y59000D02*
D03*
Y141000D02*
D03*
X670000Y30000D02*
D03*
Y220000D02*
D03*
X195000Y230000D02*
D03*
Y20000D02*
D03*
D22*
X652600Y94600D02*
D03*
D23*
X266600Y27200D02*
X336000D01*
D24*
X566750Y212450D02*
D03*
D25*
X654099Y214300D02*
D03*
M02*
