M48
;Layer_Color=9474304
;FILE_FORMAT=4:4
METRIC,LZ
;TYPE=PLATED
T1F00S00C1.0000
T2F00S00C1.2000
T3F00S00C1.5000
;TYPE=NON_PLATED
T4F00S00C1.0000
%
T01
X003375Y00142886
X003362Y001763
X003356Y002064
X004041Y002147
X004362Y001763
X004195Y00142886
X004265Y00104
X005152Y000914
Y001168
Y001422
X0067Y0022
Y0003
X003292Y000658
X002985Y00104
X003068Y001444
X003073Y001772
X001788Y001444
X001286Y001378
X001283Y000875
X001291Y002016
X002292Y000658
T02
X004559Y000543
X004571Y00104
X001821
X001809Y000543
T03
X0043285Y0021585
X006326Y0021535
T04
X003356Y002064
X004041Y002147
X0067Y0022
Y0003
X003073Y001772
X001291Y002016
X001286Y001378
X001286Y000875
M30
