G04*
G04 #@! TF.GenerationSoftware,Altium Limited,Altium Designer,22.10.1 (41)*
G04*
G04 Layer_Color=8388736*
%FSLAX44Y44*%
%MOMM*%
G71*
G04*
G04 #@! TF.SameCoordinates,FA340068-F1DC-43B8-B5E1-3386DD3F2D8B*
G04*
G04*
G04 #@! TF.FilePolarity,Negative*
G04*
G01*
G75*
%ADD13C,3.0200*%
%ADD14C,2.0200*%
%ADD15C,3.2032*%
%ADD16C,2.4032*%
%ADD17C,1.8200*%
%ADD18R,1.8200X1.8200*%
%ADD19C,1.6200*%
D13*
X635000Y150000D02*
D03*
X445000D02*
D03*
X776000Y30000D02*
D03*
Y220000D02*
D03*
X47700Y270000D02*
D03*
D14*
X680000Y200000D02*
D03*
Y100000D02*
D03*
X720000Y200000D02*
D03*
Y100000D02*
D03*
X47700Y187500D02*
D03*
X22300Y112500D02*
D03*
X445000Y237500D02*
D03*
X720000D02*
D03*
X445000Y62500D02*
D03*
X720000D02*
D03*
X192500Y215000D02*
D03*
Y85000D02*
D03*
X292500Y215000D02*
D03*
Y85000D02*
D03*
X112500Y225000D02*
D03*
Y75000D02*
D03*
X372500D02*
D03*
Y225000D02*
D03*
D15*
X40000Y30000D02*
D03*
D16*
X860000Y230000D02*
D03*
Y270000D02*
D03*
Y30000D02*
D03*
D17*
X834000Y125400D02*
D03*
Y100000D02*
D03*
D18*
Y74600D02*
D03*
D19*
Y170000D02*
D03*
Y195400D02*
D03*
M02*
