M48
;Layer_Color=9474304
;FILE_FORMAT=4:4
METRIC,LZ
;TYPE=PLATED
T6F00S00C1.0000
;TYPE=NON_PLATED
%
G90
G05
T06
G00X0186825Y00045
M15
G01Y00035
M16
G00X0203225Y00045
M15
G01Y00035
M16
G00X0211825Y00045
M15
G01Y00035
M16
G00X0228225Y00045
M15
G01Y00035
M16
G00X0236825Y00045
M15
G01Y00035
M16
G00X0253225Y00045
M15
G01Y00035
M16
G00X0253225Y0011
M15
G01Y001
M16
G00X0253225Y00171
M15
G01Y00161
M16
G00X0236825Y00171
M15
G01Y00161
M16
G00X0236825Y0011
M15
G01Y001
M16
G00X0228225Y0011
M15
G01Y001
M16
G00X0228225Y00171
M15
G01Y00161
M16
G00X0211825Y00171
M15
G01Y00161
M16
G00X0211825Y0011
M15
G01Y001
M16
G00X0203225Y0011
M15
G01Y001
M16
G00X0203225Y00171
M15
G01Y00161
M16
G00X0186825Y00171
M15
G01Y00161
M16
G00X0186825Y0011
M15
G01Y001
M16
M17
M30
