G04*
G04 #@! TF.GenerationSoftware,Altium Limited,Altium Designer,22.10.1 (41)*
G04*
G04 Layer_Physical_Order=2*
G04 Layer_Color=16711680*
%FSLAX44Y44*%
%MOMM*%
G71*
G04*
G04 #@! TF.SameCoordinates,AEFCC64F-A21F-44B2-B13A-618CF61525BC*
G04*
G04*
G04 #@! TF.FilePolarity,Positive*
G04*
G01*
G75*
%ADD17C,2.0000*%
%ADD18C,1.0000*%
%ADD19R,1.8000X1.8000*%
%ADD20C,1.8000*%
%ADD21O,3.5000X2.0000*%
%ADD22C,2.0000*%
%ADD23C,3.0000*%
%ADD24C,1.5000*%
%ADD25R,1.0000X1.6000*%
%ADD26R,2.5000X2.3000*%
%ADD27R,1.6000X1.0000*%
%ADD28R,1.8000X1.4500*%
%ADD29R,6.7348X5.3800*%
%ADD30R,3.5200X1.9100*%
%ADD31R,6.9042X9.0800*%
%ADD32R,3.2700X15.8400*%
%ADD33R,3.2900X5.7900*%
D17*
X103400Y20000D02*
X124100Y40700D01*
Y112203D01*
X95300Y20000D02*
X103400D01*
X135816Y123918D02*
X242500D01*
X124100Y112203D02*
X135816Y123918D01*
X242500Y62000D02*
Y123918D01*
Y188000D01*
X170000Y25000D02*
X171500Y26500D01*
X170000Y75000D02*
X171500Y73500D01*
Y26500D02*
Y73500D01*
X169800Y175200D02*
Y224800D01*
X82000Y175100D02*
X94100Y187200D01*
Y230000D01*
X554400Y56750D02*
Y89000D01*
X581150Y30000D02*
X670000D01*
X554400Y56750D02*
X581150Y30000D01*
X652600Y135100D02*
X668384D01*
X680100Y146816D01*
Y208284D01*
X677500Y210884D02*
X680100Y208284D01*
X670000Y220000D02*
X677500D01*
Y210884D02*
Y220000D01*
X669200Y217400D02*
X673100Y221300D01*
X471500Y62000D02*
X517500D01*
X418484Y191600D02*
X427000D01*
X327400Y195800D02*
X414284D01*
X298300Y224900D02*
X327400Y195800D01*
X427000Y191600D02*
X428500Y190100D01*
X414284Y195800D02*
X418484Y191600D01*
X179600Y224900D02*
X298300D01*
X509678Y133722D02*
X554400Y89000D01*
D18*
X568000Y154000D02*
X568300Y153700D01*
X592400D01*
X565000Y154000D02*
X568000D01*
D19*
X652600Y109700D02*
D03*
D20*
Y135100D02*
D03*
Y160500D02*
D03*
X592400Y153700D02*
D03*
Y71700D02*
D03*
X670000Y30000D02*
D03*
Y220000D02*
D03*
X95000Y230000D02*
D03*
Y20000D02*
D03*
D21*
X670000Y220000D02*
D03*
Y30000D02*
D03*
X95300Y20000D02*
D03*
X95000Y230000D02*
D03*
D22*
X242500Y188000D02*
D03*
X517500D02*
D03*
X82000Y75100D02*
D03*
Y175100D02*
D03*
X32500D02*
D03*
Y75100D02*
D03*
Y125100D02*
D03*
X242500Y62000D02*
D03*
X517500D02*
D03*
D23*
X170000Y25000D02*
D03*
Y225000D02*
D03*
Y75000D02*
D03*
Y175000D02*
D03*
D24*
X546200Y231600D02*
D03*
D25*
X434000Y126100D02*
D03*
X466000D02*
D03*
D26*
X471500Y62000D02*
D03*
X428500D02*
D03*
Y190100D02*
D03*
X471500D02*
D03*
D27*
X565000Y154000D02*
D03*
Y186000D02*
D03*
D28*
X632750Y209450D02*
D03*
X567250D02*
D03*
X632750Y233950D02*
D03*
X567250D02*
D03*
D29*
X657424Y214300D02*
D03*
D30*
X558300Y231850D02*
D03*
D31*
X493979Y160300D02*
D03*
D32*
X424350Y126500D02*
D03*
D33*
X562350Y212450D02*
D03*
M02*
