G04*
G04 #@! TF.GenerationSoftware,Altium Limited,Altium Designer,22.10.1 (41)*
G04*
G04 Layer_Physical_Order=1*
G04 Layer_Color=255*
%FSLAX44Y44*%
%MOMM*%
G71*
G04*
G04 #@! TF.SameCoordinates,AEFCC64F-A21F-44B2-B13A-618CF61525BC*
G04*
G04*
G04 #@! TF.FilePolarity,Positive*
G04*
G01*
G75*
%ADD17C,2.0000*%
%ADD18C,1.0000*%
%ADD19R,1.8000X1.8000*%
%ADD20C,1.8000*%
%ADD21O,3.5000X2.0000*%
%ADD22C,2.0000*%
%ADD23C,3.0000*%
%ADD24C,1.5000*%
D17*
X541600Y37900D02*
X612700D01*
X652600Y77800D02*
Y109700D01*
X612700Y37900D02*
X652600Y77800D01*
X82000Y75100D02*
X82400Y75500D01*
X169500D01*
X517500Y62000D02*
X541600Y37900D01*
D18*
X68800Y139100D02*
X402400D01*
X494900Y231600D02*
X546200D01*
X402400Y139100D02*
X494900Y231600D01*
X547600Y109700D02*
X591600Y153700D01*
X46400Y109700D02*
X547600D01*
X592400Y71700D02*
X617100Y96400D01*
Y145900D02*
X631700Y160500D01*
X617100Y96400D02*
Y145900D01*
X32182Y123918D02*
X46400Y109700D01*
X32800Y175100D02*
X68800Y139100D01*
X31200Y173829D02*
Y180169D01*
X631700Y160500D02*
X652600D01*
D19*
Y109700D02*
D03*
D20*
Y135100D02*
D03*
Y160500D02*
D03*
X592400Y153700D02*
D03*
Y71700D02*
D03*
X670000Y30000D02*
D03*
Y220000D02*
D03*
X95000Y230000D02*
D03*
Y20000D02*
D03*
D21*
X670000Y220000D02*
D03*
Y30000D02*
D03*
X95300Y20000D02*
D03*
X95000Y230000D02*
D03*
D22*
X242500Y188000D02*
D03*
X517500D02*
D03*
X82000Y75100D02*
D03*
Y175100D02*
D03*
X32500D02*
D03*
Y75100D02*
D03*
Y125100D02*
D03*
X242500Y62000D02*
D03*
X517500D02*
D03*
D23*
X170000Y25000D02*
D03*
Y225000D02*
D03*
Y75000D02*
D03*
Y175000D02*
D03*
D24*
X546200Y231600D02*
D03*
M02*
