G04*
G04 #@! TF.GenerationSoftware,Altium Limited,Altium Designer,22.10.1 (41)*
G04*
G04 Layer_Color=65535*
%FSLAX44Y44*%
%MOMM*%
G71*
G04*
G04 #@! TF.SameCoordinates,2E0DDC9F-B89A-4235-B925-374E8A91578C*
G04*
G04*
G04 #@! TF.FilePolarity,Positive*
G04*
G01*
G75*
%ADD10C,0.2000*%
%ADD11C,0.2540*%
D10*
X641300Y83100D02*
Y187100D01*
X627600Y83100D02*
X673600D01*
Y187100D01*
X627600D02*
X673600D01*
X627600Y83100D02*
Y187100D01*
D11*
X540000Y128000D02*
Y248000D01*
X220000D02*
X540000D01*
X220000Y128000D02*
Y248000D01*
Y128000D02*
X540000D01*
X390000Y188000D02*
X470000D01*
X290000D02*
X370000D01*
Y158000D02*
Y208000D01*
Y218000D01*
X390000Y188000D02*
Y218000D01*
Y158000D02*
Y188000D01*
X579400Y59700D02*
Y165700D01*
X605400Y59700D02*
Y165700D01*
X579400Y59700D02*
X605400D01*
X579400Y165700D02*
X605400D01*
X210000Y40100D02*
Y210100D01*
X90000Y40100D02*
X210000D01*
X90000D02*
Y210100D01*
X210000D01*
X540000Y2000D02*
Y122000D01*
X220000D02*
X540000D01*
X220000Y2000D02*
Y122000D01*
Y2000D02*
X540000D01*
X390000Y62000D02*
X470000D01*
X290000D02*
X370000D01*
Y32000D02*
Y82000D01*
Y92000D01*
X390000Y62000D02*
Y92000D01*
Y32000D02*
Y62000D01*
X615371Y225198D02*
X612039D01*
X610373Y223532D01*
Y216868D01*
X612039Y215202D01*
X615371D01*
X617037Y216868D01*
Y223532D01*
X615371Y225198D01*
X620369D02*
Y216868D01*
X622035Y215202D01*
X625368D01*
X627034Y216868D01*
Y225198D01*
X630366D02*
X637031D01*
X633698D01*
Y215202D01*
X647027D02*
X640363D01*
X647027Y221866D01*
Y223532D01*
X645361Y225198D01*
X642029D01*
X640363Y223532D01*
X617637Y35598D02*
X614305D01*
X612639Y33932D01*
Y27268D01*
X614305Y25602D01*
X617637D01*
X619303Y27268D01*
Y33932D01*
X617637Y35598D01*
X622635D02*
Y27268D01*
X624302Y25602D01*
X627634D01*
X629300Y27268D01*
Y35598D01*
X632632D02*
X639297D01*
X635965D01*
Y25602D01*
X642629D02*
X645961D01*
X644295D01*
Y35598D01*
X642629Y33932D01*
X162532Y18418D02*
Y28415D01*
X169196Y18418D01*
Y28415D01*
X162278Y238473D02*
Y228476D01*
X168943D01*
X564202Y95571D02*
X570866D01*
X574198Y98903D01*
X570866Y102235D01*
X564202D01*
Y105568D02*
X574198D01*
Y110566D01*
X572532Y112232D01*
X565868D01*
X564202Y110566D01*
Y105568D01*
X565868Y115564D02*
X564202Y117231D01*
Y120563D01*
X565868Y122229D01*
X567534D01*
X569200Y120563D01*
Y118897D01*
Y120563D01*
X570866Y122229D01*
X572532D01*
X574198Y120563D01*
Y117231D01*
X572532Y115564D01*
X578871Y186298D02*
Y176302D01*
X583869D01*
X585536Y177968D01*
Y184632D01*
X583869Y186298D01*
X578871D01*
X588868D02*
Y176302D01*
X593866D01*
X595532Y177968D01*
Y179634D01*
X593866Y181300D01*
X588868D01*
X593866D01*
X595532Y182966D01*
Y184632D01*
X593866Y186298D01*
X588868D01*
X598865Y184632D02*
X600531Y186298D01*
X603863D01*
X605529Y184632D01*
Y182966D01*
X603863Y181300D01*
X602197D01*
X603863D01*
X605529Y179634D01*
Y177968D01*
X603863Y176302D01*
X600531D01*
X598865Y177968D01*
X640237Y74498D02*
Y67834D01*
X643569Y64502D01*
X646902Y67834D01*
Y74498D01*
X650234D02*
X656898D01*
X653566D01*
Y64502D01*
X660231D02*
X663563D01*
X661897D01*
Y74498D01*
X660231Y72832D01*
X681102Y101609D02*
Y108273D01*
Y104941D01*
X691098D01*
X681102Y111606D02*
X682768D01*
X686100Y114938D01*
X682768Y118270D01*
X681102D01*
X686100Y114938D02*
X691098D01*
Y121602D02*
X681102D01*
X691098Y128267D01*
X681102D01*
X691098Y136598D02*
X681102D01*
X686100Y131599D01*
Y138264D01*
X691098Y141596D02*
Y144928D01*
Y143262D01*
X681102D01*
X682768Y141596D01*
X691098Y156591D02*
Y149927D01*
X684434Y156591D01*
X682768D01*
X681102Y154925D01*
Y151593D01*
X682768Y149927D01*
X117036Y44302D02*
Y54298D01*
X122034D01*
X123700Y52632D01*
Y49300D01*
X122034Y47634D01*
X117036D01*
X120368D02*
X123700Y44302D01*
X127032D02*
X130365D01*
X128698D01*
Y54298D01*
X127032Y52632D01*
X142009Y43902D02*
X145341D01*
X143675D01*
Y53898D01*
X142009Y52232D01*
X150339D02*
X152006Y53898D01*
X155338D01*
X157004Y52232D01*
Y45568D01*
X155338Y43902D01*
X152006D01*
X150339Y45568D01*
Y52232D01*
X160336D02*
X162002Y53898D01*
X165335D01*
X167001Y52232D01*
Y45568D01*
X165335Y43902D01*
X162002D01*
X160336Y45568D01*
Y52232D01*
X170333Y43902D02*
Y53898D01*
Y47234D02*
X175331Y50566D01*
X170333Y47234D02*
X175331Y43902D01*
X190327Y53898D02*
Y43902D01*
X195325D01*
X196991Y45568D01*
Y47234D01*
X195325Y48900D01*
X190327D01*
X195325D01*
X196991Y50566D01*
Y52232D01*
X195325Y53898D01*
X190327D01*
X241634Y235232D02*
X239968Y236898D01*
X236635D01*
X234969Y235232D01*
Y228568D01*
X236635Y226902D01*
X239968D01*
X241634Y228568D01*
X251631Y226902D02*
X244966D01*
X251631Y233566D01*
Y235232D01*
X249965Y236898D01*
X246632D01*
X244966Y235232D01*
X322952Y239132D02*
X321286Y240798D01*
X317953D01*
X316287Y239132D01*
Y232468D01*
X317953Y230802D01*
X321286D01*
X322952Y232468D01*
X326284Y230802D02*
Y237466D01*
X329616Y240798D01*
X332948Y237466D01*
Y230802D01*
Y235800D01*
X326284D01*
X336281Y230802D02*
Y240798D01*
X341279D01*
X342945Y239132D01*
Y235800D01*
X341279Y234134D01*
X336281D01*
X362939Y230802D02*
X356274D01*
X362939Y237466D01*
Y239132D01*
X361273Y240798D01*
X357940D01*
X356274Y239132D01*
X372935Y230802D02*
X366271D01*
X372935Y237466D01*
Y239132D01*
X371269Y240798D01*
X367937D01*
X366271Y239132D01*
X382932Y240798D02*
X376268D01*
Y235800D01*
X379600Y237466D01*
X381266D01*
X382932Y235800D01*
Y232468D01*
X381266Y230802D01*
X377934D01*
X376268Y232468D01*
X392929Y240798D02*
X389597D01*
X391263D01*
Y232468D01*
X389597Y230802D01*
X387931D01*
X386264Y232468D01*
X411256Y230802D02*
Y240798D01*
X406258Y235800D01*
X412923D01*
X416255Y239132D02*
X417921Y240798D01*
X421253D01*
X422919Y239132D01*
Y232468D01*
X421253Y230802D01*
X417921D01*
X416255Y232468D01*
Y239132D01*
X426252D02*
X427918Y240798D01*
X431250D01*
X432916Y239132D01*
Y232468D01*
X431250Y230802D01*
X427918D01*
X426252Y232468D01*
Y239132D01*
X436248Y240798D02*
Y234134D01*
X439581Y230802D01*
X442913Y234134D01*
Y240798D01*
X240000Y17732D02*
X238334Y19398D01*
X235002D01*
X233335Y17732D01*
Y11068D01*
X235002Y9402D01*
X238334D01*
X240000Y11068D01*
X243332Y9402D02*
X246665D01*
X244998D01*
Y19398D01*
X243332Y17732D01*
X306652Y19532D02*
X304985Y21198D01*
X301653D01*
X299987Y19532D01*
Y12868D01*
X301653Y11202D01*
X304985D01*
X306652Y12868D01*
X309984Y11202D02*
Y17866D01*
X313316Y21198D01*
X316648Y17866D01*
Y11202D01*
Y16200D01*
X309984D01*
X319981Y11202D02*
Y21198D01*
X324979D01*
X326645Y19532D01*
Y16200D01*
X324979Y14534D01*
X319981D01*
X346639Y11202D02*
X339974D01*
X346639Y17866D01*
Y19532D01*
X344973Y21198D01*
X341640D01*
X339974Y19532D01*
X356636Y11202D02*
X349971D01*
X356636Y17866D01*
Y19532D01*
X354969Y21198D01*
X351637D01*
X349971Y19532D01*
X366632Y21198D02*
X359968D01*
Y16200D01*
X363300Y17866D01*
X364966D01*
X366632Y16200D01*
Y12868D01*
X364966Y11202D01*
X361634D01*
X359968Y12868D01*
X376629Y21198D02*
X373297D01*
X374963D01*
Y12868D01*
X373297Y11202D01*
X371631D01*
X369964Y12868D01*
X394957Y11202D02*
Y21198D01*
X389958Y16200D01*
X396623D01*
X399955Y19532D02*
X401621Y21198D01*
X404953D01*
X406619Y19532D01*
Y12868D01*
X404953Y11202D01*
X401621D01*
X399955Y12868D01*
Y19532D01*
X409952D02*
X411618Y21198D01*
X414950D01*
X416616Y19532D01*
Y12868D01*
X414950Y11202D01*
X411618D01*
X409952Y12868D01*
Y19532D01*
X419948Y21198D02*
Y14534D01*
X423281Y11202D01*
X426613Y14534D01*
Y21198D01*
M02*
