G04*
G04 #@! TF.GenerationSoftware,Altium Limited,Altium Designer,22.10.1 (41)*
G04*
G04 Layer_Color=16711935*
%FSLAX44Y44*%
%MOMM*%
G71*
G04*
G04 #@! TF.SameCoordinates,2E0DDC9F-B89A-4235-B925-374E8A91578C*
G04*
G04*
G04 #@! TF.FilePolarity,Negative*
G04*
G01*
G75*
%ADD12O,3.7032X2.2032*%
%ADD13R,1.8200X1.8200*%
%ADD14C,1.8200*%
%ADD15C,2.0200*%
%ADD34R,1.0200X1.6200*%
%ADD35R,2.5200X2.3200*%
%ADD36R,1.6200X1.0200*%
%ADD37R,1.8200X1.4700*%
D12*
X195300Y20000D02*
D03*
X195000Y230000D02*
D03*
X670000Y220000D02*
D03*
Y30000D02*
D03*
D13*
X652600Y109700D02*
D03*
D14*
Y135100D02*
D03*
Y160500D02*
D03*
X592400Y153700D02*
D03*
Y71700D02*
D03*
D15*
X242500Y188000D02*
D03*
X517500D02*
D03*
X182000Y75100D02*
D03*
Y175100D02*
D03*
X132500D02*
D03*
Y75100D02*
D03*
Y125100D02*
D03*
X242500Y62000D02*
D03*
X517500D02*
D03*
D34*
X434000Y126100D02*
D03*
X466000D02*
D03*
D35*
X471500Y62000D02*
D03*
X428500D02*
D03*
Y190100D02*
D03*
X471500D02*
D03*
D36*
X565000Y154000D02*
D03*
Y186000D02*
D03*
D37*
X632750Y209450D02*
D03*
X567250D02*
D03*
X632750Y233950D02*
D03*
X567250D02*
D03*
M02*
