G04*
G04 #@! TF.GenerationSoftware,Altium Limited,Altium Designer,22.10.1 (41)*
G04*
G04 Layer_Physical_Order=1*
G04 Layer_Color=255*
%FSLAX44Y44*%
%MOMM*%
G71*
G04*
G04 #@! TF.SameCoordinates,2E0DDC9F-B89A-4235-B925-374E8A91578C*
G04*
G04*
G04 #@! TF.FilePolarity,Positive*
G04*
G01*
G75*
%ADD16C,2.0000*%
%ADD17C,1.0000*%
%ADD18O,3.5000X2.0000*%
%ADD19R,1.8000X1.8000*%
%ADD20C,1.8000*%
%ADD21C,2.0000*%
%ADD22C,1.5000*%
D16*
X195300Y20000D02*
X202800D01*
X195000D02*
X195300D01*
X202800D02*
X242500Y59700D01*
Y62000D01*
X182000Y175100D02*
Y189600D01*
X195000Y202600D02*
Y230000D01*
X182000Y189600D02*
X195000Y202600D01*
X541600Y37900D02*
X612400D01*
X652600Y78100D01*
Y109700D01*
X517500Y62000D02*
X541600Y37900D01*
D17*
X130400Y174900D02*
X166200Y139100D01*
X131992Y125708D02*
X148000Y109700D01*
X553700D01*
X166200Y139100D02*
X290700D01*
X592400Y151535D02*
Y153700D01*
X588400Y144400D02*
Y147535D01*
X553700Y109700D02*
X588400Y144400D01*
Y147535D02*
X592400Y151535D01*
X290700Y139100D02*
X383200Y231600D01*
X546200D01*
X592400Y71700D02*
X617100Y96400D01*
Y145900D02*
X631700Y160500D01*
X617100Y96400D02*
Y145900D01*
X631700Y160500D02*
X652600D01*
D18*
X195300Y20000D02*
D03*
X195000Y230000D02*
D03*
X670000Y220000D02*
D03*
Y30000D02*
D03*
D19*
X652600Y109700D02*
D03*
D20*
Y135100D02*
D03*
Y160500D02*
D03*
X592400Y153700D02*
D03*
Y71700D02*
D03*
X670000Y30000D02*
D03*
Y220000D02*
D03*
X195000Y230000D02*
D03*
Y20000D02*
D03*
D21*
X242500Y188000D02*
D03*
X517500D02*
D03*
X182000Y75100D02*
D03*
Y175100D02*
D03*
X132500D02*
D03*
Y75100D02*
D03*
Y125100D02*
D03*
X242500Y62000D02*
D03*
X517500D02*
D03*
D22*
X546200Y231600D02*
D03*
M02*
