G04*
G04 #@! TF.GenerationSoftware,Altium Limited,Altium Designer,22.10.1 (41)*
G04*
G04 Layer_Physical_Order=1*
G04 Layer_Color=255*
%FSLAX44Y44*%
%MOMM*%
G71*
G04*
G04 #@! TF.SameCoordinates,0E9425E9-A874-4ED2-9F9C-91F8E0F331BA*
G04*
G04*
G04 #@! TF.FilePolarity,Positive*
G04*
G01*
G75*
%ADD11C,1.0000*%
%ADD12C,0.3000*%
%ADD16R,1.6000X1.0000*%
%ADD17R,1.0000X1.6000*%
%ADD33C,2.0000*%
%ADD34C,0.5000*%
%ADD35R,4.1440X4.1800*%
%ADD36C,1.8000*%
%ADD37C,2.0000*%
%ADD38R,10.0000X5.0000*%
%ADD39R,5.0000X5.0000*%
%ADD40C,1.5000*%
%ADD41C,1.6000*%
%ADD42C,2.2000*%
%ADD43C,1.9500*%
G04:AMPARAMS|DCode=44|XSize=1.95mm|YSize=1.95mm|CornerRadius=0.4875mm|HoleSize=0mm|Usage=FLASHONLY|Rotation=90.000|XOffset=0mm|YOffset=0mm|HoleType=Round|Shape=RoundedRectangle|*
%AMROUNDEDRECTD44*
21,1,1.9500,0.9750,0,0,90.0*
21,1,0.9750,1.9500,0,0,90.0*
1,1,0.9750,0.4875,0.4875*
1,1,0.9750,0.4875,-0.4875*
1,1,0.9750,-0.4875,-0.4875*
1,1,0.9750,-0.4875,0.4875*
%
%ADD44ROUNDEDRECTD44*%
%ADD45C,3.0000*%
G04:AMPARAMS|DCode=46|XSize=1.95mm|YSize=1.95mm|CornerRadius=0.4875mm|HoleSize=0mm|Usage=FLASHONLY|Rotation=0.000|XOffset=0mm|YOffset=0mm|HoleType=Round|Shape=RoundedRectangle|*
%AMROUNDEDRECTD46*
21,1,1.9500,0.9750,0,0,0.0*
21,1,0.9750,1.9500,0,0,0.0*
1,1,0.9750,0.4875,-0.4875*
1,1,0.9750,-0.4875,-0.4875*
1,1,0.9750,-0.4875,0.4875*
1,1,0.9750,0.4875,0.4875*
%
%ADD46ROUNDEDRECTD46*%
%ADD47R,8.0000X8.0000*%
%ADD48C,0.8000*%
G36*
X1895700Y880800D02*
X1995646D01*
Y125000D01*
X1895700D01*
Y4354D01*
X775100Y4354D01*
Y353700D01*
X738100Y390700D01*
X72100D01*
X56300Y406500D01*
X4354D01*
X4354Y618222D01*
X146367D01*
X159294Y605294D01*
X160965Y604012D01*
X162912Y603206D01*
X165000Y602931D01*
X191931D01*
Y530187D01*
X191198Y529454D01*
X189750Y526946D01*
X189000Y524148D01*
Y521252D01*
X189750Y518454D01*
X191198Y515946D01*
X193246Y513898D01*
X195754Y512450D01*
X198552Y511700D01*
X201448D01*
X204246Y512450D01*
X206754Y513898D01*
X208802Y515946D01*
X210250Y518454D01*
X211000Y521252D01*
Y524148D01*
X210250Y526946D01*
X208802Y529454D01*
X208069Y530187D01*
Y602931D01*
X237681D01*
Y595700D01*
X234750D01*
Y579700D01*
X245226D01*
X245750Y579631D01*
X246274Y579700D01*
X256750D01*
Y595700D01*
X253819D01*
Y602931D01*
X361931D01*
Y530187D01*
X361198Y529454D01*
X359750Y526946D01*
X359000Y524148D01*
Y521252D01*
X359750Y518454D01*
X361198Y515946D01*
X363246Y513898D01*
X365754Y512450D01*
X368552Y511700D01*
X371448D01*
X374246Y512450D01*
X376754Y513898D01*
X378802Y515946D01*
X380250Y518454D01*
X381000Y521252D01*
Y524148D01*
X380250Y526946D01*
X378802Y529454D01*
X378069Y530187D01*
Y602931D01*
X407731D01*
Y595700D01*
X404750D01*
Y579700D01*
X415276D01*
X415800Y579631D01*
X416324Y579700D01*
X426750D01*
Y595700D01*
X423869D01*
Y602931D01*
X531931D01*
Y530187D01*
X531198Y529454D01*
X529750Y526946D01*
X529000Y524148D01*
Y521252D01*
X529750Y518454D01*
X531198Y515946D01*
X533246Y513898D01*
X535754Y512450D01*
X538552Y511700D01*
X541448D01*
X544246Y512450D01*
X546754Y513898D01*
X548802Y515946D01*
X550250Y518454D01*
X551000Y521252D01*
Y524148D01*
X550250Y526946D01*
X548802Y529454D01*
X548069Y530187D01*
Y602931D01*
X576631D01*
Y595700D01*
X574750D01*
Y579700D01*
X584176D01*
X584700Y579631D01*
X585224Y579700D01*
X596750D01*
Y595700D01*
X592769D01*
Y602931D01*
X701931D01*
Y530187D01*
X701198Y529454D01*
X699750Y526946D01*
X699000Y524148D01*
Y521252D01*
X699750Y518454D01*
X701198Y515946D01*
X703246Y513898D01*
X705754Y512450D01*
X708552Y511700D01*
X711448D01*
X714246Y512450D01*
X716754Y513898D01*
X718802Y515946D01*
X720250Y518454D01*
X721000Y521252D01*
Y524148D01*
X720250Y526946D01*
X718802Y529454D01*
X718069Y530187D01*
Y602931D01*
X748631D01*
Y595700D01*
X744750D01*
Y579700D01*
X755226D01*
X755750Y579631D01*
X756700D01*
X757224Y579700D01*
X766750D01*
Y595700D01*
X764769D01*
Y602931D01*
X816950D01*
X817710Y603031D01*
X871195D01*
Y530287D01*
X870462Y529554D01*
X869014Y527046D01*
X868264Y524248D01*
Y521352D01*
X869014Y518554D01*
X870462Y516046D01*
X872510Y513998D01*
X875018Y512550D01*
X877816Y511800D01*
X880713D01*
X883510Y512550D01*
X886019Y513998D01*
X888066Y516046D01*
X889515Y518554D01*
X890264Y521352D01*
Y524248D01*
X889515Y527046D01*
X888066Y529554D01*
X887333Y530287D01*
Y603031D01*
X915895D01*
Y595800D01*
X914014D01*
Y579800D01*
X923440D01*
X923964Y579731D01*
X925014D01*
X925539Y579800D01*
X936014D01*
Y595800D01*
X932033D01*
Y602931D01*
X986000D01*
X988088Y603206D01*
X989839Y603931D01*
X1041231D01*
Y531187D01*
X1040498Y530454D01*
X1039050Y527946D01*
X1038300Y525148D01*
Y522252D01*
X1039050Y519454D01*
X1040498Y516946D01*
X1042546Y514898D01*
X1045054Y513450D01*
X1047852Y512700D01*
X1050748D01*
X1053546Y513450D01*
X1056054Y514898D01*
X1058102Y516946D01*
X1059550Y519454D01*
X1060300Y522252D01*
Y525148D01*
X1059550Y527946D01*
X1058102Y530454D01*
X1057369Y531187D01*
Y603931D01*
X1087131D01*
Y596700D01*
X1084050D01*
Y580700D01*
X1094526D01*
X1095050Y580631D01*
X1095200D01*
X1095724Y580700D01*
X1106050D01*
Y596700D01*
X1103269D01*
Y602931D01*
X1133300D01*
X1135388Y603206D01*
X1137335Y604012D01*
X1139006Y605294D01*
X1199252Y665541D01*
X1229328D01*
X1346735Y548135D01*
X1348554Y546919D01*
X1350700Y546492D01*
X1676413D01*
X1677998Y545577D01*
X1679778Y545100D01*
X1681622D01*
X1683402Y545577D01*
X1684998Y546499D01*
X1686301Y547802D01*
X1687223Y549398D01*
X1687700Y551178D01*
Y553022D01*
X1687223Y554802D01*
X1686301Y556398D01*
X1684998Y557701D01*
X1683402Y558623D01*
X1681622Y559100D01*
X1679778D01*
X1677998Y558623D01*
X1676413Y557708D01*
X1353023D01*
X1235599Y675132D01*
Y710400D01*
X1235366Y711571D01*
X1234703Y712563D01*
X1233710Y713226D01*
X1232540Y713459D01*
X1191100D01*
X1189930Y713226D01*
X1188937Y712563D01*
X1188274Y711571D01*
X1188041Y710400D01*
Y677152D01*
X1129958Y619069D01*
X1123228D01*
X1122742Y620242D01*
X1162600Y660100D01*
Y741388D01*
X1473669D01*
X1588700Y626357D01*
Y589900D01*
X1644700D01*
Y645900D01*
X1606243D01*
X1488372Y763772D01*
X1485656Y765855D01*
X1482494Y767165D01*
X1479100Y767612D01*
X1479100Y767612D01*
X1162600D01*
Y787888D01*
X1555569D01*
X1597728Y745728D01*
X1598410Y745205D01*
X1599018Y744597D01*
X1599762Y744168D01*
X1600444Y743644D01*
X1601238Y743316D01*
X1601982Y742886D01*
X1602812Y742663D01*
X1603606Y742335D01*
X1604458Y742222D01*
X1605289Y742000D01*
X1606148D01*
X1607000Y741888D01*
X1607852Y742000D01*
X1608712D01*
X1609542Y742222D01*
X1610394Y742335D01*
X1611188Y742663D01*
X1612018Y742886D01*
X1612762Y743316D01*
X1613556Y743644D01*
X1614238Y744168D01*
X1614982Y744597D01*
X1615590Y745205D01*
X1616272Y745728D01*
X1616795Y746410D01*
X1617403Y747018D01*
X1617832Y747762D01*
X1618356Y748444D01*
X1618684Y749238D01*
X1619114Y749982D01*
X1619337Y750812D01*
X1619665Y751606D01*
X1619778Y752458D01*
X1620000Y753288D01*
Y754148D01*
X1620112Y755000D01*
X1620000Y755852D01*
Y756712D01*
X1619778Y757542D01*
X1619665Y758394D01*
X1619337Y759188D01*
X1619114Y760018D01*
X1618684Y760762D01*
X1618356Y761556D01*
X1617832Y762238D01*
X1617403Y762982D01*
X1616795Y763590D01*
X1616272Y764272D01*
X1570272Y810272D01*
X1567556Y812355D01*
X1564394Y813665D01*
X1561000Y814112D01*
X1561000Y814112D01*
X1162600D01*
Y995646D01*
X1895700Y995646D01*
Y880800D01*
D02*
G37*
%LPC*%
G36*
X1853000Y948000D02*
X1747000D01*
Y892000D01*
X1853000D01*
Y948000D01*
D02*
G37*
G36*
X1608514Y894500D02*
X1608500D01*
Y884500D01*
X1618500D01*
Y884514D01*
X1617716Y887439D01*
X1616202Y890061D01*
X1614061Y892202D01*
X1611439Y893716D01*
X1608514Y894500D01*
D02*
G37*
G36*
X1605500D02*
X1605486D01*
X1602561Y893716D01*
X1599939Y892202D01*
X1597798Y890061D01*
X1596284Y887439D01*
X1595500Y884514D01*
Y884500D01*
X1605500D01*
Y894500D01*
D02*
G37*
G36*
X1618500Y881500D02*
X1608500D01*
Y871500D01*
X1608514D01*
X1611439Y872284D01*
X1614061Y873798D01*
X1616202Y875939D01*
X1617716Y878561D01*
X1618500Y881486D01*
Y881500D01*
D02*
G37*
G36*
X1605500D02*
X1595500D01*
Y881486D01*
X1596284Y878561D01*
X1597798Y875939D01*
X1599939Y873798D01*
X1602561Y872284D01*
X1605486Y871500D01*
X1605500D01*
Y881500D01*
D02*
G37*
G36*
X1298000Y963000D02*
X1212000D01*
Y877000D01*
X1279457D01*
X1296828Y859628D01*
X1296828Y859628D01*
X1299544Y857544D01*
X1302706Y856235D01*
X1304148Y856045D01*
X1304689Y855900D01*
X1305248D01*
X1306100Y855788D01*
X1306400D01*
X1307252Y855900D01*
X1308112D01*
X1308942Y856122D01*
X1309794Y856235D01*
X1310588Y856563D01*
X1311418Y856786D01*
X1312162Y857216D01*
X1312956Y857544D01*
X1313638Y858068D01*
X1314382Y858497D01*
X1314990Y859105D01*
X1315672Y859628D01*
X1316195Y860310D01*
X1316803Y860918D01*
X1317232Y861662D01*
X1317755Y862344D01*
X1318084Y863138D01*
X1318514Y863882D01*
X1318737Y864712D01*
X1319065Y865506D01*
X1319178Y866358D01*
X1319400Y867188D01*
Y868048D01*
X1319512Y868900D01*
X1319400Y869752D01*
Y870611D01*
X1319178Y871442D01*
X1319065Y872294D01*
X1318737Y873088D01*
X1318514Y873918D01*
X1318084Y874662D01*
X1317755Y875456D01*
X1317232Y876138D01*
X1316803Y876882D01*
X1316195Y877490D01*
X1315672Y878172D01*
X1314990Y878695D01*
X1314382Y879303D01*
X1314048Y879496D01*
X1298000Y895543D01*
Y963000D01*
D02*
G37*
G36*
X1488000D02*
X1402000D01*
Y877000D01*
X1469457D01*
X1488068Y858389D01*
X1488397Y857818D01*
X1489005Y857210D01*
X1489528Y856528D01*
X1490210Y856005D01*
X1490818Y855397D01*
X1491562Y854968D01*
X1492244Y854445D01*
X1493038Y854116D01*
X1493782Y853686D01*
X1494612Y853464D01*
X1495406Y853135D01*
X1496258Y853022D01*
X1497088Y852800D01*
X1497948D01*
X1498800Y852688D01*
X1499652Y852800D01*
X1500511D01*
X1501342Y853022D01*
X1502194Y853135D01*
X1502988Y853464D01*
X1503818Y853686D01*
X1504562Y854116D01*
X1505356Y854445D01*
X1506038Y854968D01*
X1506782Y855397D01*
X1507390Y856005D01*
X1508072Y856528D01*
X1508595Y857210D01*
X1509203Y857818D01*
X1509632Y858562D01*
X1510155Y859244D01*
X1510484Y860038D01*
X1510914Y860782D01*
X1511136Y861612D01*
X1511465Y862406D01*
X1511577Y863258D01*
X1511800Y864089D01*
Y864948D01*
X1511912Y865800D01*
Y866200D01*
X1511800Y867052D01*
Y867512D01*
X1511681Y867955D01*
X1511465Y869594D01*
X1510155Y872756D01*
X1508072Y875472D01*
X1508072Y875472D01*
X1488000Y895543D01*
Y963000D01*
D02*
G37*
G36*
X1851500Y876500D02*
X1801500D01*
Y851500D01*
X1851500D01*
Y876500D01*
D02*
G37*
G36*
X1798500D02*
X1748500D01*
Y851500D01*
X1798500D01*
Y876500D01*
D02*
G37*
G36*
X1851500Y848500D02*
X1801500D01*
Y823500D01*
X1851500D01*
Y848500D01*
D02*
G37*
G36*
X1798500D02*
X1748500D01*
Y823500D01*
X1798500D01*
Y848500D01*
D02*
G37*
G36*
X1853000Y808000D02*
X1747000D01*
Y752000D01*
X1853000D01*
Y808000D01*
D02*
G37*
G36*
X1310314Y701500D02*
X1310300D01*
Y691500D01*
X1320300D01*
Y691514D01*
X1319516Y694439D01*
X1318002Y697061D01*
X1315861Y699202D01*
X1313239Y700716D01*
X1310314Y701500D01*
D02*
G37*
G36*
X1307300D02*
X1307286D01*
X1304361Y700716D01*
X1301739Y699202D01*
X1299598Y697061D01*
X1298084Y694439D01*
X1297300Y691514D01*
Y691500D01*
X1307300D01*
Y701500D01*
D02*
G37*
G36*
X1320300Y688500D02*
X1310300D01*
Y678500D01*
X1310314D01*
X1313239Y679284D01*
X1315861Y680798D01*
X1318002Y682939D01*
X1319516Y685561D01*
X1320300Y688486D01*
Y688500D01*
D02*
G37*
G36*
X1307300D02*
X1297300D01*
Y688486D01*
X1298084Y685561D01*
X1299598Y682939D01*
X1301739Y680798D01*
X1304361Y679284D01*
X1307286Y678500D01*
X1307300D01*
Y688500D01*
D02*
G37*
G36*
X1916679Y687747D02*
X1913322D01*
X1910079Y686879D01*
X1907171Y685200D01*
X1904798Y682826D01*
X1903119Y679919D01*
X1902250Y676676D01*
Y673319D01*
X1903119Y670076D01*
X1904798Y667169D01*
X1907171Y664795D01*
X1910079Y663116D01*
X1913322Y662247D01*
X1916679D01*
X1919921Y663116D01*
X1922829Y664795D01*
X1925203Y667169D01*
X1926881Y670076D01*
X1927750Y673319D01*
Y676676D01*
X1926881Y679919D01*
X1925203Y682826D01*
X1922829Y685200D01*
X1919921Y686879D01*
X1916679Y687747D01*
D02*
G37*
G36*
X1813200Y644400D02*
X1788200D01*
Y619400D01*
X1813200D01*
Y644400D01*
D02*
G37*
G36*
X1785200D02*
X1760200D01*
Y619400D01*
X1785200D01*
Y644400D01*
D02*
G37*
G36*
X1659300Y895812D02*
X1658448Y895700D01*
X1657589D01*
X1656758Y895478D01*
X1655906Y895365D01*
X1655112Y895036D01*
X1654282Y894814D01*
X1653538Y894384D01*
X1652744Y894055D01*
X1652062Y893532D01*
X1651318Y893103D01*
X1650710Y892495D01*
X1650028Y891972D01*
X1649505Y891290D01*
X1648897Y890682D01*
X1648468Y889938D01*
X1647944Y889256D01*
X1647616Y888462D01*
X1647186Y887718D01*
X1646964Y886888D01*
X1646635Y886094D01*
X1646523Y885242D01*
X1646300Y884411D01*
Y883552D01*
X1646188Y882700D01*
Y804000D01*
X1646188Y804000D01*
X1646635Y800606D01*
X1647944Y797444D01*
X1650028Y794728D01*
X1743528Y701228D01*
X1743528Y701228D01*
X1746244Y699145D01*
X1749406Y697835D01*
X1752800Y697388D01*
X1786969D01*
X1868631Y615726D01*
X1868631Y615726D01*
X1871346Y613642D01*
X1874509Y612332D01*
X1877902Y611885D01*
X1877903Y611885D01*
X1915000D01*
X1917235Y612180D01*
X1919875D01*
X1921931Y612450D01*
X1923846Y613244D01*
X1925492Y614506D01*
X1926754Y616151D01*
X1927547Y618067D01*
X1927818Y620123D01*
Y622763D01*
X1928112Y624998D01*
X1927818Y627233D01*
Y629873D01*
X1927547Y631928D01*
X1926754Y633844D01*
X1925492Y635489D01*
X1923846Y636751D01*
X1921931Y637545D01*
X1919875Y637816D01*
X1917235D01*
X1915000Y638110D01*
X1883334D01*
X1801672Y719772D01*
X1798956Y721855D01*
X1795794Y723165D01*
X1792400Y723612D01*
X1792400Y723612D01*
X1758231D01*
X1672412Y809431D01*
Y882700D01*
X1672300Y883552D01*
Y884411D01*
X1672078Y885242D01*
X1671965Y886094D01*
X1671637Y886888D01*
X1671414Y887718D01*
X1670984Y888462D01*
X1670656Y889256D01*
X1670132Y889938D01*
X1669703Y890682D01*
X1669095Y891290D01*
X1668572Y891972D01*
X1667890Y892495D01*
X1667282Y893103D01*
X1666538Y893532D01*
X1665856Y894055D01*
X1665062Y894384D01*
X1664318Y894814D01*
X1663488Y895036D01*
X1662694Y895365D01*
X1661842Y895478D01*
X1661012Y895700D01*
X1660152D01*
X1659300Y895812D01*
D02*
G37*
G36*
X1813200Y616400D02*
X1788200D01*
Y591400D01*
X1813200D01*
Y616400D01*
D02*
G37*
G36*
X1785200D02*
X1760200D01*
Y591400D01*
X1785200D01*
Y616400D01*
D02*
G37*
G36*
X1659300Y767812D02*
X1658448Y767700D01*
X1657589D01*
X1656759Y767478D01*
X1655906Y767365D01*
X1655112Y767037D01*
X1654282Y766814D01*
X1653538Y766384D01*
X1652744Y766055D01*
X1652062Y765532D01*
X1651318Y765103D01*
X1650710Y764495D01*
X1650028Y763972D01*
X1649505Y763290D01*
X1648897Y762682D01*
X1648468Y761938D01*
X1647945Y761256D01*
X1647616Y760462D01*
X1647186Y759718D01*
X1646964Y758888D01*
X1646635Y758094D01*
X1646522Y757242D01*
X1646300Y756412D01*
Y755552D01*
X1646188Y754700D01*
X1646300Y753848D01*
Y752989D01*
X1646522Y752158D01*
X1646635Y751306D01*
X1646964Y750512D01*
X1647186Y749682D01*
X1647616Y748938D01*
X1647945Y748144D01*
X1648468Y747462D01*
X1648897Y746718D01*
X1649505Y746110D01*
X1650028Y745428D01*
X1683588Y711869D01*
Y602900D01*
X1684035Y599506D01*
X1685345Y596344D01*
X1687428Y593628D01*
X1690144Y591544D01*
X1693306Y590235D01*
X1696700Y589788D01*
X1700094Y590235D01*
X1703256Y591544D01*
X1705972Y593628D01*
X1708056Y596344D01*
X1709365Y599506D01*
X1709812Y602900D01*
Y717300D01*
X1709812Y717300D01*
X1709365Y720694D01*
X1708056Y723856D01*
X1705972Y726572D01*
X1668572Y763972D01*
X1667890Y764495D01*
X1667282Y765103D01*
X1666538Y765532D01*
X1665856Y766055D01*
X1665062Y766384D01*
X1664318Y766814D01*
X1663488Y767037D01*
X1662694Y767365D01*
X1661842Y767478D01*
X1661012Y767700D01*
X1660152D01*
X1659300Y767812D01*
D02*
G37*
G36*
X1015800Y596769D02*
X1003750D01*
X1003226Y596700D01*
X992550D01*
Y580700D01*
X1003226D01*
X1003750Y580631D01*
X1015800D01*
X1017888Y580906D01*
X1019835Y581712D01*
X1021506Y582994D01*
X1022788Y584665D01*
X1023594Y586612D01*
X1023869Y588700D01*
X1023594Y590788D01*
X1022788Y592734D01*
X1021506Y594406D01*
X1019835Y595688D01*
X1017888Y596494D01*
X1015800Y596769D01*
D02*
G37*
G36*
X849564Y595969D02*
X833614D01*
X832330Y595800D01*
X822514D01*
Y579800D01*
X844514D01*
Y579831D01*
X849564D01*
X851653Y580106D01*
X853599Y580912D01*
X855270Y582194D01*
X856552Y583866D01*
X857358Y585812D01*
X857633Y587900D01*
X857358Y589988D01*
X856552Y591935D01*
X855270Y593606D01*
X853599Y594888D01*
X851653Y595694D01*
X849564Y595969D01*
D02*
G37*
G36*
X676900Y595769D02*
X665650D01*
X665126Y595700D01*
X653250D01*
Y579700D01*
X664266D01*
X665550Y579531D01*
X666310Y579631D01*
X676900D01*
X678988Y579906D01*
X680935Y580712D01*
X682606Y581994D01*
X683888Y583666D01*
X684694Y585612D01*
X684969Y587700D01*
X684694Y589788D01*
X683888Y591735D01*
X682606Y593406D01*
X680935Y594688D01*
X678988Y595494D01*
X676900Y595769D01*
D02*
G37*
G36*
X505250Y595700D02*
X483250D01*
Y579700D01*
X493066D01*
X494350Y579531D01*
X506500D01*
X508588Y579806D01*
X510535Y580612D01*
X512206Y581894D01*
X513488Y583565D01*
X514294Y585512D01*
X514569Y587600D01*
X514294Y589688D01*
X513488Y591634D01*
X512206Y593306D01*
X510535Y594588D01*
X508588Y595394D01*
X506500Y595669D01*
X505250D01*
Y595700D01*
D02*
G37*
G36*
X335250D02*
X313250D01*
Y579700D01*
X323066D01*
X324350Y579531D01*
X337200D01*
X339288Y579806D01*
X341235Y580612D01*
X342906Y581894D01*
X344188Y583565D01*
X344994Y585512D01*
X345269Y587600D01*
X344994Y589688D01*
X344188Y591634D01*
X342906Y593306D01*
X341235Y594588D01*
X339288Y595394D01*
X337200Y595669D01*
X335250D01*
Y595700D01*
D02*
G37*
G36*
X165250D02*
X143250D01*
Y579700D01*
X153066D01*
X154350Y579531D01*
X167400D01*
X169488Y579806D01*
X171434Y580612D01*
X173106Y581894D01*
X174388Y583565D01*
X175194Y585512D01*
X175469Y587600D01*
X175194Y589688D01*
X174388Y591634D01*
X173106Y593306D01*
X171434Y594588D01*
X169488Y595394D01*
X167400Y595669D01*
X165250D01*
Y595700D01*
D02*
G37*
G36*
X1013050Y569800D02*
X1005050D01*
Y564800D01*
X1013050D01*
Y569800D01*
D02*
G37*
G36*
X1002050D02*
X994050D01*
Y564800D01*
X1002050D01*
Y569800D01*
D02*
G37*
G36*
X843014Y568900D02*
X835014D01*
Y563900D01*
X843014D01*
Y568900D01*
D02*
G37*
G36*
X832014D02*
X824014D01*
Y563900D01*
X832014D01*
Y568900D01*
D02*
G37*
G36*
X333750Y568800D02*
X325750D01*
Y563800D01*
X333750D01*
Y568800D01*
D02*
G37*
G36*
X322750D02*
X314750D01*
Y563800D01*
X322750D01*
Y568800D01*
D02*
G37*
G36*
X163750D02*
X155750D01*
Y563800D01*
X163750D01*
Y568800D01*
D02*
G37*
G36*
X152750D02*
X144750D01*
Y563800D01*
X152750D01*
Y568800D01*
D02*
G37*
G36*
X673750D02*
X665750D01*
Y563800D01*
X673750D01*
Y568800D01*
D02*
G37*
G36*
X662750D02*
X654750D01*
Y563800D01*
X662750D01*
Y568800D01*
D02*
G37*
G36*
X503750D02*
X495750D01*
Y563800D01*
X503750D01*
Y568800D01*
D02*
G37*
G36*
X492750D02*
X484750D01*
Y563800D01*
X492750D01*
Y568800D01*
D02*
G37*
G36*
X1013050Y561800D02*
X1005050D01*
Y556800D01*
X1013050D01*
Y561800D01*
D02*
G37*
G36*
X1002050D02*
X994050D01*
Y556800D01*
X1002050D01*
Y561800D01*
D02*
G37*
G36*
X843014Y560900D02*
X835014D01*
Y555900D01*
X843014D01*
Y560900D01*
D02*
G37*
G36*
X832014D02*
X824014D01*
Y555900D01*
X832014D01*
Y560900D01*
D02*
G37*
G36*
X673750Y560800D02*
X665750D01*
Y555800D01*
X673750D01*
Y560800D01*
D02*
G37*
G36*
X662750D02*
X654750D01*
Y555800D01*
X662750D01*
Y560800D01*
D02*
G37*
G36*
X503750Y560800D02*
X495750D01*
Y555800D01*
X503750D01*
Y560800D01*
D02*
G37*
G36*
X492750D02*
X484750D01*
Y555800D01*
X492750D01*
Y560800D01*
D02*
G37*
G36*
X333750Y560800D02*
X325750D01*
Y555800D01*
X333750D01*
Y560800D01*
D02*
G37*
G36*
X322750D02*
X314750D01*
Y555800D01*
X322750D01*
Y560800D01*
D02*
G37*
G36*
X163750Y560800D02*
X155750D01*
Y555800D01*
X163750D01*
Y560800D01*
D02*
G37*
G36*
X152750D02*
X144750D01*
Y555800D01*
X152750D01*
Y560800D01*
D02*
G37*
G36*
X1110500Y571369D02*
X1095050D01*
X1094526Y571300D01*
X1084050D01*
Y555300D01*
X1094526D01*
X1095050Y555231D01*
X1109840D01*
X1110600Y555131D01*
X1112688Y555406D01*
X1114634Y556212D01*
X1116306Y557494D01*
X1117588Y559165D01*
X1118394Y561112D01*
X1118669Y563200D01*
X1118394Y565288D01*
X1117588Y567234D01*
X1116306Y568906D01*
X1116206Y569006D01*
X1114535Y570288D01*
X1112588Y571094D01*
X1110500Y571369D01*
D02*
G37*
G36*
X939464Y570469D02*
X925014D01*
X924490Y570400D01*
X914014D01*
Y554400D01*
X924490D01*
X925014Y554331D01*
X938805D01*
X939564Y554231D01*
X941653Y554506D01*
X943599Y555312D01*
X945270Y556594D01*
X946552Y558265D01*
X947358Y560212D01*
X947633Y562300D01*
X947358Y564388D01*
X946552Y566334D01*
X945270Y568006D01*
X945170Y568106D01*
X943499Y569388D01*
X941553Y570194D01*
X939464Y570469D01*
D02*
G37*
G36*
X771200D02*
X770441Y570369D01*
X756150D01*
X755626Y570300D01*
X744750D01*
Y554300D01*
X755626D01*
X756150Y554231D01*
X771100D01*
X773188Y554506D01*
X775135Y555312D01*
X776806Y556594D01*
X776906Y556694D01*
X778188Y558366D01*
X778994Y560312D01*
X779269Y562400D01*
X778994Y564488D01*
X778188Y566435D01*
X776906Y568106D01*
X775235Y569388D01*
X773288Y570194D01*
X771200Y570469D01*
D02*
G37*
G36*
X601000Y570369D02*
X585750D01*
X585226Y570300D01*
X574750D01*
Y554300D01*
X585226D01*
X585750Y554231D01*
X601000D01*
X603088Y554506D01*
X605034Y555312D01*
X606706Y556594D01*
X607988Y558265D01*
X608794Y560212D01*
X609069Y562300D01*
X608794Y564388D01*
X607988Y566334D01*
X606706Y568006D01*
X605034Y569288D01*
X603088Y570094D01*
X601000Y570369D01*
D02*
G37*
G36*
X431400D02*
X415750D01*
X415226Y570300D01*
X404750D01*
Y554300D01*
X415226D01*
X415750Y554231D01*
X431400D01*
X433488Y554506D01*
X435434Y555312D01*
X437106Y556594D01*
X438388Y558265D01*
X439194Y560212D01*
X439469Y562300D01*
X439194Y564388D01*
X438388Y566334D01*
X437106Y568006D01*
X435434Y569288D01*
X433488Y570094D01*
X431400Y570369D01*
D02*
G37*
G36*
X261400Y570669D02*
X259312Y570394D01*
X259251Y570369D01*
X245750D01*
X245226Y570300D01*
X234750D01*
Y554300D01*
X245226D01*
X245750Y554231D01*
X261100D01*
X263188Y554506D01*
X265135Y555312D01*
X266806Y556594D01*
X267106Y556894D01*
X268388Y558565D01*
X269194Y560512D01*
X269469Y562600D01*
X269194Y564688D01*
X268388Y566634D01*
X267106Y568306D01*
X265434Y569588D01*
X263488Y570394D01*
X261400Y570669D01*
D02*
G37*
G36*
X1214314Y541500D02*
X1214300D01*
Y531500D01*
X1224300D01*
Y531514D01*
X1223516Y534439D01*
X1222002Y537061D01*
X1219861Y539202D01*
X1217239Y540716D01*
X1214314Y541500D01*
D02*
G37*
G36*
X1211300D02*
X1211286D01*
X1208361Y540716D01*
X1205739Y539202D01*
X1203598Y537061D01*
X1202084Y534439D01*
X1201300Y531514D01*
Y531500D01*
X1211300D01*
Y541500D01*
D02*
G37*
G36*
X1224300Y528500D02*
X1214300D01*
Y518500D01*
X1214314D01*
X1217239Y519284D01*
X1219861Y520798D01*
X1222002Y522939D01*
X1223516Y525561D01*
X1224300Y528486D01*
Y528500D01*
D02*
G37*
G36*
X1211300D02*
X1201300D01*
Y528486D01*
X1202084Y525561D01*
X1203598Y522939D01*
X1205739Y520798D01*
X1208361Y519284D01*
X1211286Y518500D01*
X1211300D01*
Y528500D01*
D02*
G37*
G36*
X1310511Y543000D02*
X1307088D01*
X1303782Y542114D01*
X1300818Y540403D01*
X1298397Y537982D01*
X1296686Y535018D01*
X1295800Y531712D01*
Y528288D01*
X1296686Y524982D01*
X1298397Y522018D01*
X1300818Y519597D01*
X1303782Y517886D01*
X1307088Y517000D01*
X1310511D01*
X1313818Y517886D01*
X1316782Y519597D01*
X1319203Y522018D01*
X1320914Y524982D01*
X1321800Y528288D01*
Y531712D01*
X1320914Y535018D01*
X1319203Y537982D01*
X1316782Y540403D01*
X1313818Y542114D01*
X1310511Y543000D01*
D02*
G37*
G36*
X1916679Y537747D02*
X1913322D01*
X1910079Y536879D01*
X1907171Y535200D01*
X1904798Y532826D01*
X1903119Y529919D01*
X1903036Y529608D01*
X1561500D01*
X1559354Y529181D01*
X1557535Y527965D01*
X1505077Y475508D01*
X1088800D01*
X1086654Y475081D01*
X1084835Y473865D01*
X1018366Y407397D01*
X1016598Y406923D01*
X1015002Y406001D01*
X1013699Y404698D01*
X1012777Y403102D01*
X1012300Y401322D01*
Y399478D01*
X1012777Y397698D01*
X1013699Y396102D01*
X1015002Y394799D01*
X1016598Y393877D01*
X1018378Y393400D01*
X1020222D01*
X1022002Y393877D01*
X1023598Y394799D01*
X1024901Y396102D01*
X1025823Y397698D01*
X1026297Y399466D01*
X1091123Y464292D01*
X1507400D01*
X1509546Y464719D01*
X1511365Y465935D01*
X1563823Y518392D01*
X1904091D01*
X1904798Y517169D01*
X1907171Y514795D01*
X1910079Y513116D01*
X1913322Y512248D01*
X1916679D01*
X1919921Y513116D01*
X1922829Y514795D01*
X1925203Y517169D01*
X1926881Y520076D01*
X1927750Y523319D01*
Y526676D01*
X1926881Y529919D01*
X1925203Y532826D01*
X1922829Y535200D01*
X1919921Y536879D01*
X1916679Y537747D01*
D02*
G37*
G36*
X1050748Y509300D02*
X1047852D01*
X1045054Y508550D01*
X1042546Y507102D01*
X1040498Y505054D01*
X1039050Y502546D01*
X1038300Y499748D01*
Y496852D01*
X1039050Y494054D01*
X1040498Y491546D01*
X1042546Y489498D01*
X1045054Y488050D01*
X1047852Y487300D01*
X1050748D01*
X1053546Y488050D01*
X1056054Y489498D01*
X1058102Y491546D01*
X1059550Y494054D01*
X1060300Y496852D01*
Y499748D01*
X1059550Y502546D01*
X1058102Y505054D01*
X1056054Y507102D01*
X1053546Y508550D01*
X1050748Y509300D01*
D02*
G37*
G36*
X880713Y508400D02*
X877816D01*
X875018Y507650D01*
X872510Y506202D01*
X870462Y504154D01*
X869014Y501646D01*
X868264Y498848D01*
Y495952D01*
X869014Y493154D01*
X870462Y490646D01*
X872510Y488598D01*
X875018Y487150D01*
X877816Y486400D01*
X880713D01*
X883510Y487150D01*
X886019Y488598D01*
X888066Y490646D01*
X889515Y493154D01*
X890264Y495952D01*
Y498848D01*
X889515Y501646D01*
X888066Y504154D01*
X886019Y506202D01*
X883510Y507650D01*
X880713Y508400D01*
D02*
G37*
G36*
X711448Y508300D02*
X708552D01*
X705754Y507550D01*
X703246Y506102D01*
X701198Y504054D01*
X699750Y501546D01*
X699000Y498748D01*
Y495852D01*
X699750Y493054D01*
X701198Y490546D01*
X703246Y488498D01*
X705754Y487050D01*
X708552Y486300D01*
X711448D01*
X714246Y487050D01*
X716754Y488498D01*
X718802Y490546D01*
X720250Y493054D01*
X721000Y495852D01*
Y498748D01*
X720250Y501546D01*
X718802Y504054D01*
X716754Y506102D01*
X714246Y507550D01*
X711448Y508300D01*
D02*
G37*
G36*
X541448D02*
X538552D01*
X535754Y507550D01*
X533246Y506102D01*
X531198Y504054D01*
X529750Y501546D01*
X529000Y498748D01*
Y495852D01*
X529750Y493054D01*
X531198Y490546D01*
X533246Y488498D01*
X535754Y487050D01*
X538552Y486300D01*
X541448D01*
X544246Y487050D01*
X546754Y488498D01*
X548802Y490546D01*
X550250Y493054D01*
X551000Y495852D01*
Y498748D01*
X550250Y501546D01*
X548802Y504054D01*
X546754Y506102D01*
X544246Y507550D01*
X541448Y508300D01*
D02*
G37*
G36*
X371448D02*
X368552D01*
X365754Y507550D01*
X363246Y506102D01*
X361198Y504054D01*
X359750Y501546D01*
X359000Y498748D01*
Y495852D01*
X359750Y493054D01*
X361198Y490546D01*
X363246Y488498D01*
X365754Y487050D01*
X368552Y486300D01*
X371448D01*
X374246Y487050D01*
X376754Y488498D01*
X378802Y490546D01*
X380250Y493054D01*
X381000Y495852D01*
Y498748D01*
X380250Y501546D01*
X378802Y504054D01*
X376754Y506102D01*
X374246Y507550D01*
X371448Y508300D01*
D02*
G37*
G36*
X201448D02*
X198552D01*
X195754Y507550D01*
X193246Y506102D01*
X191198Y504054D01*
X189750Y501546D01*
X189000Y498748D01*
Y495852D01*
X189750Y493054D01*
X191198Y490546D01*
X193246Y488498D01*
X195754Y487050D01*
X198552Y486300D01*
X201448D01*
X204246Y487050D01*
X206754Y488498D01*
X208802Y490546D01*
X210250Y493054D01*
X211000Y495852D01*
Y498748D01*
X210250Y501546D01*
X208802Y504054D01*
X206754Y506102D01*
X204246Y507550D01*
X201448Y508300D01*
D02*
G37*
G36*
X1919875Y486372D02*
X1916500D01*
Y476498D01*
X1926375D01*
Y479873D01*
X1925880Y482360D01*
X1924471Y484469D01*
X1922363Y485878D01*
X1919875Y486372D01*
D02*
G37*
G36*
X1913500D02*
X1910125D01*
X1907638Y485878D01*
X1905529Y484469D01*
X1904120Y482360D01*
X1903625Y479873D01*
Y476498D01*
X1913500D01*
Y486372D01*
D02*
G37*
G36*
X1926375Y473498D02*
X1916500D01*
Y463623D01*
X1919875D01*
X1922363Y464118D01*
X1924471Y465527D01*
X1925880Y467635D01*
X1926375Y470123D01*
Y473498D01*
D02*
G37*
G36*
X1913500D02*
X1903625D01*
Y470123D01*
X1904120Y467635D01*
X1905529Y465527D01*
X1907638Y464118D01*
X1910125Y463623D01*
X1913500D01*
Y473498D01*
D02*
G37*
G36*
X1117043Y453205D02*
X1113357D01*
X1109796Y452251D01*
X1106604Y450408D01*
X1103997Y447801D01*
X1102154Y444609D01*
X1101200Y441048D01*
Y437362D01*
X1102154Y433801D01*
X1103997Y430609D01*
X1106604Y428002D01*
X1109466Y426350D01*
X1109612Y425317D01*
X1109525Y424917D01*
X1107525Y423763D01*
X1105198Y421435D01*
X1103552Y418585D01*
X1102700Y415406D01*
Y415260D01*
X1115200D01*
X1127700D01*
Y415406D01*
X1126848Y418585D01*
X1125202Y421435D01*
X1122875Y423763D01*
X1120875Y424917D01*
X1120788Y425317D01*
X1120934Y426350D01*
X1123796Y428002D01*
X1126403Y430609D01*
X1128246Y433801D01*
X1129200Y437362D01*
Y441048D01*
X1128246Y444609D01*
X1126403Y447801D01*
X1123796Y450408D01*
X1120604Y452251D01*
X1117043Y453205D01*
D02*
G37*
G36*
X619200Y415250D02*
X614200D01*
Y407250D01*
X619200D01*
Y415250D01*
D02*
G37*
G36*
X369200D02*
X364200D01*
Y407250D01*
X369200D01*
Y415250D01*
D02*
G37*
G36*
X119200D02*
X114200D01*
Y407250D01*
X119200D01*
Y415250D01*
D02*
G37*
G36*
X361200D02*
X356200D01*
Y407250D01*
X361200D01*
Y415250D01*
D02*
G37*
G36*
X111200D02*
X106200D01*
Y407250D01*
X111200D01*
Y415250D01*
D02*
G37*
G36*
X611200D02*
X606200D01*
Y407250D01*
X611200D01*
Y415250D01*
D02*
G37*
G36*
X619200Y404250D02*
X614200D01*
Y396250D01*
X619200D01*
Y404250D01*
D02*
G37*
G36*
X611200D02*
X606200D01*
Y396250D01*
X611200D01*
Y404250D01*
D02*
G37*
G36*
X369200D02*
X364200D01*
Y396250D01*
X369200D01*
Y404250D01*
D02*
G37*
G36*
X361200D02*
X356200D01*
Y396250D01*
X361200D01*
Y404250D01*
D02*
G37*
G36*
X119200D02*
X114200D01*
Y396250D01*
X119200D01*
Y404250D01*
D02*
G37*
G36*
X111200D02*
X106200D01*
Y396250D01*
X111200D01*
Y404250D01*
D02*
G37*
G36*
X1916679Y387747D02*
X1913322D01*
X1910079Y386879D01*
X1907171Y385200D01*
X1904798Y382826D01*
X1903515Y380605D01*
X1407291D01*
X1405702Y381523D01*
X1403922Y382000D01*
X1402078D01*
X1400298Y381523D01*
X1398702Y380601D01*
X1397399Y379298D01*
X1396477Y377702D01*
X1396000Y375922D01*
Y374078D01*
X1396477Y372298D01*
X1397399Y370702D01*
X1398702Y369399D01*
X1400298Y368477D01*
X1402078Y368000D01*
X1403922D01*
X1405702Y368477D01*
X1407283Y369390D01*
X1903515D01*
X1904798Y367169D01*
X1907171Y364795D01*
X1910079Y363116D01*
X1913322Y362248D01*
X1916679D01*
X1919921Y363116D01*
X1922829Y364795D01*
X1925203Y367169D01*
X1926881Y370076D01*
X1927750Y373319D01*
Y376676D01*
X1926881Y379919D01*
X1925203Y382826D01*
X1922829Y385200D01*
X1919921Y386879D01*
X1916679Y387747D01*
D02*
G37*
G36*
X1127700Y412260D02*
X1115200D01*
X1102700D01*
Y412114D01*
X1103552Y408935D01*
X1105198Y406085D01*
X1107525Y403758D01*
X1109525Y402603D01*
X1109612Y402203D01*
X1109466Y401170D01*
X1106604Y399518D01*
X1103997Y396911D01*
X1102154Y393719D01*
X1101200Y390158D01*
Y386472D01*
X1102154Y382911D01*
X1103997Y379719D01*
X1106604Y377112D01*
X1108136Y376227D01*
Y374958D01*
X1106604Y374073D01*
X1103997Y371466D01*
X1102272Y368478D01*
X1034287D01*
X1032702Y369393D01*
X1030922Y369870D01*
X1029078D01*
X1027298Y369393D01*
X1025702Y368471D01*
X1024399Y367168D01*
X1023477Y365572D01*
X1023000Y363792D01*
Y361949D01*
X1023477Y360168D01*
X1024392Y358583D01*
Y111623D01*
X976566Y63797D01*
X974798Y63323D01*
X973202Y62401D01*
X971899Y61098D01*
X970977Y59502D01*
X970500Y57722D01*
Y55878D01*
X970977Y54098D01*
X971899Y52502D01*
X973202Y51199D01*
X974798Y50277D01*
X976578Y49800D01*
X978422D01*
X980202Y50277D01*
X981798Y51199D01*
X983101Y52502D01*
X984023Y54098D01*
X984497Y55866D01*
X1033965Y105335D01*
X1035181Y107154D01*
X1035608Y109300D01*
Y357262D01*
X1102272D01*
X1103997Y354274D01*
X1106604Y351667D01*
X1108136Y350783D01*
Y349512D01*
X1106604Y348628D01*
X1103997Y346021D01*
X1102154Y342829D01*
X1101200Y339268D01*
Y335582D01*
X1102154Y332021D01*
X1103997Y328829D01*
X1106604Y326222D01*
X1108136Y325337D01*
Y324067D01*
X1106604Y323183D01*
X1103997Y320576D01*
X1102154Y317384D01*
X1101200Y313823D01*
Y310137D01*
X1102154Y306576D01*
X1103997Y303384D01*
X1106604Y300777D01*
X1108136Y299893D01*
Y298622D01*
X1106604Y297738D01*
X1103997Y295131D01*
X1102154Y291939D01*
X1101200Y288378D01*
Y284692D01*
X1102154Y281131D01*
X1103997Y277939D01*
X1106604Y275332D01*
X1108136Y274447D01*
Y273178D01*
X1106604Y272293D01*
X1103997Y269686D01*
X1102154Y266494D01*
X1101200Y262933D01*
Y259247D01*
X1102154Y255686D01*
X1103997Y252494D01*
X1106604Y249887D01*
X1108136Y249002D01*
Y247733D01*
X1106604Y246848D01*
X1103997Y244241D01*
X1102154Y241049D01*
X1101200Y237488D01*
Y233802D01*
X1102154Y230241D01*
X1103997Y227049D01*
X1106604Y224442D01*
X1108136Y223557D01*
Y222288D01*
X1106604Y221403D01*
X1103997Y218796D01*
X1102154Y215604D01*
X1101200Y212043D01*
Y208357D01*
X1102154Y204796D01*
X1103997Y201604D01*
X1106604Y198997D01*
X1108136Y198113D01*
Y196842D01*
X1106604Y195958D01*
X1103997Y193351D01*
X1102154Y190159D01*
X1101593Y188067D01*
X1094439D01*
X1092293Y187640D01*
X1090473Y186424D01*
X1061935Y157886D01*
X1060719Y156066D01*
X1060292Y153920D01*
Y92423D01*
X1013477Y45608D01*
X950523D01*
X930308Y65823D01*
Y124600D01*
X929881Y126746D01*
X928665Y128565D01*
X907290Y149940D01*
X908000Y152589D01*
Y156011D01*
X907114Y159318D01*
X905403Y162282D01*
X902982Y164703D01*
X900018Y166414D01*
X896712Y167300D01*
X893288D01*
X889982Y166414D01*
X887018Y164703D01*
X884597Y162282D01*
X882886Y159318D01*
X882000Y156011D01*
Y152589D01*
X882886Y149282D01*
X884597Y146318D01*
X887018Y143897D01*
X889982Y142186D01*
X893288Y141300D01*
X896712D01*
X899360Y142010D01*
X919092Y122277D01*
Y63500D01*
X919519Y61354D01*
X920735Y59535D01*
X944235Y36035D01*
X946054Y34819D01*
X948200Y34392D01*
X1015800D01*
X1017946Y34819D01*
X1019765Y36035D01*
X1069865Y86135D01*
X1071081Y87954D01*
X1071508Y90100D01*
Y151597D01*
X1096761Y176851D01*
X1103597D01*
X1103997Y176159D01*
X1106604Y173552D01*
X1108136Y172668D01*
Y171397D01*
X1106604Y170513D01*
X1103997Y167906D01*
X1102154Y164714D01*
X1101997Y164128D01*
X1096420D01*
X1094274Y163701D01*
X1092455Y162486D01*
X1081535Y151565D01*
X1080319Y149746D01*
X1079892Y147600D01*
Y84223D01*
X1025877Y30208D01*
X939423D01*
X907053Y62577D01*
X907114Y62682D01*
X908000Y65988D01*
Y69412D01*
X907114Y72718D01*
X905403Y75682D01*
X902982Y78103D01*
X900018Y79814D01*
X896712Y80700D01*
X893288D01*
X889982Y79814D01*
X887018Y78103D01*
X884597Y75682D01*
X882886Y72718D01*
X882000Y69412D01*
Y65988D01*
X882886Y62682D01*
X884597Y59718D01*
X887018Y57297D01*
X889982Y55586D01*
X893288Y54700D01*
X896712D01*
X898571Y55198D01*
X933135Y20635D01*
X934954Y19419D01*
X937100Y18992D01*
X1028200D01*
X1030346Y19419D01*
X1032165Y20635D01*
X1089465Y77935D01*
X1090681Y79754D01*
X1091108Y81900D01*
Y145277D01*
X1098743Y152913D01*
X1102728D01*
X1103997Y150714D01*
X1106604Y148107D01*
X1108136Y147222D01*
Y145953D01*
X1106604Y145068D01*
X1103997Y142461D01*
X1102154Y139269D01*
X1101200Y135708D01*
Y132022D01*
X1102154Y128461D01*
X1103997Y125269D01*
X1106604Y122662D01*
X1108136Y121777D01*
Y120507D01*
X1106604Y119623D01*
X1103997Y117016D01*
X1102154Y113824D01*
X1101200Y110263D01*
Y106577D01*
X1102154Y103016D01*
X1103997Y99824D01*
X1106604Y97217D01*
X1108136Y96333D01*
Y95063D01*
X1106604Y94178D01*
X1103997Y91571D01*
X1102154Y88379D01*
X1101200Y84818D01*
Y81132D01*
X1102154Y77571D01*
X1102332Y77263D01*
X1042445Y17376D01*
X839455D01*
X816008Y40823D01*
Y237800D01*
X815581Y239946D01*
X814365Y241765D01*
X795308Y260823D01*
Y366800D01*
X794881Y368946D01*
X793665Y370765D01*
X781514Y382917D01*
X781223Y384002D01*
X780301Y385598D01*
X778998Y386901D01*
X777402Y387823D01*
X775622Y388300D01*
X773778D01*
X771998Y387823D01*
X770402Y386901D01*
X769099Y385598D01*
X768177Y384002D01*
X767700Y382222D01*
Y380378D01*
X768177Y378598D01*
X769099Y377002D01*
X770402Y375699D01*
X771998Y374777D01*
X773778Y374300D01*
X774269D01*
X784092Y364477D01*
Y258500D01*
X784519Y256354D01*
X785735Y254535D01*
X804792Y235477D01*
Y38500D01*
X805219Y36354D01*
X806435Y34535D01*
X833167Y7803D01*
X834986Y6587D01*
X837132Y6160D01*
X1044768D01*
X1046914Y6587D01*
X1048733Y7803D01*
X1110635Y69704D01*
X1113357Y68975D01*
X1117043D01*
X1120604Y69929D01*
X1123796Y71772D01*
X1126403Y74379D01*
X1128246Y77571D01*
X1129200Y81132D01*
Y84818D01*
X1128246Y88379D01*
X1126403Y91571D01*
X1123796Y94178D01*
X1122264Y95063D01*
Y96333D01*
X1123796Y97217D01*
X1126403Y99824D01*
X1128246Y103016D01*
X1129200Y106577D01*
Y110263D01*
X1128246Y113824D01*
X1126403Y117016D01*
X1123796Y119623D01*
X1122264Y120507D01*
Y121777D01*
X1123796Y122662D01*
X1126403Y125269D01*
X1128246Y128461D01*
X1129200Y132022D01*
Y135708D01*
X1128246Y139269D01*
X1126403Y142461D01*
X1123796Y145068D01*
X1122264Y145953D01*
Y147222D01*
X1123796Y148107D01*
X1126403Y150714D01*
X1128246Y153906D01*
X1129200Y157467D01*
Y161153D01*
X1128246Y164714D01*
X1126403Y167906D01*
X1123796Y170513D01*
X1122264Y171397D01*
Y172668D01*
X1123796Y173552D01*
X1126403Y176159D01*
X1128246Y179351D01*
X1129200Y182912D01*
Y186598D01*
X1128246Y190159D01*
X1126403Y193351D01*
X1123796Y195958D01*
X1122264Y196842D01*
Y198113D01*
X1123796Y198997D01*
X1126403Y201604D01*
X1128246Y204796D01*
X1129200Y208357D01*
Y212043D01*
X1128246Y215604D01*
X1126403Y218796D01*
X1123796Y221403D01*
X1122264Y222288D01*
Y223557D01*
X1123796Y224442D01*
X1126403Y227049D01*
X1128246Y230241D01*
X1129200Y233802D01*
Y237488D01*
X1128246Y241049D01*
X1126403Y244241D01*
X1123796Y246848D01*
X1122264Y247733D01*
Y249002D01*
X1123796Y249887D01*
X1126403Y252494D01*
X1128246Y255686D01*
X1128328Y255992D01*
X1159473D01*
X1264831Y150635D01*
X1266650Y149419D01*
X1268796Y148992D01*
X1530677D01*
X1580735Y98935D01*
X1582554Y97719D01*
X1584700Y97292D01*
X1604313D01*
X1604798Y96453D01*
X1606753Y94498D01*
X1609147Y93116D01*
X1611818Y92400D01*
X1614582D01*
X1617253Y93116D01*
X1619647Y94498D01*
X1621602Y96453D01*
X1622984Y98847D01*
X1623700Y101518D01*
Y104282D01*
X1622984Y106953D01*
X1621602Y109347D01*
X1619647Y111302D01*
X1617253Y112684D01*
X1614582Y113400D01*
X1611818D01*
X1609147Y112684D01*
X1606753Y111302D01*
X1604798Y109347D01*
X1604313Y108508D01*
X1587023D01*
X1536965Y158565D01*
X1535146Y159781D01*
X1533000Y160208D01*
X1271119D01*
X1165762Y265565D01*
X1163942Y266781D01*
X1161796Y267208D01*
X1127834D01*
X1126403Y269686D01*
X1123796Y272293D01*
X1122264Y273178D01*
Y274447D01*
X1123796Y275332D01*
X1126403Y277939D01*
X1128128Y280927D01*
X1160742D01*
X1270835Y170835D01*
X1272654Y169619D01*
X1274800Y169192D01*
X1536077D01*
X1580935Y124335D01*
X1582754Y123119D01*
X1584900Y122692D01*
X1604313D01*
X1604798Y121853D01*
X1606753Y119898D01*
X1609147Y118516D01*
X1611818Y117800D01*
X1614582D01*
X1617253Y118516D01*
X1619647Y119898D01*
X1621602Y121853D01*
X1622984Y124247D01*
X1623700Y126918D01*
Y129682D01*
X1622984Y132353D01*
X1621602Y134747D01*
X1619647Y136702D01*
X1617253Y138084D01*
X1614582Y138800D01*
X1611818D01*
X1609147Y138084D01*
X1606753Y136702D01*
X1604798Y134747D01*
X1604313Y133908D01*
X1587223D01*
X1542365Y178765D01*
X1540546Y179981D01*
X1538400Y180408D01*
X1277123D01*
X1167030Y290500D01*
X1165211Y291716D01*
X1163065Y292143D01*
X1128128D01*
X1126403Y295131D01*
X1123796Y297738D01*
X1122264Y298622D01*
Y299893D01*
X1123796Y300777D01*
X1126403Y303384D01*
X1128246Y306576D01*
X1129200Y310137D01*
Y313823D01*
X1128246Y317384D01*
X1126403Y320576D01*
X1123796Y323183D01*
X1122264Y324067D01*
Y325337D01*
X1123796Y326222D01*
X1126403Y328829D01*
X1128246Y332021D01*
X1129200Y335582D01*
Y339268D01*
X1128246Y342829D01*
X1126403Y346021D01*
X1123796Y348628D01*
X1122264Y349512D01*
Y350783D01*
X1123796Y351667D01*
X1126403Y354274D01*
X1128128Y357262D01*
X1179707D01*
X1331068Y205902D01*
X1331283Y205098D01*
X1332204Y203502D01*
X1333508Y202199D01*
X1335104Y201277D01*
X1336884Y200800D01*
X1338727D01*
X1340508Y201277D01*
X1342093Y202192D01*
X1508808D01*
X1509002Y201999D01*
X1510598Y201077D01*
X1512378Y200600D01*
X1514222D01*
X1516002Y201077D01*
X1517598Y201999D01*
X1518901Y203302D01*
X1519823Y204898D01*
X1520300Y206678D01*
Y208522D01*
X1519823Y210302D01*
X1518901Y211898D01*
X1517598Y213201D01*
X1516002Y214123D01*
X1514222Y214600D01*
X1512378D01*
X1510598Y214123D01*
X1509359Y213408D01*
X1342093D01*
X1340508Y214323D01*
X1338727Y214800D01*
X1338031D01*
X1185995Y366835D01*
X1184176Y368051D01*
X1182030Y368478D01*
X1128128D01*
X1126403Y371466D01*
X1123796Y374073D01*
X1122264Y374958D01*
Y376227D01*
X1123796Y377112D01*
X1126403Y379719D01*
X1128246Y382911D01*
X1129200Y386472D01*
Y390158D01*
X1128246Y393719D01*
X1126403Y396911D01*
X1123796Y399518D01*
X1120934Y401170D01*
X1120788Y402203D01*
X1120875Y402603D01*
X1122875Y403758D01*
X1125202Y406085D01*
X1126848Y408935D01*
X1127700Y412114D01*
Y412260D01*
D02*
G37*
G36*
X964373Y453205D02*
X960687D01*
X957126Y452251D01*
X953934Y450408D01*
X951327Y447801D01*
X949484Y444609D01*
X948530Y441048D01*
Y437362D01*
X949484Y433801D01*
X951327Y430609D01*
X953934Y428002D01*
X955466Y427118D01*
Y425848D01*
X953934Y424963D01*
X951327Y422356D01*
X949484Y419164D01*
X948530Y415603D01*
Y411917D01*
X949484Y408356D01*
X951327Y405164D01*
X953934Y402557D01*
X955466Y401673D01*
Y400402D01*
X953934Y399518D01*
X951327Y396911D01*
X949484Y393719D01*
X948530Y390158D01*
Y386472D01*
X949484Y382911D01*
X951327Y379719D01*
X953934Y377112D01*
X956796Y375460D01*
X956942Y374427D01*
X956855Y374027D01*
X954855Y372873D01*
X952527Y370545D01*
X950882Y367695D01*
X950030Y364516D01*
Y364370D01*
X962530D01*
X975030D01*
Y364516D01*
X974178Y367695D01*
X972533Y370545D01*
X970205Y372873D01*
X968205Y374027D01*
X968118Y374427D01*
X968264Y375460D01*
X971126Y377112D01*
X973733Y379719D01*
X975576Y382911D01*
X976530Y386472D01*
Y390158D01*
X975576Y393719D01*
X973733Y396911D01*
X971126Y399518D01*
X969594Y400402D01*
Y401673D01*
X971126Y402557D01*
X973733Y405164D01*
X975576Y408356D01*
X976530Y411917D01*
Y415603D01*
X975576Y419164D01*
X973733Y422356D01*
X971126Y424963D01*
X969594Y425848D01*
Y427118D01*
X971126Y428002D01*
X973733Y430609D01*
X975576Y433801D01*
X976530Y437362D01*
Y441048D01*
X975576Y444609D01*
X973733Y447801D01*
X971126Y450408D01*
X967934Y452251D01*
X964373Y453205D01*
D02*
G37*
G36*
X830282Y348100D02*
X827518D01*
X824847Y347384D01*
X822453Y346002D01*
X820498Y344047D01*
X819116Y341653D01*
X818400Y338982D01*
Y336218D01*
X819116Y333547D01*
X820498Y331153D01*
X822453Y329198D01*
X824847Y327816D01*
X827518Y327100D01*
X830282D01*
X832953Y327816D01*
X835347Y329198D01*
X837302Y331153D01*
X838684Y333547D01*
X839400Y336218D01*
Y338982D01*
X838684Y341653D01*
X837302Y344047D01*
X835347Y346002D01*
X832953Y347384D01*
X830282Y348100D01*
D02*
G37*
G36*
X1919875Y336372D02*
X1916500D01*
Y326498D01*
X1926375D01*
Y329873D01*
X1925880Y332360D01*
X1924471Y334469D01*
X1922363Y335878D01*
X1919875Y336372D01*
D02*
G37*
G36*
X1913500D02*
X1910125D01*
X1907638Y335878D01*
X1905529Y334469D01*
X1904120Y332360D01*
X1903625Y329873D01*
Y326498D01*
X1913500D01*
Y336372D01*
D02*
G37*
G36*
X870926Y347300D02*
X868161D01*
X865490Y346584D01*
X863096Y345202D01*
X861141Y343247D01*
X859759Y340853D01*
X859043Y338182D01*
Y335418D01*
X859759Y332747D01*
X861141Y330353D01*
X863096Y328398D01*
X865490Y327016D01*
X868161Y326300D01*
X870926D01*
X873596Y327016D01*
X875990Y328398D01*
X877945Y330353D01*
X879328Y332747D01*
X880043Y335418D01*
Y338182D01*
X879328Y340853D01*
X877945Y343247D01*
X875990Y345202D01*
X873596Y346584D01*
X870926Y347300D01*
D02*
G37*
G36*
X911182Y346900D02*
X908418D01*
X905747Y346184D01*
X903353Y344802D01*
X901398Y342847D01*
X900016Y340453D01*
X899300Y337782D01*
Y335018D01*
X900016Y332347D01*
X901398Y329953D01*
X903353Y327998D01*
X905747Y326616D01*
X908418Y325900D01*
X911182D01*
X913853Y326616D01*
X916247Y327998D01*
X918202Y329953D01*
X919584Y332347D01*
X920300Y335018D01*
Y337782D01*
X919584Y340453D01*
X918202Y342847D01*
X916247Y344802D01*
X913853Y346184D01*
X911182Y346900D01*
D02*
G37*
G36*
X830400Y321116D02*
Y313700D01*
X837815D01*
X837287Y315674D01*
X836102Y317726D01*
X834426Y319402D01*
X832374Y320587D01*
X830400Y321116D01*
D02*
G37*
G36*
X827400D02*
X825426Y320587D01*
X823374Y319402D01*
X821698Y317726D01*
X820513Y315674D01*
X819985Y313700D01*
X827400D01*
Y321116D01*
D02*
G37*
G36*
X1926375Y323498D02*
X1916500D01*
Y313623D01*
X1919875D01*
X1922363Y314118D01*
X1924471Y315527D01*
X1925880Y317635D01*
X1926375Y320123D01*
Y323498D01*
D02*
G37*
G36*
X1913500D02*
X1903625D01*
Y320123D01*
X1904120Y317635D01*
X1905529Y315527D01*
X1907638Y314118D01*
X1910125Y313623D01*
X1913500D01*
Y323498D01*
D02*
G37*
G36*
X871043Y320316D02*
Y312900D01*
X878459D01*
X877930Y314874D01*
X876745Y316926D01*
X875069Y318602D01*
X873017Y319787D01*
X871043Y320316D01*
D02*
G37*
G36*
X868043Y320316D02*
X866069Y319787D01*
X864017Y318602D01*
X862341Y316926D01*
X861156Y314874D01*
X860628Y312900D01*
X868043D01*
Y320316D01*
D02*
G37*
G36*
X911300Y319916D02*
Y312500D01*
X918716D01*
X918187Y314474D01*
X917002Y316526D01*
X915326Y318202D01*
X913274Y319387D01*
X911300Y319916D01*
D02*
G37*
G36*
X908300Y319916D02*
X906326Y319387D01*
X904274Y318202D01*
X902598Y316526D01*
X901413Y314474D01*
X900884Y312500D01*
X908300D01*
Y319916D01*
D02*
G37*
G36*
X837815Y310700D02*
X830400D01*
Y303284D01*
X832374Y303813D01*
X834426Y304998D01*
X836102Y306674D01*
X837287Y308726D01*
X837815Y310700D01*
D02*
G37*
G36*
X827400D02*
X819984D01*
X820513Y308726D01*
X821698Y306674D01*
X823374Y304998D01*
X825426Y303813D01*
X827400Y303284D01*
Y310700D01*
D02*
G37*
G36*
X878459Y309900D02*
X871043D01*
Y302484D01*
X873017Y303013D01*
X875069Y304198D01*
X876745Y305874D01*
X877930Y307926D01*
X878459Y309900D01*
D02*
G37*
G36*
X868043D02*
X860628D01*
X861156Y307926D01*
X862341Y305874D01*
X864017Y304198D01*
X866069Y303013D01*
X868043Y302484D01*
Y309900D01*
D02*
G37*
G36*
X908300Y309500D02*
X900884D01*
X901413Y307526D01*
X902598Y305474D01*
X904274Y303798D01*
X906326Y302613D01*
X908300Y302085D01*
Y309500D01*
D02*
G37*
G36*
X918716D02*
X911300D01*
Y302084D01*
X913274Y302613D01*
X915326Y303798D01*
X917002Y305474D01*
X918187Y307526D01*
X918716Y309500D01*
D02*
G37*
G36*
X768200Y449108D02*
X355958D01*
X353812Y448681D01*
X351993Y447465D01*
X333335Y428807D01*
X332119Y426988D01*
X331692Y424842D01*
Y416750D01*
X329300D01*
Y394750D01*
X345300D01*
Y416750D01*
X342908D01*
Y422519D01*
X358281Y437892D01*
X765877D01*
X844192Y359577D01*
Y290387D01*
X843277Y288802D01*
X842800Y287022D01*
Y285178D01*
X843277Y283398D01*
X844199Y281802D01*
X845502Y280499D01*
X847098Y279577D01*
X848878Y279100D01*
X850722D01*
X852502Y279577D01*
X854098Y280499D01*
X855401Y281802D01*
X856323Y283398D01*
X856800Y285178D01*
Y287022D01*
X856323Y288802D01*
X855408Y290387D01*
Y361900D01*
X854981Y364046D01*
X853765Y365865D01*
X772165Y447465D01*
X770346Y448681D01*
X768200Y449108D01*
D02*
G37*
G36*
X760500Y436108D02*
X595100D01*
X592954Y435681D01*
X591135Y434465D01*
X583335Y426665D01*
X582119Y424846D01*
X581692Y422700D01*
Y416750D01*
X579300D01*
Y394750D01*
X595300D01*
Y416750D01*
X592908D01*
Y420377D01*
X597423Y424892D01*
X758177D01*
X801892Y381177D01*
Y275100D01*
X802319Y272954D01*
X803535Y271135D01*
X818385Y256285D01*
X820204Y255069D01*
X822350Y254642D01*
X869513D01*
X871098Y253727D01*
X872878Y253250D01*
X874722D01*
X876502Y253727D01*
X878098Y254649D01*
X879401Y255952D01*
X880323Y257548D01*
X880800Y259328D01*
Y261172D01*
X880323Y262952D01*
X879401Y264548D01*
X878098Y265851D01*
X876502Y266773D01*
X874722Y267250D01*
X872878D01*
X871098Y266773D01*
X869513Y265858D01*
X824673D01*
X813108Y277423D01*
Y383500D01*
X812681Y385646D01*
X811465Y387465D01*
X764465Y434465D01*
X762646Y435681D01*
X760500Y436108D01*
D02*
G37*
G36*
X1916679Y262747D02*
X1913322D01*
X1910079Y261879D01*
X1907171Y260200D01*
X1904798Y257826D01*
X1903119Y254919D01*
X1902250Y251676D01*
Y248319D01*
X1903119Y245076D01*
X1904798Y242169D01*
X1907171Y239795D01*
X1910079Y238116D01*
X1913322Y237247D01*
X1916679D01*
X1919921Y238116D01*
X1922829Y239795D01*
X1925203Y242169D01*
X1926881Y245076D01*
X1927750Y248319D01*
Y251676D01*
X1926881Y254919D01*
X1925203Y257826D01*
X1922829Y260200D01*
X1919921Y261879D01*
X1916679Y262747D01*
D02*
G37*
G36*
X1813200Y244400D02*
X1788200D01*
Y219400D01*
X1813200D01*
Y244400D01*
D02*
G37*
G36*
X1785200D02*
X1760200D01*
Y219400D01*
X1785200D01*
Y244400D01*
D02*
G37*
G36*
X1813200Y216400D02*
X1788200D01*
Y191400D01*
X1813200D01*
Y216400D01*
D02*
G37*
G36*
X1785200D02*
X1760200D01*
Y191400D01*
X1785200D01*
Y216400D01*
D02*
G37*
G36*
X1570700Y305112D02*
X1567306Y304665D01*
X1564144Y303356D01*
X1561428Y301272D01*
X1559344Y298556D01*
X1558035Y295394D01*
X1557588Y292000D01*
Y263900D01*
X1557588Y263900D01*
X1558035Y260506D01*
X1559344Y257344D01*
X1561428Y254628D01*
X1588700Y227357D01*
Y189900D01*
X1644700D01*
Y245900D01*
X1607243D01*
X1583812Y269331D01*
Y292000D01*
X1583365Y295394D01*
X1582056Y298556D01*
X1579972Y301272D01*
X1577256Y303356D01*
X1574094Y304665D01*
X1570700Y305112D01*
D02*
G37*
G36*
X1916679Y212747D02*
X1913322D01*
X1910079Y211879D01*
X1907171Y210200D01*
X1904798Y207826D01*
X1903119Y204919D01*
X1902250Y201676D01*
Y198319D01*
X1903119Y195076D01*
X1904798Y192169D01*
X1907171Y189795D01*
X1910079Y188116D01*
X1913322Y187248D01*
X1916679D01*
X1919921Y188116D01*
X1922829Y189795D01*
X1925203Y192169D01*
X1926881Y195076D01*
X1927750Y198319D01*
Y201676D01*
X1926881Y204919D01*
X1925203Y207826D01*
X1922829Y210200D01*
X1919921Y211879D01*
X1916679Y212747D01*
D02*
G37*
G36*
X846514Y190800D02*
X846500D01*
Y180800D01*
X856500D01*
Y180814D01*
X855716Y183739D01*
X854202Y186361D01*
X852061Y188502D01*
X849439Y190016D01*
X846514Y190800D01*
D02*
G37*
G36*
X843500D02*
X843486D01*
X840561Y190016D01*
X837939Y188502D01*
X835798Y186361D01*
X834284Y183739D01*
X833500Y180814D01*
Y180800D01*
X843500D01*
Y190800D01*
D02*
G37*
G36*
X856500Y177800D02*
X846500D01*
Y167800D01*
X846514D01*
X849439Y168584D01*
X852061Y170098D01*
X854202Y172239D01*
X855716Y174861D01*
X856500Y177786D01*
Y177800D01*
D02*
G37*
G36*
X843500D02*
X833500D01*
Y177786D01*
X834284Y174861D01*
X835798Y172239D01*
X837939Y170098D01*
X840561Y168584D01*
X843486Y167800D01*
X843500D01*
Y177800D01*
D02*
G37*
G36*
X1919875Y161373D02*
X1916500D01*
Y151498D01*
X1926375D01*
Y154873D01*
X1925880Y157360D01*
X1924471Y159469D01*
X1922363Y160878D01*
X1919875Y161373D01*
D02*
G37*
G36*
X1913500D02*
X1910125D01*
X1907638Y160878D01*
X1905529Y159469D01*
X1904120Y157360D01*
X1903625Y154873D01*
Y151498D01*
X1913500D01*
Y161373D01*
D02*
G37*
G36*
X1926375Y148498D02*
X1916500D01*
Y138623D01*
X1919875D01*
X1922363Y139117D01*
X1924471Y140527D01*
X1925880Y142635D01*
X1926375Y145123D01*
Y148498D01*
D02*
G37*
G36*
X1913500D02*
X1903625D01*
Y145123D01*
X1904120Y142635D01*
X1905529Y140527D01*
X1907638Y139117D01*
X1910125Y138623D01*
X1913500D01*
Y148498D01*
D02*
G37*
G36*
X846712Y142300D02*
X843288D01*
X839982Y141414D01*
X837018Y139703D01*
X834597Y137282D01*
X832886Y134318D01*
X832000Y131011D01*
Y127589D01*
X832886Y124282D01*
X834597Y121318D01*
X837018Y118897D01*
X839982Y117186D01*
X843288Y116300D01*
X846712D01*
X850018Y117186D01*
X852982Y118897D01*
X855403Y121318D01*
X857114Y124282D01*
X858000Y127589D01*
Y131011D01*
X857114Y134318D01*
X855403Y137282D01*
X852982Y139703D01*
X850018Y141414D01*
X846712Y142300D01*
D02*
G37*
G36*
X817087Y535457D02*
X815244D01*
X813464Y534980D01*
X811868Y534058D01*
X810565Y532755D01*
X809643Y531159D01*
X809166Y529378D01*
Y527535D01*
X809643Y525755D01*
X810558Y524170D01*
Y514950D01*
X810985Y512804D01*
X812201Y510985D01*
X851051Y472135D01*
X852870Y470919D01*
X855016Y470492D01*
X970100D01*
X972246Y470919D01*
X974065Y472135D01*
X979923Y477992D01*
X995927D01*
X1003892Y470027D01*
Y451297D01*
X1000135Y447540D01*
X998919Y445720D01*
X998492Y443574D01*
Y121023D01*
X991497Y114028D01*
X975458D01*
X973733Y117016D01*
X971126Y119623D01*
X969594Y120507D01*
Y121777D01*
X971126Y122662D01*
X973733Y125269D01*
X975458Y128257D01*
X984465D01*
X986611Y128684D01*
X988430Y129900D01*
X993804Y135274D01*
X995020Y137093D01*
X995447Y139239D01*
Y301444D01*
X995020Y303590D01*
X994608Y304207D01*
Y461013D01*
X995523Y462598D01*
X996000Y464378D01*
Y466222D01*
X995523Y468002D01*
X994601Y469598D01*
X993298Y470901D01*
X991702Y471823D01*
X989922Y472300D01*
X988078D01*
X986298Y471823D01*
X984702Y470901D01*
X983399Y469598D01*
X982477Y468002D01*
X982000Y466222D01*
Y464378D01*
X982477Y462598D01*
X983392Y461013D01*
Y302283D01*
X983819Y300137D01*
X984231Y299520D01*
Y141562D01*
X982142Y139473D01*
X975458D01*
X973733Y142461D01*
X971126Y145068D01*
X969594Y145953D01*
Y147222D01*
X971126Y148107D01*
X973733Y150714D01*
X975576Y153906D01*
X976530Y157467D01*
Y161153D01*
X975576Y164714D01*
X973733Y167906D01*
X971126Y170513D01*
X969594Y171397D01*
Y172668D01*
X971126Y173552D01*
X973733Y176159D01*
X975576Y179351D01*
X976530Y182912D01*
Y186598D01*
X975576Y190159D01*
X973733Y193351D01*
X971126Y195958D01*
X969594Y196842D01*
Y198113D01*
X971126Y198997D01*
X973733Y201604D01*
X975576Y204796D01*
X976530Y208357D01*
Y212043D01*
X975576Y215604D01*
X973733Y218796D01*
X971126Y221403D01*
X969594Y222288D01*
Y223557D01*
X971126Y224442D01*
X973733Y227049D01*
X975576Y230241D01*
X976530Y233802D01*
Y237488D01*
X975576Y241049D01*
X973733Y244241D01*
X971126Y246848D01*
X969594Y247733D01*
Y249002D01*
X971126Y249887D01*
X973733Y252494D01*
X975576Y255686D01*
X976530Y259247D01*
Y262933D01*
X975576Y266494D01*
X973733Y269686D01*
X971126Y272293D01*
X969594Y273178D01*
Y274447D01*
X971126Y275332D01*
X973733Y277939D01*
X975576Y281131D01*
X976530Y284692D01*
Y288378D01*
X975576Y291939D01*
X973733Y295131D01*
X971126Y297738D01*
X969594Y298622D01*
Y299893D01*
X971126Y300777D01*
X973733Y303384D01*
X975576Y306576D01*
X976530Y310137D01*
Y313823D01*
X975576Y317384D01*
X973733Y320576D01*
X971126Y323183D01*
X969594Y324067D01*
Y325337D01*
X971126Y326222D01*
X973733Y328829D01*
X975576Y332021D01*
X976530Y335582D01*
Y339268D01*
X975576Y342829D01*
X973733Y346021D01*
X971126Y348628D01*
X968264Y350280D01*
X968118Y351313D01*
X968205Y351713D01*
X970205Y352868D01*
X972533Y355195D01*
X974178Y358045D01*
X975030Y361224D01*
Y361370D01*
X962530D01*
X950030D01*
Y361224D01*
X950882Y358045D01*
X952527Y355195D01*
X954855Y352868D01*
X956855Y351713D01*
X956942Y351313D01*
X956796Y350280D01*
X953934Y348628D01*
X951327Y346021D01*
X949484Y342829D01*
X948530Y339268D01*
Y335582D01*
X949484Y332021D01*
X951327Y328829D01*
X953934Y326222D01*
X955466Y325337D01*
Y324067D01*
X953934Y323183D01*
X951327Y320576D01*
X949484Y317384D01*
X948530Y313823D01*
Y310137D01*
X949484Y306576D01*
X951327Y303384D01*
X953934Y300777D01*
X955466Y299893D01*
Y298622D01*
X953934Y297738D01*
X951327Y295131D01*
X949484Y291939D01*
X948530Y288378D01*
Y284692D01*
X949484Y281131D01*
X951327Y277939D01*
X953934Y275332D01*
X955466Y274447D01*
Y273178D01*
X953934Y272293D01*
X951327Y269686D01*
X949484Y266494D01*
X948530Y262933D01*
Y259247D01*
X949484Y255686D01*
X951327Y252494D01*
X953934Y249887D01*
X955466Y249002D01*
Y247733D01*
X953934Y246848D01*
X951327Y244241D01*
X949602Y241253D01*
X939184D01*
X895108Y285329D01*
Y351600D01*
X894681Y353746D01*
X893465Y355565D01*
X785977Y463053D01*
X784158Y464269D01*
X782012Y464696D01*
X116788D01*
X114642Y464269D01*
X112823Y463053D01*
X83335Y433565D01*
X82119Y431746D01*
X81692Y429600D01*
Y416750D01*
X79300D01*
Y394750D01*
X95300D01*
Y416750D01*
X92908D01*
Y427277D01*
X119111Y453480D01*
X779689D01*
X883892Y349277D01*
Y283007D01*
X884319Y280861D01*
X885535Y279041D01*
X932896Y231680D01*
X934716Y230464D01*
X936862Y230037D01*
X949602D01*
X951327Y227049D01*
X953934Y224442D01*
X955466Y223557D01*
Y222288D01*
X953934Y221403D01*
X951327Y218796D01*
X949717Y216008D01*
X868392D01*
X868198Y216201D01*
X866602Y217123D01*
X864822Y217600D01*
X862978D01*
X861198Y217123D01*
X859602Y216201D01*
X858299Y214898D01*
X857377Y213302D01*
X856900Y211522D01*
Y209678D01*
X857377Y207898D01*
X858299Y206302D01*
X859602Y204999D01*
X861198Y204077D01*
X862978Y203600D01*
X864822D01*
X866602Y204077D01*
X867841Y204792D01*
X949486D01*
X951327Y201604D01*
X953934Y198997D01*
X955466Y198113D01*
Y196842D01*
X953934Y195958D01*
X951327Y193351D01*
X949484Y190159D01*
X948530Y186598D01*
Y182912D01*
X949484Y179351D01*
X951327Y176159D01*
X953934Y173552D01*
X955466Y172668D01*
Y171397D01*
X953934Y170513D01*
X951327Y167906D01*
X949484Y164714D01*
X948530Y161153D01*
Y157467D01*
X949484Y153906D01*
X951327Y150714D01*
X953934Y148107D01*
X955466Y147222D01*
Y145953D01*
X953934Y145068D01*
X951327Y142461D01*
X949484Y139269D01*
X948530Y135708D01*
Y132022D01*
X949484Y128461D01*
X951327Y125269D01*
X953934Y122662D01*
X955466Y121777D01*
Y120507D01*
X953934Y119623D01*
X951327Y117016D01*
X949484Y113824D01*
X948530Y110263D01*
Y106577D01*
X949484Y103016D01*
X951327Y99824D01*
X953934Y97217D01*
X955466Y96333D01*
Y95063D01*
X953934Y94178D01*
X951327Y91571D01*
X949484Y88379D01*
X948530Y84818D01*
Y81132D01*
X949484Y77571D01*
X951327Y74379D01*
X953934Y71772D01*
X957126Y69929D01*
X960687Y68975D01*
X964373D01*
X967934Y69929D01*
X971126Y71772D01*
X973733Y74379D01*
X975576Y77571D01*
X976530Y81132D01*
Y84818D01*
X975576Y88379D01*
X973733Y91571D01*
X971126Y94178D01*
X969594Y95063D01*
Y96333D01*
X971126Y97217D01*
X973733Y99824D01*
X975458Y102812D01*
X993820D01*
X995966Y103239D01*
X997785Y104455D01*
X1008065Y114735D01*
X1009281Y116554D01*
X1009708Y118700D01*
Y441252D01*
X1013465Y445009D01*
X1014681Y446828D01*
X1015108Y448974D01*
Y472350D01*
X1014681Y474496D01*
X1013465Y476315D01*
X1002215Y487565D01*
X1000396Y488781D01*
X998250Y489208D01*
X977600D01*
X975454Y488781D01*
X973635Y487565D01*
X967777Y481708D01*
X857339D01*
X821774Y517273D01*
Y524170D01*
X822689Y525755D01*
X823166Y527535D01*
Y529378D01*
X822689Y531159D01*
X821767Y532755D01*
X820464Y534058D01*
X818868Y534980D01*
X817087Y535457D01*
D02*
G37*
G36*
X846514Y104200D02*
X846500D01*
Y94200D01*
X856500D01*
Y94214D01*
X855716Y97139D01*
X854202Y99761D01*
X852061Y101902D01*
X849439Y103416D01*
X846514Y104200D01*
D02*
G37*
G36*
X843500D02*
X843486D01*
X840561Y103416D01*
X837939Y101902D01*
X835798Y99761D01*
X834284Y97139D01*
X833500Y94214D01*
Y94200D01*
X843500D01*
Y104200D01*
D02*
G37*
G36*
X1352472Y127312D02*
X1351620Y127200D01*
X1350761D01*
X1349931Y126978D01*
X1349079Y126865D01*
X1348285Y126537D01*
X1347455Y126314D01*
X1346710Y125884D01*
X1345916Y125555D01*
X1345234Y125032D01*
X1344490Y124603D01*
X1343883Y123995D01*
X1343201Y123472D01*
X1342677Y122790D01*
X1342070Y122182D01*
X1341640Y121438D01*
X1341117Y120756D01*
X1340788Y119962D01*
X1340358Y119218D01*
X1340136Y118388D01*
X1339807Y117594D01*
X1339695Y116742D01*
X1339472Y115912D01*
Y115052D01*
X1339360Y114200D01*
Y93112D01*
X1298000D01*
Y123000D01*
X1212000D01*
Y37000D01*
X1298000D01*
Y66888D01*
X1402000D01*
Y37000D01*
X1488000D01*
Y123000D01*
X1402000D01*
Y93112D01*
X1365585D01*
Y114200D01*
X1365472Y115052D01*
Y115912D01*
X1365250Y116742D01*
X1365138Y117594D01*
X1364809Y118388D01*
X1364586Y119218D01*
X1364157Y119962D01*
X1363828Y120756D01*
X1363305Y121438D01*
X1362875Y122182D01*
X1362267Y122790D01*
X1361744Y123472D01*
X1361062Y123995D01*
X1360455Y124603D01*
X1359710Y125032D01*
X1359028Y125555D01*
X1358235Y125884D01*
X1357490Y126314D01*
X1356660Y126537D01*
X1355866Y126865D01*
X1355014Y126978D01*
X1354184Y127200D01*
X1353324D01*
X1352472Y127312D01*
D02*
G37*
G36*
X856500Y91200D02*
X846500D01*
Y81200D01*
X846514D01*
X849439Y81984D01*
X852061Y83498D01*
X854202Y85639D01*
X855716Y88261D01*
X856500Y91186D01*
Y91200D01*
D02*
G37*
G36*
X843500D02*
X833500D01*
Y91186D01*
X834284Y88261D01*
X835798Y85639D01*
X837939Y83498D01*
X840561Y81984D01*
X843486Y81200D01*
X843500D01*
Y91200D01*
D02*
G37*
G36*
X1614582Y88000D02*
X1611818D01*
X1609147Y87284D01*
X1606753Y85902D01*
X1604798Y83947D01*
X1603416Y81553D01*
X1602700Y78882D01*
Y76118D01*
X1603416Y73447D01*
X1604798Y71053D01*
X1606753Y69098D01*
X1609147Y67716D01*
X1611818Y67000D01*
X1614582D01*
X1617253Y67716D01*
X1619647Y69098D01*
X1621602Y71053D01*
X1622984Y73447D01*
X1623700Y76118D01*
Y78882D01*
X1622984Y81553D01*
X1621602Y83947D01*
X1619647Y85902D01*
X1617253Y87284D01*
X1614582Y88000D01*
D02*
G37*
G36*
X1614700Y61016D02*
Y53600D01*
X1622116D01*
X1621587Y55574D01*
X1620402Y57626D01*
X1618726Y59302D01*
X1616674Y60487D01*
X1614700Y61016D01*
D02*
G37*
G36*
X1611700Y61016D02*
X1609726Y60487D01*
X1607674Y59302D01*
X1605998Y57626D01*
X1604813Y55574D01*
X1604285Y53600D01*
X1611700D01*
Y61016D01*
D02*
G37*
G36*
Y50600D02*
X1604285D01*
X1604813Y48626D01*
X1605998Y46574D01*
X1607674Y44898D01*
X1609726Y43713D01*
X1611700Y43184D01*
Y50600D01*
D02*
G37*
G36*
X1622116D02*
X1614700D01*
Y43184D01*
X1616674Y43713D01*
X1618726Y44898D01*
X1620402Y46574D01*
X1621587Y48626D01*
X1622116Y50600D01*
D02*
G37*
G36*
X1354480Y59900D02*
X1351320D01*
X1348268Y59082D01*
X1345532Y57502D01*
X1343298Y55268D01*
X1341718Y52532D01*
X1340900Y49480D01*
Y46320D01*
X1341718Y43268D01*
X1343298Y40532D01*
X1345532Y38298D01*
X1348268Y36718D01*
X1351320Y35900D01*
X1354480D01*
X1357532Y36718D01*
X1360268Y38298D01*
X1362502Y40532D01*
X1364082Y43268D01*
X1364900Y46320D01*
Y49480D01*
X1364082Y52532D01*
X1362502Y55268D01*
X1360268Y57502D01*
X1357532Y59082D01*
X1354480Y59900D01*
D02*
G37*
G36*
X846712Y55700D02*
X843288D01*
X839982Y54814D01*
X837018Y53103D01*
X834597Y50682D01*
X832886Y47718D01*
X832000Y44412D01*
Y40988D01*
X832886Y37682D01*
X834597Y34718D01*
X837018Y32297D01*
X839982Y30586D01*
X843288Y29700D01*
X846712D01*
X850018Y30586D01*
X852982Y32297D01*
X855403Y34718D01*
X857114Y37682D01*
X858000Y40988D01*
Y44412D01*
X857114Y47718D01*
X855403Y50682D01*
X852982Y53103D01*
X850018Y54814D01*
X846712Y55700D01*
D02*
G37*
%LPD*%
D11*
X923964Y587800D02*
Y611100D01*
X1095200Y588700D02*
Y612000D01*
X756700Y587700D02*
Y610600D01*
X584700Y587700D02*
Y611000D01*
X415800Y587700D02*
Y610200D01*
X815264Y640100D02*
Y642200D01*
Y611100D02*
Y640100D01*
X985300Y641000D02*
Y643058D01*
Y612950D02*
Y641000D01*
X646000Y640000D02*
Y641858D01*
Y611300D02*
Y640000D01*
X476000D02*
Y641358D01*
Y611100D02*
Y640000D01*
X306000D02*
Y641258D01*
Y613400D02*
Y640000D01*
X415000Y611000D02*
X415800Y610200D01*
X943264Y642806D02*
X952243Y651784D01*
Y695364D01*
X939507Y708100D02*
X952243Y695364D01*
X939264Y708100D02*
X939507D01*
X943264Y640100D02*
Y642806D01*
X805064Y652400D02*
Y693900D01*
Y652400D02*
X815264Y642200D01*
X805064Y693900D02*
X819264Y708100D01*
X1122200Y651858D02*
Y697142D01*
X1109300Y709000D02*
X1110342D01*
X1122200Y697142D01*
X1113300Y642958D02*
X1122200Y651858D01*
X1113300Y641000D02*
Y642958D01*
X136000Y640000D02*
Y640658D01*
X125800Y650858D02*
Y690553D01*
X140000Y704753D01*
X125800Y650858D02*
X136000Y640658D01*
Y640000D02*
X165000Y611000D01*
X140000Y704753D02*
Y708000D01*
X260000Y707042D02*
X273300Y693742D01*
X264000Y642706D02*
X273300Y652006D01*
Y693742D01*
X260000Y707042D02*
Y708000D01*
X264000Y640000D02*
Y642706D01*
X296400Y650858D02*
Y694400D01*
Y650858D02*
X306000Y641258D01*
X296400Y694400D02*
X310000Y708000D01*
X434000Y642706D02*
X443900Y652606D01*
X430000Y706442D02*
X443900Y692542D01*
Y652606D02*
Y692542D01*
X430000Y706442D02*
Y708000D01*
X434000Y640000D02*
Y642706D01*
X466500Y650858D02*
X476000Y641358D01*
X466500Y691253D02*
X480000Y704753D01*
X466500Y650858D02*
Y691253D01*
X480000Y704753D02*
Y708000D01*
X600000Y705442D02*
X613300Y692142D01*
Y652006D02*
Y692142D01*
X604000Y642706D02*
X613300Y652006D01*
X600000Y705442D02*
Y708000D01*
X604000Y640000D02*
Y642706D01*
X637000Y650858D02*
X646000Y641858D01*
X637000Y695000D02*
X650000Y708000D01*
X637000Y650858D02*
Y695000D01*
X774000Y640000D02*
Y642158D01*
X782700Y650858D02*
Y695300D01*
X770000Y708000D02*
X782700Y695300D01*
X774000Y642158D02*
X782700Y650858D01*
X976500Y651858D02*
Y696200D01*
Y651858D02*
X985300Y643058D01*
X976500Y696200D02*
X989300Y709000D01*
X261100Y562300D02*
X261400Y562600D01*
X245750Y562300D02*
X261100D01*
X756150D02*
X771100D01*
X771200Y562400D01*
X1095050Y563300D02*
X1110500D01*
X1110600Y563200D01*
X415750Y562300D02*
X431400D01*
X585750D02*
X601000D01*
X939464Y562400D02*
X939564Y562300D01*
X925014Y562400D02*
X939464D01*
X880764Y611100D02*
X923964D01*
X815264D02*
X880764D01*
X879264Y609600D02*
X880764Y611100D01*
X879264Y522800D02*
Y609600D01*
X1048900Y612000D02*
X1095200D01*
X986250D02*
X1048900D01*
X1049300Y611600D01*
Y523700D02*
Y611600D01*
X709800Y611000D02*
X816950D01*
X645700D02*
X709800D01*
X710000Y610800D01*
Y522700D02*
Y610800D01*
X538600Y611000D02*
X584700D01*
X475900D02*
X538600D01*
X540000Y609600D01*
Y522700D02*
Y609600D01*
X368500Y611000D02*
X415000D01*
X303600D02*
X368500D01*
X370000Y609500D01*
Y522700D02*
Y609500D01*
X198100Y611000D02*
X245750D01*
X165000D02*
X198100D01*
X200000Y609100D01*
Y522700D02*
Y609100D01*
X833614Y587900D02*
X849564D01*
X1003750Y588700D02*
X1015800D01*
X665550Y587600D02*
X665650Y587700D01*
X676900D01*
X494350Y587600D02*
X506500D01*
X324350D02*
X337200D01*
X154350D02*
X167400D01*
X631900Y173900D02*
Y292050D01*
X586100Y173900D02*
X631900D01*
X612700Y311250D02*
X631900Y292050D01*
Y173900D02*
X656400D01*
X612700Y311250D02*
Y314250D01*
X677500Y195000D02*
X715000D01*
X656400Y173900D02*
X677500Y195000D01*
X374000Y174500D02*
X410200D01*
X430700Y195000D02*
X465000D01*
X410200Y174500D02*
X430700Y195000D01*
X123500Y175000D02*
X154623D01*
X174623Y195000D02*
X215000D01*
X154623Y175000D02*
X174623Y195000D01*
X336600Y174500D02*
X374000D01*
Y299950D01*
X362700Y311250D02*
X374000Y299950D01*
X362700Y311250D02*
Y314250D01*
X112700Y311250D02*
Y313400D01*
X122900Y175600D02*
Y303200D01*
X112700Y311250D02*
X114850D01*
X122900Y303200D01*
X85000Y175000D02*
X123500D01*
X87300Y314250D02*
Y328000D01*
X337300Y314250D02*
Y328000D01*
X587300Y314250D02*
Y328000D01*
X585000Y175000D02*
X586100Y173900D01*
X1133300Y611000D02*
X1212300Y690000D01*
X1094700Y611000D02*
X1133300D01*
X245750D02*
X303600D01*
X245750Y587700D02*
Y611000D01*
X584700D02*
X645700D01*
X755750Y587700D02*
X756700D01*
X1095050Y588700D02*
X1095200D01*
X925900Y611000D02*
X986000D01*
X923964Y587800D02*
X925014D01*
X415000Y611000D02*
X475900D01*
X985300Y612950D02*
X986250Y612000D01*
X645700Y611000D02*
X646000Y611300D01*
X475900Y611000D02*
X476000Y611100D01*
X303600Y611000D02*
X306000Y613400D01*
D12*
X755750Y562300D02*
X755950Y562100D01*
X664250Y587700D02*
X664950Y587000D01*
X1255000Y920000D02*
X1257400Y917600D01*
D16*
X154250Y587700D02*
D03*
X245750Y562300D02*
D03*
X154250D02*
D03*
X245750Y587700D02*
D03*
X324250D02*
D03*
X415750Y562300D02*
D03*
X324250D02*
D03*
X415750Y587700D02*
D03*
X585750D02*
D03*
X494250Y562300D02*
D03*
X585750D02*
D03*
X494250Y587700D02*
D03*
X664250D02*
D03*
X755750Y562300D02*
D03*
X664250D02*
D03*
X755750Y587700D02*
D03*
X1003550Y588700D02*
D03*
X1095050Y563300D02*
D03*
X1003550D02*
D03*
X1095050Y588700D02*
D03*
X833514Y587800D02*
D03*
X925014Y562400D02*
D03*
X833514D02*
D03*
X925014Y587800D02*
D03*
D17*
X587300Y405750D02*
D03*
X612700D02*
D03*
X587300Y314250D02*
D03*
X612700D02*
D03*
X87300D02*
D03*
X112700Y405750D02*
D03*
Y314250D02*
D03*
X87300Y405750D02*
D03*
X362700Y314250D02*
D03*
X337300D02*
D03*
X362700Y405750D02*
D03*
X337300D02*
D03*
D33*
X225002Y883602D02*
Y925000D01*
X200000Y688000D02*
Y858600D01*
X225002Y883602D01*
X1659300Y754700D02*
X1696700Y717300D01*
Y602900D02*
Y717300D01*
X1877902Y624998D02*
X1915000D01*
X1752800Y710500D02*
X1792400D01*
X1877902Y624998D01*
X1659300Y804000D02*
X1752800Y710500D01*
X1659300Y804000D02*
Y882700D01*
X1570700Y263900D02*
X1616700Y217900D01*
X1570700Y263900D02*
Y292000D01*
X1561000Y801000D02*
X1607000Y755000D01*
X1139300Y801000D02*
X1561000D01*
X1109300Y831000D02*
X1139300Y801000D01*
X1601700Y632900D02*
X1615700Y618900D01*
Y617900D02*
Y618900D01*
X1479100Y754500D02*
X1600700Y632900D01*
X1090027Y754500D02*
X1479100D01*
X1600700Y632900D02*
X1601700D01*
X1352472Y80000D02*
Y114200D01*
X1049300Y713773D02*
X1090027Y754500D01*
X1049300Y689000D02*
Y713773D01*
X1109300Y831000D02*
Y891003D01*
X1074302Y926000D02*
X1109300Y891003D01*
X1352472Y80000D02*
X1445000D01*
X1255000D02*
X1352472D01*
X1257400Y917600D02*
X1306100Y868900D01*
X1306400D01*
X1445000Y920000D02*
X1498800Y866200D01*
Y865800D02*
Y866200D01*
X649997Y829621D02*
Y889618D01*
X685000Y924621D01*
X879330Y688302D02*
Y866902D01*
X904333Y891904D01*
Y925802D01*
X710769Y686602D02*
Y865202D01*
X735771Y890204D01*
Y924102D01*
X540466Y866002D02*
X565002Y890538D01*
Y925000D01*
X540466Y687402D02*
Y866002D01*
X395002Y891602D02*
Y925500D01*
X370000Y866600D02*
X395002Y891602D01*
X370000Y688000D02*
Y866600D01*
D34*
X1337806Y207800D02*
X1514673D01*
X1337100D02*
X1337806D01*
X989839Y139239D02*
Y301444D01*
X989000Y302283D02*
Y465300D01*
Y302283D02*
X989839Y301444D01*
X984465Y133865D02*
X989839Y139239D01*
X970100Y476100D02*
X977600Y483600D01*
X816166Y514950D02*
X855016Y476100D01*
X970100D01*
X977600Y483600D02*
X998250D01*
X1009500Y448974D02*
Y472350D01*
X998250Y483600D02*
X1009500Y472350D01*
X1004100Y443574D02*
X1009500Y448974D01*
X1004100Y118700D02*
Y443574D01*
X1403002Y374997D02*
X1914800D01*
X1403000Y375000D02*
X1403002Y374997D01*
X1350700Y552100D02*
X1680700D01*
X1212800Y690000D02*
X1350700Y552100D01*
X1182030Y362870D02*
X1337100Y207800D01*
X1268796Y154600D02*
X1533000D01*
X1161796Y261600D02*
X1268796Y154600D01*
X1533000D02*
X1584700Y102900D01*
X1163065Y286535D02*
X1274800Y174800D01*
X1538400D02*
X1584900Y128300D01*
X1274800Y174800D02*
X1538400D01*
X1584700Y102900D02*
X1613200D01*
X1584900Y128300D02*
X1613200D01*
X924700Y63500D02*
Y124600D01*
X895000Y154300D02*
X924700Y124600D01*
Y63500D02*
X948200Y40000D01*
X1015800D01*
X1065900Y90100D01*
X1030000Y109300D02*
Y362870D01*
X977500Y56800D02*
X1030000Y109300D01*
X1065900Y90100D02*
Y153920D01*
X1085500Y147600D02*
X1096420Y158520D01*
X1085500Y81900D02*
Y147600D01*
X1028200Y24600D02*
X1085500Y81900D01*
X1065900Y153920D02*
X1094439Y182459D01*
X1115200Y362870D02*
X1182030D01*
X1115710Y261600D02*
X1161796D01*
X1115200Y261090D02*
X1115710Y261600D01*
X1115200Y286535D02*
X1163065D01*
X1088800Y469900D02*
X1507400D01*
X1561500Y524000D02*
X1914800D01*
X1507400Y469900D02*
X1561500Y524000D01*
X816166Y514950D02*
Y528457D01*
X337300Y424842D02*
X355958Y443500D01*
X768200D01*
X849800Y361900D01*
X87300Y429600D02*
X116788Y459088D01*
X782012D02*
X889500Y351600D01*
X116788Y459088D02*
X782012D01*
X810400Y38500D02*
X837132Y11768D01*
X810400Y38500D02*
Y237800D01*
X789700Y258500D02*
X810400Y237800D01*
X789700Y258500D02*
Y366800D01*
X775200Y381300D02*
X789700Y366800D01*
X895000Y66700D02*
X937100Y24600D01*
X1028200D01*
X1030000Y362870D02*
X1115200D01*
X1044768Y11768D02*
X1115200Y82200D01*
X837132Y11768D02*
X1044768D01*
X1115200Y82200D02*
Y82975D01*
X895000Y66700D02*
Y67700D01*
X595100Y430500D02*
X760500D01*
X807500Y275100D02*
Y383500D01*
X760500Y430500D02*
X807500Y383500D01*
Y275100D02*
X822350Y260250D01*
X833514Y587800D02*
X833614Y587900D01*
X849564D02*
X849664Y588000D01*
X1003550Y588700D02*
X1003750Y588500D01*
X494250Y587700D02*
X494350Y587600D01*
X506500D02*
X506600Y587500D01*
X324250Y587700D02*
X324350Y587600D01*
X337200D02*
X337300Y587500D01*
X154250Y587700D02*
X154350Y587600D01*
X167400D02*
X167500Y587500D01*
X962330Y210400D02*
X962530Y210200D01*
X863900Y210600D02*
X864100Y210400D01*
X962330D01*
X993820Y108420D02*
X1004100Y118700D01*
X962530Y108420D02*
X993820D01*
X962530Y133865D02*
X984465D01*
X822350Y260250D02*
X873800D01*
X936862Y235645D02*
X962530D01*
X889500Y283007D02*
X936862Y235645D01*
X889500Y283007D02*
Y351600D01*
X1019300Y400400D02*
X1088800Y469900D01*
X1096420Y158520D02*
X1114491D01*
X1115871Y159900D01*
X1094439Y182459D02*
X1112904D01*
X1115200Y184755D01*
X587300Y422700D02*
X595100Y430500D01*
X849800Y286100D02*
Y361900D01*
X587300Y405750D02*
Y422700D01*
X87300Y405750D02*
Y429600D01*
X337300Y405750D02*
Y424842D01*
D35*
X1211820Y689500D02*
D03*
D36*
X1352900Y47900D02*
D03*
D03*
X1570700Y292000D02*
D03*
X1696700Y602900D02*
D03*
D37*
X1607000Y755000D02*
D03*
Y883000D02*
D03*
X1659300Y754700D02*
D03*
Y882700D02*
D03*
X895000Y67700D02*
D03*
X845000Y92700D02*
D03*
Y42700D02*
D03*
X895000Y154300D02*
D03*
X845000Y179300D02*
D03*
Y129300D02*
D03*
X985300Y641000D02*
D03*
X1113300D02*
D03*
X646000Y640000D02*
D03*
X774000D02*
D03*
X476000D02*
D03*
X604000D02*
D03*
X306000D02*
D03*
X434000D02*
D03*
X85000Y175000D02*
D03*
Y225000D02*
D03*
X335000D02*
D03*
Y175000D02*
D03*
X585000Y225000D02*
D03*
Y175000D02*
D03*
X1308800Y530000D02*
D03*
X1212800D02*
D03*
Y690000D02*
D03*
X1308800D02*
D03*
X264000Y640000D02*
D03*
X136000D02*
D03*
X943264Y640100D02*
D03*
X815264D02*
D03*
X1352472Y114200D02*
D03*
X1306400Y868900D02*
D03*
X1498800Y865800D02*
D03*
D38*
X1800000Y780000D02*
D03*
Y850000D02*
D03*
Y920000D02*
D03*
D39*
X1616700Y617900D02*
D03*
Y217900D02*
D03*
X1786700Y617900D02*
D03*
Y217900D02*
D03*
D40*
X1613200Y128300D02*
D03*
Y102900D02*
D03*
Y77500D02*
D03*
Y52100D02*
D03*
X869543Y336800D02*
D03*
Y311400D02*
D03*
X828900Y337600D02*
D03*
Y312200D02*
D03*
X909800Y336400D02*
D03*
Y311000D02*
D03*
D41*
X370000Y497300D02*
D03*
Y522700D02*
D03*
X200000Y497300D02*
D03*
Y522700D02*
D03*
X540000Y497300D02*
D03*
Y522700D02*
D03*
X710000Y497300D02*
D03*
Y522700D02*
D03*
X1049300Y498300D02*
D03*
Y523700D02*
D03*
X879264Y497400D02*
D03*
Y522800D02*
D03*
D42*
X1115200Y108420D02*
D03*
Y82975D02*
D03*
Y133865D02*
D03*
Y159310D02*
D03*
Y286535D02*
D03*
Y311980D02*
D03*
Y337425D02*
D03*
Y362870D02*
D03*
Y388315D02*
D03*
Y413760D02*
D03*
Y439205D02*
D03*
X962530D02*
D03*
Y413760D02*
D03*
Y388315D02*
D03*
Y362870D02*
D03*
Y337425D02*
D03*
Y311980D02*
D03*
Y286535D02*
D03*
Y261090D02*
D03*
Y235645D02*
D03*
Y210200D02*
D03*
Y184755D02*
D03*
Y159310D02*
D03*
Y133865D02*
D03*
Y108420D02*
D03*
Y82975D02*
D03*
X1115200Y184755D02*
D03*
Y210200D02*
D03*
Y235645D02*
D03*
Y261090D02*
D03*
X770000Y708000D02*
D03*
X650000Y830000D02*
D03*
Y708000D02*
D03*
X710000Y688000D02*
D03*
X770000Y830000D02*
D03*
X1109300Y709000D02*
D03*
X989300Y831000D02*
D03*
Y709000D02*
D03*
X1049300Y689000D02*
D03*
X1109300Y831000D02*
D03*
X939264Y708100D02*
D03*
X819264Y830100D02*
D03*
Y708100D02*
D03*
X879264Y688100D02*
D03*
X939264Y830100D02*
D03*
X430000Y708000D02*
D03*
X310000Y830000D02*
D03*
Y708000D02*
D03*
X370000Y688000D02*
D03*
X430000Y830000D02*
D03*
X600000D02*
D03*
X540000Y688000D02*
D03*
X480000Y708000D02*
D03*
Y830000D02*
D03*
X600000Y708000D02*
D03*
X260000Y830000D02*
D03*
X200000Y688000D02*
D03*
X140000Y708000D02*
D03*
Y830000D02*
D03*
X260000Y708000D02*
D03*
D43*
X1915000Y199998D02*
D03*
Y249997D02*
D03*
Y674997D02*
D03*
X474997Y75000D02*
D03*
X224998D02*
D03*
X854267Y925100D02*
D03*
X1024303Y926000D02*
D03*
X685003Y925000D02*
D03*
X515003D02*
D03*
X345003Y925500D02*
D03*
X175002Y925000D02*
D03*
X724997Y75000D02*
D03*
X1915000Y374997D02*
D03*
Y524997D02*
D03*
D44*
Y149998D02*
D03*
Y624998D02*
D03*
Y324998D02*
D03*
Y474998D02*
D03*
D45*
X215000Y195000D02*
D03*
Y345000D02*
D03*
Y295000D02*
D03*
Y245000D02*
D03*
X465000Y195000D02*
D03*
Y345000D02*
D03*
Y295000D02*
D03*
Y245000D02*
D03*
X715000Y195000D02*
D03*
Y345000D02*
D03*
Y295000D02*
D03*
Y245000D02*
D03*
D46*
X424998Y75000D02*
D03*
X174998D02*
D03*
X904267Y925100D02*
D03*
X1074302Y926000D02*
D03*
X735002Y925000D02*
D03*
X565002D02*
D03*
X395002Y925500D02*
D03*
X225002Y925000D02*
D03*
X674998Y75000D02*
D03*
D47*
X1445000Y920000D02*
D03*
X1255000D02*
D03*
X1445000Y80000D02*
D03*
X1255000D02*
D03*
D48*
X1337806Y207800D02*
D03*
X989000Y465300D02*
D03*
X1680700Y552100D02*
D03*
X977500Y56800D02*
D03*
X1513300Y207600D02*
D03*
X774700Y381300D02*
D03*
X1030000Y362870D02*
D03*
X1403000Y375000D02*
D03*
X261400Y562600D02*
D03*
X771200Y562400D02*
D03*
X1110600Y563200D02*
D03*
X816166Y528457D02*
D03*
X431400Y562300D02*
D03*
X601000D02*
D03*
X939564D02*
D03*
X849664Y588000D02*
D03*
X1015800Y588700D02*
D03*
X676900Y587700D02*
D03*
X506600Y587500D02*
D03*
X337300D02*
D03*
X167500D02*
D03*
X863900Y210600D02*
D03*
X1019300Y400400D02*
D03*
X849800Y286100D02*
D03*
X873800Y260250D02*
D03*
X87300Y328000D02*
D03*
X337300D02*
D03*
X587300D02*
D03*
M02*
