G04*
G04 #@! TF.GenerationSoftware,Altium Limited,Altium Designer,22.10.1 (41)*
G04*
G04 Layer_Color=32896*
%FSLAX44Y44*%
%MOMM*%
G71*
G04*
G04 #@! TF.SameCoordinates,C9FDC906-5936-4CD8-A4FC-E9511144A6E8*
G04*
G04*
G04 #@! TF.FilePolarity,Positive*
G04*
G01*
G75*
%ADD10C,0.2000*%
%ADD13C,0.2540*%
D10*
X1174942Y507000D02*
X1347942D01*
Y714000D01*
X1174942Y507000D02*
Y714000D01*
X1347942D01*
X1172690Y165920D02*
X1203170D01*
Y150680D02*
Y165920D01*
X1172690Y150680D02*
Y165920D01*
Y150680D02*
X1203170D01*
X1172790Y183720D02*
X1203270D01*
Y168480D02*
Y183720D01*
X1172790Y168480D02*
Y183720D01*
Y168480D02*
X1203270D01*
X1172390Y186180D02*
X1202870D01*
X1172390D02*
Y201420D01*
X1202870Y186180D02*
Y201420D01*
X1172390D02*
X1202870D01*
X1507660Y119681D02*
X1538140D01*
X1507660D02*
Y134921D01*
X1538140Y119681D02*
Y134921D01*
X1507660D02*
X1538140D01*
X1507660Y96383D02*
X1538140D01*
X1507660D02*
Y111623D01*
X1538140Y96383D02*
Y111623D01*
X1507660D02*
X1538140D01*
X1754402Y41200D02*
Y72200D01*
Y41200D02*
X1762402D01*
X1754402Y72200D02*
X1762402D01*
Y41200D02*
Y72200D01*
X1753720Y81760D02*
Y112240D01*
X1738480Y81760D02*
X1753720D01*
X1738480Y112240D02*
X1753720D01*
X1738480Y81760D02*
Y112240D01*
X1733123Y41260D02*
Y71740D01*
X1717883Y41260D02*
X1733123D01*
X1717883Y71740D02*
X1733123D01*
X1717883Y41260D02*
Y71740D01*
X1382300Y494200D02*
Y858200D01*
X1487300D01*
Y494200D02*
Y858200D01*
X1382300Y494200D02*
X1487300D01*
X565660Y554780D02*
X596140D01*
X565660D02*
Y570020D01*
X596140Y554780D02*
Y570020D01*
X565660D02*
X596140D01*
X808344Y562360D02*
Y592840D01*
X823584D01*
X808344Y562360D02*
X823584D01*
Y592840D01*
X905024Y554880D02*
X935504D01*
X905024D02*
Y570120D01*
X935504Y554880D02*
Y570120D01*
X905024D02*
X935504D01*
X872064Y570600D02*
X903064D01*
Y578600D01*
X872064Y570600D02*
Y578600D01*
X903064D01*
X190800Y571100D02*
X221800D01*
Y579100D01*
X190800Y571100D02*
Y579100D01*
X221800D01*
X361700Y571100D02*
X392700D01*
Y579100D01*
X361700Y571100D02*
Y579100D01*
X392700D01*
X395660Y554780D02*
X426140D01*
X395660D02*
Y570020D01*
X426140Y554780D02*
Y570020D01*
X395660D02*
X426140D01*
X468780Y562260D02*
Y592740D01*
X484020D01*
X468780Y562260D02*
X484020D01*
Y592740D01*
X638380Y562260D02*
Y592740D01*
X653620D01*
X638380Y562260D02*
X653620D01*
Y592740D01*
X532500Y570600D02*
X563500D01*
Y578600D01*
X532500Y570600D02*
Y578600D01*
X563500D01*
X702700Y571000D02*
X733700D01*
Y579000D01*
X702700Y571000D02*
Y579000D01*
X733700D01*
X735560Y554780D02*
X766040D01*
X735560D02*
Y570020D01*
X766040Y554780D02*
Y570020D01*
X735560D02*
X766040D01*
X978080Y563260D02*
Y593740D01*
X993320D01*
X978080Y563260D02*
X993320D01*
Y593740D01*
X1074960Y555780D02*
X1105440D01*
X1074960D02*
Y571020D01*
X1105440Y555780D02*
Y571020D01*
X1074960D02*
X1105440D01*
X1042000Y572000D02*
X1073000D01*
Y580000D01*
X1042000Y572000D02*
Y580000D01*
X1073000D01*
X225760Y554780D02*
X256240D01*
X225760D02*
Y570020D01*
X256240Y554780D02*
Y570020D01*
X225760D02*
X256240D01*
X1217520Y229760D02*
Y260240D01*
X1202280Y229760D02*
X1217520D01*
X1202280Y260240D02*
X1217520D01*
X1202280Y229760D02*
Y260240D01*
X1181520Y229760D02*
Y260240D01*
X1166280Y229760D02*
X1181520D01*
X1166280Y260240D02*
X1181520D01*
X1166280Y229760D02*
Y260240D01*
X1004760Y446735D02*
X1035240D01*
Y431495D02*
Y446735D01*
X1004760Y431495D02*
Y446735D01*
Y431495D02*
X1035240D01*
X1004460Y421820D02*
X1034940D01*
Y406580D02*
Y421820D01*
X1004460Y406580D02*
Y421820D01*
Y406580D02*
X1034940D01*
X1004760Y395920D02*
X1035240D01*
Y380680D02*
Y395920D01*
X1004760Y380680D02*
Y395920D01*
Y380680D02*
X1035240D01*
X1145820Y413660D02*
Y444140D01*
X1130580Y413660D02*
X1145820D01*
X1130580Y444140D02*
X1145820D01*
X1130580Y413660D02*
Y444140D01*
X1004760Y329807D02*
X1035240D01*
X1004760D02*
Y345047D01*
X1035240Y329807D02*
Y345047D01*
X1004760D02*
X1035240D01*
X1004760Y320320D02*
X1035240D01*
Y305080D02*
Y320320D01*
X1004760Y305080D02*
Y320320D01*
Y305080D02*
X1035240D01*
X907704Y489980D02*
X938184D01*
X907704D02*
Y505220D01*
X938184Y489980D02*
Y505220D01*
X907704D02*
X938184D01*
X1076560Y490880D02*
X1107040D01*
X1076560D02*
Y506120D01*
X1107040Y490880D02*
Y506120D01*
X1076560D02*
X1107040D01*
X739360Y489880D02*
X769840D01*
X739360D02*
Y505120D01*
X769840Y489880D02*
Y505120D01*
X739360D02*
X769840D01*
X571660Y489880D02*
X602140D01*
X571660D02*
Y505120D01*
X602140Y489880D02*
Y505120D01*
X571660D02*
X602140D01*
X401823Y489880D02*
X432303D01*
X401823D02*
Y505120D01*
X432303Y489880D02*
Y505120D01*
X401823D02*
X432303D01*
X231260Y489880D02*
X261740D01*
X231260D02*
Y505120D01*
X261740Y489880D02*
Y505120D01*
X231260D02*
X261740D01*
X1004760Y243520D02*
X1035240D01*
Y228280D02*
Y243520D01*
X1004760Y228280D02*
Y243520D01*
Y228280D02*
X1035240D01*
X1004760Y293420D02*
X1035240D01*
Y278180D02*
Y293420D01*
X1004760Y278180D02*
Y293420D01*
Y278180D02*
X1035240D01*
X1004760Y267820D02*
X1035240D01*
Y252580D02*
Y267820D01*
X1004760Y252580D02*
Y267820D01*
Y252580D02*
X1035240D01*
X35240Y315740D02*
Y361460D01*
X55560D01*
X35240Y315740D02*
X55560D01*
Y361460D01*
X35240Y219140D02*
Y264860D01*
X55560D01*
X35240Y219140D02*
X55560D01*
Y264860D01*
X303160Y267040D02*
Y312760D01*
X282840Y267040D02*
X303160D01*
X282840Y312760D02*
X303160D01*
X282840Y267040D02*
Y312760D01*
X541340Y217740D02*
Y263460D01*
X561660D01*
X541340Y217740D02*
X561660D01*
Y263460D01*
X897120Y311843D02*
Y342323D01*
X881880Y311843D02*
X897120D01*
X881880Y342323D02*
X897120D01*
X881880Y311843D02*
Y342323D01*
X920780Y310360D02*
Y340840D01*
X936020D01*
X920780Y310360D02*
X936020D01*
Y340840D01*
X856720Y312560D02*
Y343040D01*
X841480Y312560D02*
X856720D01*
X841480Y343040D02*
X856720D01*
X841480Y312560D02*
Y343040D01*
X1773722Y82360D02*
Y112840D01*
X1758482Y82360D02*
X1773722D01*
X1758482Y112840D02*
X1773722D01*
X1758482Y82360D02*
Y112840D01*
X303360Y315540D02*
Y361260D01*
X283040Y315540D02*
X303360D01*
X283040Y361260D02*
X303360D01*
X283040Y315540D02*
Y361260D01*
X35140Y267340D02*
Y313060D01*
X55460D01*
X35140Y267340D02*
X55460D01*
Y313060D01*
X541341Y266511D02*
Y312230D01*
X561661D01*
X541341Y266511D02*
X561661D01*
Y312230D01*
Y314890D02*
Y360610D01*
X541341Y314890D02*
X561661D01*
X541341Y360610D02*
X561661D01*
X541341Y314890D02*
Y360610D01*
X303160Y218540D02*
Y264260D01*
X282840Y218540D02*
X303160D01*
X282840Y264260D02*
X303160D01*
X282840Y218540D02*
Y264260D01*
X313620Y562260D02*
Y592740D01*
X298380Y562260D02*
X313620D01*
X298380Y592740D02*
X313620D01*
X298380Y562260D02*
Y592740D01*
X144020Y562260D02*
Y592740D01*
X128780Y562260D02*
X144020D01*
X128780Y592740D02*
X144020D01*
X128780Y562260D02*
Y592740D01*
D13*
X1185443Y581576D02*
X1190775D01*
Y582909D01*
X1189442Y584242D01*
X1185443D01*
X1189442D01*
X1190775Y585575D01*
X1189442Y586908D01*
X1185443D01*
Y589574D02*
Y592239D01*
Y590906D01*
X1190775D01*
Y589574D01*
X1185443Y596238D02*
X1190775D01*
Y600237D01*
X1189442Y601570D01*
X1185443D01*
Y604235D02*
Y606901D01*
Y605568D01*
X1190775D01*
Y604235D01*
X1189442Y610900D02*
Y616232D01*
X1192107Y618897D02*
X1193440Y620230D01*
Y622896D01*
X1192107Y624229D01*
X1190775D01*
X1189442Y622896D01*
Y621563D01*
Y622896D01*
X1188109Y624229D01*
X1186776D01*
X1185443Y622896D01*
Y620230D01*
X1186776Y618897D01*
X1193440Y632226D02*
X1192107Y629561D01*
X1189442Y626895D01*
X1186776D01*
X1185443Y628228D01*
Y630894D01*
X1186776Y632226D01*
X1188109D01*
X1189442Y630894D01*
Y626895D01*
X1192107Y634892D02*
X1193440Y636225D01*
Y638891D01*
X1192107Y640224D01*
X1186776D01*
X1185443Y638891D01*
Y636225D01*
X1186776Y634892D01*
X1192107D01*
X1337440Y601704D02*
X1329443D01*
Y605703D01*
X1330776Y607036D01*
X1336107D01*
X1337440Y605703D01*
Y601704D01*
X1329443Y609702D02*
X1334775D01*
X1337440Y612368D01*
X1334775Y615033D01*
X1329443D01*
X1333442D01*
Y609702D01*
X1329443Y617699D02*
Y620365D01*
Y619032D01*
X1337440D01*
X1336107Y617699D01*
X1337440Y629696D02*
X1336107Y627030D01*
X1333442Y624364D01*
X1330776D01*
X1329443Y625697D01*
Y628363D01*
X1330776Y629696D01*
X1332109D01*
X1333442Y628363D01*
Y624364D01*
X1273202Y481440D02*
X1266537D01*
X1269869D01*
Y494769D01*
X1273202D01*
X1256540Y481440D02*
Y494769D01*
X1246544D01*
X1243211Y491437D01*
Y481440D01*
X1284169Y729440D02*
X1277505D01*
X1274173Y732772D01*
Y739437D01*
X1277505Y742769D01*
X1284169D01*
X1287502Y739437D01*
Y732772D01*
X1284169Y729440D01*
X1267508Y742769D02*
Y732772D01*
X1264176Y729440D01*
X1254179D01*
Y742769D01*
X1244182Y746101D02*
Y742769D01*
X1247515D01*
X1240850D01*
X1244182D01*
Y732772D01*
X1240850Y729440D01*
X1443960Y486237D02*
Y476240D01*
X1438962D01*
X1437296Y477906D01*
Y479572D01*
X1438962Y481238D01*
X1443960D01*
X1438962D01*
X1437296Y482905D01*
Y484571D01*
X1438962Y486237D01*
X1443960D01*
X1433963Y476240D02*
Y486237D01*
X1430631Y482905D01*
X1427299Y486237D01*
Y476240D01*
X1390840Y616740D02*
X1400837D01*
Y621738D01*
X1399171Y623405D01*
X1395838D01*
X1394172Y621738D01*
Y616740D01*
X1395838Y626737D02*
Y633401D01*
X1471840Y620740D02*
X1481837D01*
Y625738D01*
X1480171Y627405D01*
X1476838D01*
X1475172Y625738D01*
Y620740D01*
X1476838Y630737D02*
Y637401D01*
X1480171Y634069D02*
X1473506D01*
X1398837Y793740D02*
X1388840D01*
Y798738D01*
X1390506Y800405D01*
X1392172D01*
X1393838Y798738D01*
Y793740D01*
Y798738D01*
X1395504Y800405D01*
X1397171D01*
X1398837Y798738D01*
Y793740D01*
X1393838Y803737D02*
Y810401D01*
X1479837Y792740D02*
X1469840D01*
Y797738D01*
X1471506Y799405D01*
X1473172D01*
X1474838Y797738D01*
Y792740D01*
Y797738D01*
X1476505Y799405D01*
X1478171D01*
X1479837Y797738D01*
Y792740D01*
X1474838Y802737D02*
Y809401D01*
X1478171Y806069D02*
X1471506D01*
X1480837Y689740D02*
X1470840D01*
Y694738D01*
X1472506Y696404D01*
X1474172D01*
X1475838Y694738D01*
Y689740D01*
Y694738D01*
X1477504Y696404D01*
X1479171D01*
X1480837Y694738D01*
Y689740D01*
X1470840Y699737D02*
X1480837D01*
X1477504Y703069D01*
X1480837Y706401D01*
X1470840D01*
X1479171Y716398D02*
X1480837Y714732D01*
Y711400D01*
X1479171Y709734D01*
X1477504D01*
X1475838Y711400D01*
Y714732D01*
X1474172Y716398D01*
X1472506D01*
X1470840Y714732D01*
Y711400D01*
X1472506Y709734D01*
X1475838Y719730D02*
Y726395D01*
X1470840Y736392D02*
Y729727D01*
X1477504Y736392D01*
X1479171D01*
X1480837Y734725D01*
Y731393D01*
X1479171Y729727D01*
Y746388D02*
X1480837Y744722D01*
Y741390D01*
X1479171Y739724D01*
X1477504D01*
X1475838Y741390D01*
Y744722D01*
X1474172Y746388D01*
X1472506D01*
X1470840Y744722D01*
Y741390D01*
X1472506Y739724D01*
X1166893Y154501D02*
Y162499D01*
X1162895D01*
X1161562Y161166D01*
Y158500D01*
X1162895Y157167D01*
X1166893D01*
X1164228D02*
X1161562Y154501D01*
X1154897D02*
Y162499D01*
X1158896Y158500D01*
X1153564D01*
X1150899Y162499D02*
X1145567D01*
Y161166D01*
X1150899Y155834D01*
Y154501D01*
X1227727Y153301D02*
X1225061D01*
X1226394D01*
Y161299D01*
X1227727Y159966D01*
X1221062D02*
X1219729Y161299D01*
X1217064D01*
X1215731Y159966D01*
Y154634D01*
X1217064Y153301D01*
X1219729D01*
X1221062Y154634D01*
Y159966D01*
X1213065Y161299D02*
Y153301D01*
Y155967D01*
X1207733Y161299D01*
X1211732Y157300D01*
X1207733Y153301D01*
X1165693Y189801D02*
Y197799D01*
X1161694D01*
X1160362Y196466D01*
Y193800D01*
X1161694Y192467D01*
X1165693D01*
X1163027D02*
X1160362Y189801D01*
X1153697D02*
Y197799D01*
X1157696Y193800D01*
X1152364D01*
X1144367Y197799D02*
X1147033Y196466D01*
X1149698Y193800D01*
Y191134D01*
X1148365Y189801D01*
X1145700D01*
X1144367Y191134D01*
Y192467D01*
X1145700Y193800D01*
X1149698D01*
X1226827Y189401D02*
X1224161D01*
X1225494D01*
Y197399D01*
X1226827Y196066D01*
X1220162D02*
X1218829Y197399D01*
X1216164D01*
X1214831Y196066D01*
Y190734D01*
X1216164Y189401D01*
X1218829D01*
X1220162Y190734D01*
Y196066D01*
X1212165Y197399D02*
Y189401D01*
Y192067D01*
X1206833Y197399D01*
X1210832Y193400D01*
X1206833Y189401D01*
X1165893Y172101D02*
Y180099D01*
X1161895D01*
X1160562Y178766D01*
Y176100D01*
X1161895Y174767D01*
X1165893D01*
X1163227D02*
X1160562Y172101D01*
X1153897D02*
Y180099D01*
X1157896Y176100D01*
X1152564D01*
X1144567Y180099D02*
X1149898D01*
Y176100D01*
X1147233Y177433D01*
X1145900D01*
X1144567Y176100D01*
Y173434D01*
X1145900Y172101D01*
X1148566D01*
X1149898Y173434D01*
X1227627Y172100D02*
X1224961D01*
X1226294D01*
Y180097D01*
X1227627Y178764D01*
X1220962D02*
X1219629Y180097D01*
X1216964D01*
X1215631Y178764D01*
Y173433D01*
X1216964Y172100D01*
X1219629D01*
X1220962Y173433D01*
Y178764D01*
X1212965Y180097D02*
Y172100D01*
Y174765D01*
X1207633Y180097D01*
X1211632Y176098D01*
X1207633Y172100D01*
X1563663Y125202D02*
Y133200D01*
X1559664D01*
X1558332Y131867D01*
Y129201D01*
X1559664Y127868D01*
X1563663D01*
X1560997D02*
X1558332Y125202D01*
X1551667D02*
Y133200D01*
X1555666Y129201D01*
X1550334D01*
X1543670Y125202D02*
Y133200D01*
X1547668Y129201D01*
X1542337D01*
X1501897Y124002D02*
X1499231D01*
X1500564D01*
Y132000D01*
X1501897Y130667D01*
X1495232D02*
X1493899Y132000D01*
X1491234D01*
X1489901Y130667D01*
Y125335D01*
X1491234Y124002D01*
X1493899D01*
X1495232Y125335D01*
Y130667D01*
X1487235Y132000D02*
Y124002D01*
Y126668D01*
X1481903Y132000D01*
X1485902Y128001D01*
X1481903Y124002D01*
X1564363Y99801D02*
Y107799D01*
X1560365D01*
X1559032Y106466D01*
Y103800D01*
X1560365Y102467D01*
X1564363D01*
X1561697D02*
X1559032Y99801D01*
X1556366Y106466D02*
X1555033Y107799D01*
X1552367D01*
X1551034Y106466D01*
Y105133D01*
X1552367Y103800D01*
X1553700D01*
X1552367D01*
X1551034Y102467D01*
Y101134D01*
X1552367Y99801D01*
X1555033D01*
X1556366Y101134D01*
X1548368Y107799D02*
X1543037D01*
Y106466D01*
X1548368Y101134D01*
Y99801D01*
X1503897D02*
X1501231D01*
X1502564D01*
Y107799D01*
X1503897Y106466D01*
X1497232D02*
X1495899Y107799D01*
X1493233D01*
X1491901Y106466D01*
Y101134D01*
X1493233Y99801D01*
X1495899D01*
X1497232Y101134D01*
Y106466D01*
X1489235Y107799D02*
Y99801D01*
Y102467D01*
X1483903Y107799D01*
X1487902Y103800D01*
X1483903Y99801D01*
X1062683Y410901D02*
Y418899D01*
X1058684D01*
X1057351Y417566D01*
Y414900D01*
X1058684Y413567D01*
X1062683D01*
X1060017D02*
X1057351Y410901D01*
X1050687D02*
Y418899D01*
X1054686Y414900D01*
X1049354D01*
X1046688Y417566D02*
X1045355Y418899D01*
X1042690D01*
X1041357Y417566D01*
Y416233D01*
X1042690Y414900D01*
X1044022D01*
X1042690D01*
X1041357Y413567D01*
Y412234D01*
X1042690Y410901D01*
X1045355D01*
X1046688Y412234D01*
X999997Y410200D02*
X997331D01*
X998664D01*
Y418197D01*
X999997Y416864D01*
X993332D02*
X991999Y418197D01*
X989333D01*
X988001Y416864D01*
Y411533D01*
X989333Y410200D01*
X991999D01*
X993332Y411533D01*
Y416864D01*
X985335Y418197D02*
Y410200D01*
Y412865D01*
X980003Y418197D01*
X984002Y414198D01*
X980003Y410200D01*
X1768665Y32399D02*
Y27067D01*
X1765999Y24401D01*
X1763333Y27067D01*
Y32399D01*
X1760667D02*
X1755336D01*
X1758002D01*
Y24401D01*
X1752670Y32399D02*
X1747338D01*
Y31066D01*
X1752670Y25734D01*
Y24401D01*
X1458159Y877499D02*
Y869501D01*
X1454161D01*
X1452828Y870834D01*
Y872167D01*
X1454161Y873500D01*
X1458159D01*
X1454161D01*
X1452828Y874833D01*
Y876166D01*
X1454161Y877499D01*
X1458159D01*
X1450162Y869501D02*
Y877499D01*
X1447496Y874833D01*
X1444830Y877499D01*
Y869501D01*
X1436833Y876166D02*
X1438166Y877499D01*
X1440832D01*
X1442164Y876166D01*
Y874833D01*
X1440832Y873500D01*
X1438166D01*
X1436833Y872167D01*
Y870834D01*
X1438166Y869501D01*
X1440832D01*
X1442164Y870834D01*
X1420838Y869501D02*
X1426170D01*
X1420838Y874833D01*
Y876166D01*
X1422171Y877499D01*
X1424837D01*
X1426170Y876166D01*
X1412841D02*
X1414173Y877499D01*
X1416839D01*
X1418172Y876166D01*
Y874833D01*
X1416839Y873500D01*
X1414173D01*
X1412841Y872167D01*
Y870834D01*
X1414173Y869501D01*
X1416839D01*
X1418172Y870834D01*
X1063263Y231501D02*
Y239499D01*
X1059265D01*
X1057932Y238166D01*
Y235500D01*
X1059265Y234167D01*
X1063263D01*
X1060597D02*
X1057932Y231501D01*
X1051267D02*
Y239499D01*
X1055266Y235500D01*
X1049934D01*
X1041937Y231501D02*
X1047268D01*
X1041937Y236833D01*
Y238166D01*
X1043270Y239499D01*
X1045936D01*
X1047268Y238166D01*
X999997Y232201D02*
X997331D01*
X998664D01*
Y240199D01*
X999997Y238866D01*
X993332D02*
X991999Y240199D01*
X989333D01*
X988001Y238866D01*
Y233534D01*
X989333Y232201D01*
X991999D01*
X993332Y233534D01*
Y238866D01*
X985335Y240199D02*
Y232201D01*
Y234867D01*
X980003Y240199D01*
X984002Y236200D01*
X980003Y232201D01*
X69699Y254463D02*
X61701D01*
Y250464D01*
X63034Y249132D01*
X65700D01*
X67033Y250464D01*
Y254463D01*
Y251797D02*
X69699Y249132D01*
Y242467D02*
X61701D01*
X65700Y246466D01*
Y241134D01*
X63034Y238468D02*
X61701Y237135D01*
Y234470D01*
X63034Y233137D01*
X68366D01*
X69699Y234470D01*
Y237135D01*
X68366Y238468D01*
X63034D01*
X29899Y251064D02*
X21901D01*
X25900Y255063D01*
Y249732D01*
X21901Y247066D02*
Y241734D01*
X23234D01*
X28566Y247066D01*
X29899D01*
X21901Y239068D02*
X29899D01*
X27233D01*
X21901Y233737D01*
X25900Y237736D01*
X29899Y233737D01*
X68699Y300863D02*
X60701D01*
Y296864D01*
X62034Y295532D01*
X64700D01*
X66033Y296864D01*
Y300863D01*
Y298197D02*
X68699Y295532D01*
X62034Y292866D02*
X60701Y291533D01*
Y288867D01*
X62034Y287534D01*
X63367D01*
X64700Y288867D01*
Y290200D01*
Y288867D01*
X66033Y287534D01*
X67366D01*
X68699Y288867D01*
Y291533D01*
X67366Y292866D01*
Y284868D02*
X68699Y283535D01*
Y280870D01*
X67366Y279537D01*
X62034D01*
X60701Y280870D01*
Y283535D01*
X62034Y284868D01*
X63367D01*
X64700Y283535D01*
Y279537D01*
X30699Y299564D02*
X22701D01*
X26700Y303563D01*
Y298232D01*
X22701Y295566D02*
Y290234D01*
X24034D01*
X29366Y295566D01*
X30699D01*
X22701Y287568D02*
X30699D01*
X28033D01*
X22701Y282237D01*
X26700Y286236D01*
X30699Y282237D01*
X68199Y348063D02*
X60201D01*
Y344064D01*
X61534Y342732D01*
X64200D01*
X65533Y344064D01*
Y348063D01*
Y345397D02*
X68199Y342732D01*
X61534Y340066D02*
X60201Y338733D01*
Y336067D01*
X61534Y334734D01*
X62867D01*
X64200Y336067D01*
Y337400D01*
Y336067D01*
X65533Y334734D01*
X66866D01*
X68199Y336067D01*
Y338733D01*
X66866Y340066D01*
X61534Y332068D02*
X60201Y330736D01*
Y328070D01*
X61534Y326737D01*
X62867D01*
X64200Y328070D01*
X65533Y326737D01*
X66866D01*
X68199Y328070D01*
Y330736D01*
X66866Y332068D01*
X65533D01*
X64200Y330736D01*
X62867Y332068D01*
X61534D01*
X64200Y330736D02*
Y328070D01*
X29899Y346665D02*
X21901D01*
X25900Y350663D01*
Y345332D01*
X21901Y342666D02*
Y337334D01*
X23234D01*
X28566Y342666D01*
X29899D01*
X21901Y334668D02*
X29899D01*
X27233D01*
X21901Y329337D01*
X25900Y333335D01*
X29899Y329337D01*
X931709Y509350D02*
Y517347D01*
X927710D01*
X926377Y516014D01*
Y513348D01*
X927710Y512015D01*
X931709D01*
X929043D02*
X926377Y509350D01*
X923711Y516014D02*
X922378Y517347D01*
X919713D01*
X918380Y516014D01*
Y514681D01*
X919713Y513348D01*
X921046D01*
X919713D01*
X918380Y512015D01*
Y510683D01*
X919713Y509350D01*
X922378D01*
X923711Y510683D01*
X910382Y517347D02*
X913048Y516014D01*
X915714Y513348D01*
Y510683D01*
X914381Y509350D01*
X911715D01*
X910382Y510683D01*
Y512015D01*
X911715Y513348D01*
X915714D01*
X933828Y485114D02*
X932495Y486447D01*
X929829D01*
X928496Y485114D01*
Y483781D01*
X929829Y482448D01*
X931162D01*
X929829D01*
X928496Y481115D01*
Y479783D01*
X929829Y478450D01*
X932495D01*
X933828Y479783D01*
X925830Y485114D02*
X924497Y486447D01*
X921831D01*
X920499Y485114D01*
Y479783D01*
X921831Y478450D01*
X924497D01*
X925830Y479783D01*
Y485114D01*
X917833D02*
X916500Y486447D01*
X913834D01*
X912501Y485114D01*
Y479783D01*
X913834Y478450D01*
X916500D01*
X917833Y479783D01*
Y485114D01*
X1738116Y8301D02*
Y16299D01*
X1734117D01*
X1732784Y14966D01*
Y12300D01*
X1734117Y10967D01*
X1738116D01*
X1735450D02*
X1732784Y8301D01*
X1730118Y14966D02*
X1728785Y16299D01*
X1726120D01*
X1724787Y14966D01*
Y13633D01*
X1726120Y12300D01*
X1727452D01*
X1726120D01*
X1724787Y10967D01*
Y9634D01*
X1726120Y8301D01*
X1728785D01*
X1730118Y9634D01*
X1716789Y16299D02*
X1722121D01*
Y12300D01*
X1719455Y13633D01*
X1718122D01*
X1716789Y12300D01*
Y9634D01*
X1718122Y8301D01*
X1720788D01*
X1722121Y9634D01*
X1731490Y24768D02*
X1728824D01*
X1730157D01*
Y32765D01*
X1731490Y31432D01*
X1724825Y32765D02*
Y24768D01*
Y27434D01*
X1719494Y32765D01*
X1723492Y28767D01*
X1719494Y24768D01*
X1732451Y107263D02*
X1724454D01*
Y103265D01*
X1725787Y101932D01*
X1728452D01*
X1729785Y103265D01*
Y107263D01*
Y104597D02*
X1732451Y101932D01*
X1725787Y99266D02*
X1724454Y97933D01*
Y95267D01*
X1725787Y93934D01*
X1727119D01*
X1728452Y95267D01*
Y96600D01*
Y95267D01*
X1729785Y93934D01*
X1731118D01*
X1732451Y95267D01*
Y97933D01*
X1731118Y99266D01*
X1732451Y87270D02*
X1724454D01*
X1728452Y91268D01*
Y85937D01*
X1750650Y119601D02*
X1747985D01*
X1749318D01*
Y127599D01*
X1750650Y126266D01*
X1743986Y127599D02*
Y119601D01*
Y122267D01*
X1738654Y127599D01*
X1742653Y123600D01*
X1738654Y119601D01*
X1788251Y109263D02*
X1780254D01*
Y105265D01*
X1781587Y103932D01*
X1784252D01*
X1785585Y105265D01*
Y109263D01*
Y106597D02*
X1788251Y103932D01*
X1781587Y101266D02*
X1780254Y99933D01*
Y97267D01*
X1781587Y95934D01*
X1782919D01*
X1784252Y97267D01*
Y98600D01*
Y97267D01*
X1785585Y95934D01*
X1786918D01*
X1788251Y97267D01*
Y99933D01*
X1786918Y101266D01*
X1781587Y93268D02*
X1780254Y91936D01*
Y89270D01*
X1781587Y87937D01*
X1782919D01*
X1784252Y89270D01*
Y90603D01*
Y89270D01*
X1785585Y87937D01*
X1786918D01*
X1788251Y89270D01*
Y91936D01*
X1786918Y93268D01*
X1763737Y140263D02*
X1762404Y138930D01*
Y136264D01*
X1763737Y134932D01*
X1765070D01*
X1766403Y136264D01*
Y137598D01*
Y136264D01*
X1767736Y134932D01*
X1769069D01*
X1770402Y136264D01*
Y138930D01*
X1769069Y140263D01*
X1763737Y132266D02*
X1762404Y130933D01*
Y128267D01*
X1763737Y126934D01*
X1769069D01*
X1770402Y128267D01*
Y130933D01*
X1769069Y132266D01*
X1763737D01*
Y124268D02*
X1762404Y122935D01*
Y120270D01*
X1763737Y118937D01*
X1769069D01*
X1770402Y120270D01*
Y122935D01*
X1769069Y124268D01*
X1763737D01*
X1169201Y266894D02*
X1177199D01*
Y270892D01*
X1175866Y272225D01*
X1173200D01*
X1171867Y270892D01*
Y266894D01*
Y269559D02*
X1169201Y272225D01*
X1175866Y274891D02*
X1177199Y276224D01*
Y278890D01*
X1175866Y280223D01*
X1174533D01*
X1173200Y278890D01*
Y277557D01*
Y278890D01*
X1171867Y280223D01*
X1170534D01*
X1169201Y278890D01*
Y276224D01*
X1170534Y274891D01*
X1169201Y288220D02*
Y282889D01*
X1174533Y288220D01*
X1175866D01*
X1177199Y286887D01*
Y284221D01*
X1175866Y282889D01*
X1158399Y219542D02*
X1159732Y220875D01*
Y223541D01*
X1158399Y224874D01*
X1157066D01*
X1155734Y223541D01*
Y222208D01*
Y223541D01*
X1154401Y224874D01*
X1153068D01*
X1151735Y223541D01*
Y220875D01*
X1153068Y219542D01*
X1159732Y227539D02*
X1151735D01*
X1154401D01*
X1159732Y232871D01*
X1155734Y228872D01*
X1151735Y232871D01*
X1155734Y243534D02*
Y248866D01*
X1158399Y246200D02*
X1153068D01*
X1155734Y251532D02*
Y256863D01*
X1151735Y259529D02*
Y262195D01*
Y260862D01*
X1159732D01*
X1158399Y259529D01*
X1153068Y266194D02*
X1159732Y272858D01*
Y266194D02*
X1161065D01*
Y267526D01*
X1159732D01*
Y266194D01*
X1151735Y271525D02*
X1153068D01*
Y272858D01*
X1151735D01*
Y271525D01*
X1206301Y266470D02*
X1214299D01*
Y270468D01*
X1212966Y271801D01*
X1210300D01*
X1208967Y270468D01*
Y266470D01*
Y269135D02*
X1206301Y271801D01*
X1212966Y274467D02*
X1214299Y275800D01*
Y278466D01*
X1212966Y279799D01*
X1211633D01*
X1210300Y278466D01*
Y277133D01*
Y278466D01*
X1208967Y279799D01*
X1207634D01*
X1206301Y278466D01*
Y275800D01*
X1207634Y274467D01*
X1206301Y282465D02*
Y285130D01*
Y283797D01*
X1214299D01*
X1212966Y282465D01*
X1188833Y219808D02*
Y222474D01*
Y221141D01*
X1196831D01*
X1195498Y219808D01*
Y226473D02*
X1196831Y227806D01*
Y230472D01*
X1195498Y231805D01*
X1190166D01*
X1188833Y230472D01*
Y227806D01*
X1190166Y226473D01*
X1195498D01*
X1196831Y234470D02*
X1188833D01*
X1191499D01*
X1196831Y239802D01*
X1192832Y235803D01*
X1188833Y239802D01*
X1192832Y250465D02*
Y255797D01*
X1195498Y253131D02*
X1190166D01*
X1192832Y258463D02*
Y263794D01*
X1188833Y266460D02*
Y269126D01*
Y267793D01*
X1196831D01*
X1195498Y266460D01*
X1190166Y273125D02*
X1196831Y279789D01*
Y273125D02*
X1198164D01*
Y274457D01*
X1196831D01*
Y273125D01*
X1188833Y278456D02*
X1190166D01*
Y279789D01*
X1188833D01*
Y278456D01*
X217659Y605595D02*
Y600263D01*
X214994Y597598D01*
X212328Y600263D01*
Y605595D01*
X209662D02*
X204330D01*
X206996D01*
Y597598D01*
X196333Y605595D02*
X198999Y604262D01*
X201665Y601596D01*
Y598930D01*
X200332Y597598D01*
X197666D01*
X196333Y598930D01*
Y600263D01*
X197666Y601596D01*
X201665D01*
X223961Y620199D02*
Y612201D01*
X219962D01*
X218629Y613534D01*
Y614867D01*
X219962Y616200D01*
X223961D01*
X219962D01*
X218629Y617533D01*
Y618866D01*
X219962Y620199D01*
X223961D01*
X210632Y618866D02*
X211964Y620199D01*
X214630D01*
X215963Y618866D01*
Y613534D01*
X214630Y612201D01*
X211964D01*
X210632Y613534D01*
X207966Y618866D02*
X206633Y620199D01*
X203967D01*
X202634Y618866D01*
Y617533D01*
X203967Y616200D01*
X202634Y614867D01*
Y613534D01*
X203967Y612201D01*
X206633D01*
X207966Y613534D01*
Y614867D01*
X206633Y616200D01*
X207966Y617533D01*
Y618866D01*
X206633Y616200D02*
X203967D01*
X195970Y612201D02*
Y620199D01*
X199968Y616200D01*
X194637D01*
X191971Y620199D02*
X186639D01*
Y618866D01*
X191971Y613534D01*
Y612201D01*
X558441Y605599D02*
Y600267D01*
X555776Y597601D01*
X553110Y600267D01*
Y605599D01*
X550444D02*
X545112D01*
X547778D01*
Y597601D01*
X537115Y605599D02*
X542447D01*
Y601600D01*
X539781Y602933D01*
X538448D01*
X537115Y601600D01*
Y598934D01*
X538448Y597601D01*
X541114D01*
X542447Y598934D01*
X566561Y618999D02*
Y611001D01*
X562562D01*
X561229Y612334D01*
Y613667D01*
X562562Y615000D01*
X566561D01*
X562562D01*
X561229Y616333D01*
Y617666D01*
X562562Y618999D01*
X566561D01*
X553232Y617666D02*
X554565Y618999D01*
X557230D01*
X558563Y617666D01*
Y612334D01*
X557230Y611001D01*
X554565D01*
X553232Y612334D01*
X550566Y617666D02*
X549233Y618999D01*
X546567D01*
X545234Y617666D01*
Y616333D01*
X546567Y615000D01*
X545234Y613667D01*
Y612334D01*
X546567Y611001D01*
X549233D01*
X550566Y612334D01*
Y613667D01*
X549233Y615000D01*
X550566Y616333D01*
Y617666D01*
X549233Y615000D02*
X546567D01*
X538570Y611001D02*
Y618999D01*
X542568Y615000D01*
X537237D01*
X534571Y618999D02*
X529239D01*
Y617666D01*
X534571Y612334D01*
Y611001D01*
X387863Y604409D02*
Y599077D01*
X385197Y596412D01*
X382532Y599077D01*
Y604409D01*
X379866D02*
X374534D01*
X377200D01*
Y596412D01*
X367870D02*
Y604409D01*
X371868Y600410D01*
X366537D01*
X393361Y617999D02*
Y610001D01*
X389362D01*
X388029Y611334D01*
Y612667D01*
X389362Y614000D01*
X393361D01*
X389362D01*
X388029Y615333D01*
Y616666D01*
X389362Y617999D01*
X393361D01*
X380032Y616666D02*
X381365Y617999D01*
X384030D01*
X385363Y616666D01*
Y611334D01*
X384030Y610001D01*
X381365D01*
X380032Y611334D01*
X377366Y616666D02*
X376033Y617999D01*
X373367D01*
X372034Y616666D01*
Y615333D01*
X373367Y614000D01*
X372034Y612667D01*
Y611334D01*
X373367Y610001D01*
X376033D01*
X377366Y611334D01*
Y612667D01*
X376033Y614000D01*
X377366Y615333D01*
Y616666D01*
X376033Y614000D02*
X373367D01*
X365370Y610001D02*
Y617999D01*
X369368Y614000D01*
X364037D01*
X361371Y617999D02*
X356039D01*
Y616666D01*
X361371Y611334D01*
Y610001D01*
X729163Y606599D02*
Y601267D01*
X726497Y598601D01*
X723832Y601267D01*
Y606599D01*
X721166D02*
X715834D01*
X718500D01*
Y598601D01*
X713168Y605266D02*
X711835Y606599D01*
X709170D01*
X707837Y605266D01*
Y603933D01*
X709170Y602600D01*
X710503D01*
X709170D01*
X707837Y601267D01*
Y599934D01*
X709170Y598601D01*
X711835D01*
X713168Y599934D01*
X736261Y620399D02*
Y612401D01*
X732262D01*
X730929Y613734D01*
Y615067D01*
X732262Y616400D01*
X736261D01*
X732262D01*
X730929Y617733D01*
Y619066D01*
X732262Y620399D01*
X736261D01*
X722932Y619066D02*
X724265Y620399D01*
X726930D01*
X728263Y619066D01*
Y613734D01*
X726930Y612401D01*
X724265D01*
X722932Y613734D01*
X720266Y619066D02*
X718933Y620399D01*
X716267D01*
X714934Y619066D01*
Y617733D01*
X716267Y616400D01*
X714934Y615067D01*
Y613734D01*
X716267Y612401D01*
X718933D01*
X720266Y613734D01*
Y615067D01*
X718933Y616400D01*
X720266Y617733D01*
Y619066D01*
X718933Y616400D02*
X716267D01*
X708270Y612401D02*
Y620399D01*
X712268Y616400D01*
X706937D01*
X704271Y620399D02*
X698939D01*
Y619066D01*
X704271Y613734D01*
Y612401D01*
X1068663Y607617D02*
Y602285D01*
X1065997Y599619D01*
X1063332Y602285D01*
Y607617D01*
X1060666D02*
X1055334D01*
X1058000D01*
Y599619D01*
X1047337D02*
X1052668D01*
X1047337Y604951D01*
Y606284D01*
X1048670Y607617D01*
X1051336D01*
X1052668Y606284D01*
X1075361Y621699D02*
Y613701D01*
X1071362D01*
X1070029Y615034D01*
Y616367D01*
X1071362Y617700D01*
X1075361D01*
X1071362D01*
X1070029Y619033D01*
Y620366D01*
X1071362Y621699D01*
X1075361D01*
X1062032Y620366D02*
X1063364Y621699D01*
X1066030D01*
X1067363Y620366D01*
Y615034D01*
X1066030Y613701D01*
X1063364D01*
X1062032Y615034D01*
X1059366Y620366D02*
X1058033Y621699D01*
X1055367D01*
X1054034Y620366D01*
Y619033D01*
X1055367Y617700D01*
X1054034Y616367D01*
Y615034D01*
X1055367Y613701D01*
X1058033D01*
X1059366Y615034D01*
Y616367D01*
X1058033Y617700D01*
X1059366Y619033D01*
Y620366D01*
X1058033Y617700D02*
X1055367D01*
X1047370Y613701D02*
Y621699D01*
X1051368Y617700D01*
X1046037D01*
X1043371Y621699D02*
X1038039D01*
Y620366D01*
X1043371Y615034D01*
Y613701D01*
X898095Y604999D02*
Y599667D01*
X895429Y597001D01*
X892763Y599667D01*
Y604999D01*
X890097D02*
X884766D01*
X887431D01*
Y597001D01*
X882100D02*
X879434D01*
X880767D01*
Y604999D01*
X882100Y603666D01*
X907325Y618099D02*
Y610101D01*
X903326D01*
X901993Y611434D01*
Y612767D01*
X903326Y614100D01*
X907325D01*
X903326D01*
X901993Y615433D01*
Y616766D01*
X903326Y618099D01*
X907325D01*
X893996Y616766D02*
X895329Y618099D01*
X897995D01*
X899328Y616766D01*
Y611434D01*
X897995Y610101D01*
X895329D01*
X893996Y611434D01*
X891330Y616766D02*
X889997Y618099D01*
X887331D01*
X885999Y616766D01*
Y615433D01*
X887331Y614100D01*
X885999Y612767D01*
Y611434D01*
X887331Y610101D01*
X889997D01*
X891330Y611434D01*
Y612767D01*
X889997Y614100D01*
X891330Y615433D01*
Y616766D01*
X889997Y614100D02*
X887331D01*
X879334Y610101D02*
Y618099D01*
X883333Y614100D01*
X878001D01*
X875335Y618099D02*
X870004D01*
Y616766D01*
X875335Y611434D01*
Y610101D01*
X254263Y511201D02*
Y519199D01*
X250264D01*
X248932Y517866D01*
Y515200D01*
X250264Y513867D01*
X254263D01*
X251597D02*
X248932Y511201D01*
X246266Y517866D02*
X244933Y519199D01*
X242267D01*
X240934Y517866D01*
Y516533D01*
X242267Y515200D01*
X243600D01*
X242267D01*
X240934Y513867D01*
Y512534D01*
X242267Y511201D01*
X244933D01*
X246266Y512534D01*
X238268Y517866D02*
X236936Y519199D01*
X234270D01*
X232937Y517866D01*
Y512534D01*
X234270Y511201D01*
X236936D01*
X238268Y512534D01*
Y517866D01*
X236437Y478197D02*
X237770Y476865D01*
X240435D01*
X241768Y478197D01*
Y479530D01*
X240435Y480863D01*
X239102D01*
X240435D01*
X241768Y482196D01*
Y483529D01*
X240435Y484862D01*
X237770D01*
X236437Y483529D01*
X244434Y478197D02*
X245767Y476865D01*
X248433D01*
X249766Y478197D01*
Y483529D01*
X248433Y484862D01*
X245767D01*
X244434Y483529D01*
Y478197D01*
X252432D02*
X253764Y476865D01*
X256430D01*
X257763Y478197D01*
Y483529D01*
X256430Y484862D01*
X253764D01*
X252432Y483529D01*
Y478197D01*
X595463Y510901D02*
Y518899D01*
X591465D01*
X590132Y517566D01*
Y514900D01*
X591465Y513567D01*
X595463D01*
X592797D02*
X590132Y510901D01*
X582134D02*
X587466D01*
X582134Y516233D01*
Y517566D01*
X583467Y518899D01*
X586133D01*
X587466Y517566D01*
X579468Y512234D02*
X578135Y510901D01*
X575470D01*
X574137Y512234D01*
Y517566D01*
X575470Y518899D01*
X578135D01*
X579468Y517566D01*
Y516233D01*
X578135Y514900D01*
X574137D01*
X577437Y479834D02*
X578770Y478501D01*
X581436D01*
X582768Y479834D01*
Y481167D01*
X581436Y482500D01*
X580103D01*
X581436D01*
X582768Y483833D01*
Y485166D01*
X581436Y486499D01*
X578770D01*
X577437Y485166D01*
X585434Y479834D02*
X586767Y478501D01*
X589433D01*
X590766Y479834D01*
Y485166D01*
X589433Y486499D01*
X586767D01*
X585434Y485166D01*
Y479834D01*
X593432D02*
X594765Y478501D01*
X597430D01*
X598763Y479834D01*
Y485166D01*
X597430Y486499D01*
X594765D01*
X593432Y485166D01*
Y479834D01*
X428226Y509801D02*
Y517799D01*
X424228D01*
X422895Y516466D01*
Y513800D01*
X424228Y512467D01*
X428226D01*
X425561D02*
X422895Y509801D01*
X414897D02*
X420229D01*
X414897Y515133D01*
Y516466D01*
X416230Y517799D01*
X418896D01*
X420229Y516466D01*
X412232D02*
X410899Y517799D01*
X408233D01*
X406900Y516466D01*
Y515133D01*
X408233Y513800D01*
X406900Y512467D01*
Y511134D01*
X408233Y509801D01*
X410899D01*
X412232Y511134D01*
Y512467D01*
X410899Y513800D01*
X412232Y515133D01*
Y516466D01*
X410899Y513800D02*
X408233D01*
X405900Y477165D02*
X407233Y475832D01*
X409899D01*
X411232Y477165D01*
Y478498D01*
X409899Y479830D01*
X408566D01*
X409899D01*
X411232Y481163D01*
Y482496D01*
X409899Y483829D01*
X407233D01*
X405900Y482496D01*
X413897Y477165D02*
X415230Y475832D01*
X417896D01*
X419229Y477165D01*
Y482496D01*
X417896Y483829D01*
X415230D01*
X413897Y482496D01*
Y477165D01*
X421895D02*
X423228Y475832D01*
X425894D01*
X427226Y477165D01*
Y482496D01*
X425894Y483829D01*
X423228D01*
X421895Y482496D01*
Y477165D01*
X766464Y510344D02*
Y518341D01*
X762466D01*
X761133Y517008D01*
Y514342D01*
X762466Y513009D01*
X766464D01*
X763799D02*
X761133Y510344D01*
X753136D02*
X758467D01*
X753136Y515675D01*
Y517008D01*
X754468Y518341D01*
X757134D01*
X758467Y517008D01*
X750470Y518341D02*
X745138D01*
Y517008D01*
X750470Y511676D01*
Y510344D01*
X766363Y483467D02*
X765030Y484800D01*
X762365D01*
X761032Y483467D01*
Y482135D01*
X762365Y480802D01*
X763697D01*
X762365D01*
X761032Y479469D01*
Y478136D01*
X762365Y476803D01*
X765030D01*
X766363Y478136D01*
X758366Y483467D02*
X757033Y484800D01*
X754367D01*
X753034Y483467D01*
Y478136D01*
X754367Y476803D01*
X757033D01*
X758366Y478136D01*
Y483467D01*
X750368D02*
X749035Y484800D01*
X746370D01*
X745037Y483467D01*
Y478136D01*
X746370Y476803D01*
X749035D01*
X750368Y478136D01*
Y483467D01*
X1105380Y514734D02*
Y522731D01*
X1101381D01*
X1100048Y521398D01*
Y518733D01*
X1101381Y517400D01*
X1105380D01*
X1102714D02*
X1100048Y514734D01*
X1092051D02*
X1097383D01*
X1092051Y520065D01*
Y521398D01*
X1093384Y522731D01*
X1096050D01*
X1097383Y521398D01*
X1084053Y522731D02*
X1086719Y521398D01*
X1089385Y518733D01*
Y516067D01*
X1088052Y514734D01*
X1085386D01*
X1084053Y516067D01*
Y517400D01*
X1085386Y518733D01*
X1089385D01*
X1105380Y481012D02*
X1104047Y482345D01*
X1101381D01*
X1100048Y481012D01*
Y479679D01*
X1101381Y478347D01*
X1102714D01*
X1101381D01*
X1100048Y477014D01*
Y475681D01*
X1101381Y474348D01*
X1104047D01*
X1105380Y475681D01*
X1097383Y481012D02*
X1096050Y482345D01*
X1093384D01*
X1092051Y481012D01*
Y475681D01*
X1093384Y474348D01*
X1096050D01*
X1097383Y475681D01*
Y481012D01*
X1089385D02*
X1088052Y482345D01*
X1085386D01*
X1084053Y481012D01*
Y475681D01*
X1085386Y474348D01*
X1088052D01*
X1089385Y475681D01*
Y481012D01*
X251663Y575101D02*
Y583099D01*
X247665D01*
X246332Y581766D01*
Y579100D01*
X247665Y577767D01*
X251663D01*
X248997D02*
X246332Y575101D01*
X238334D02*
X243666D01*
X238334Y580433D01*
Y581766D01*
X239667Y583099D01*
X242333D01*
X243666Y581766D01*
X230337Y583099D02*
X235668D01*
Y579100D01*
X233003Y580433D01*
X231670D01*
X230337Y579100D01*
Y576434D01*
X231670Y575101D01*
X234335D01*
X235668Y576434D01*
X247598Y541901D02*
X244932D01*
X246265D01*
Y549899D01*
X247598Y548566D01*
X240933Y549899D02*
Y541901D01*
Y544567D01*
X235602Y549899D01*
X239601Y545900D01*
X235602Y541901D01*
X594586Y578742D02*
Y586739D01*
X590587D01*
X589254Y585406D01*
Y582741D01*
X590587Y581408D01*
X594586D01*
X591920D02*
X589254Y578742D01*
X581257D02*
X586589D01*
X581257Y584073D01*
Y585406D01*
X582590Y586739D01*
X585256D01*
X586589Y585406D01*
X574592Y578742D02*
Y586739D01*
X578591Y582741D01*
X573260D01*
X587198Y540201D02*
X584532D01*
X585865D01*
Y548199D01*
X587198Y546866D01*
X580533Y548199D02*
Y540201D01*
Y542867D01*
X575202Y548199D01*
X579201Y544200D01*
X575202Y540201D01*
X420963Y576201D02*
Y584199D01*
X416964D01*
X415632Y582866D01*
Y580200D01*
X416964Y578867D01*
X420963D01*
X418297D02*
X415632Y576201D01*
X407634D02*
X412966D01*
X407634Y581533D01*
Y582866D01*
X408967Y584199D01*
X411633D01*
X412966Y582866D01*
X404968D02*
X403635Y584199D01*
X400970D01*
X399637Y582866D01*
Y581533D01*
X400970Y580200D01*
X402303D01*
X400970D01*
X399637Y578867D01*
Y577534D01*
X400970Y576201D01*
X403635D01*
X404968Y577534D01*
X418598Y540801D02*
X415932D01*
X417265D01*
Y548799D01*
X418598Y547466D01*
X411934Y548799D02*
Y540801D01*
Y543467D01*
X406602Y548799D01*
X410601Y544800D01*
X406602Y540801D01*
X764512Y578742D02*
Y586739D01*
X760513D01*
X759180Y585406D01*
Y582741D01*
X760513Y581408D01*
X764512D01*
X761846D02*
X759180Y578742D01*
X751183D02*
X756515D01*
X751183Y584073D01*
Y585406D01*
X752516Y586739D01*
X755182D01*
X756515Y585406D01*
X743186Y578742D02*
X748517D01*
X743186Y584073D01*
Y585406D01*
X744518Y586739D01*
X747184D01*
X748517Y585406D01*
X758098Y540701D02*
X755432D01*
X756765D01*
Y548699D01*
X758098Y547366D01*
X751433Y548699D02*
Y540701D01*
Y543367D01*
X746102Y548699D01*
X750101Y544700D01*
X746102Y540701D01*
X1102130Y576801D02*
Y584799D01*
X1098132D01*
X1096799Y583466D01*
Y580800D01*
X1098132Y579467D01*
X1102130D01*
X1099464D02*
X1096799Y576801D01*
X1088801D02*
X1094133D01*
X1088801Y582133D01*
Y583466D01*
X1090134Y584799D01*
X1092800D01*
X1094133Y583466D01*
X1086135Y576801D02*
X1083470D01*
X1084803D01*
Y584799D01*
X1086135Y583466D01*
X1097598Y541501D02*
X1094932D01*
X1096265D01*
Y549499D01*
X1097598Y548166D01*
X1090934Y549499D02*
Y541501D01*
Y544167D01*
X1085602Y549499D01*
X1089601Y545500D01*
X1085602Y541501D01*
X931709Y575901D02*
Y583899D01*
X927710D01*
X926377Y582566D01*
Y579900D01*
X927710Y578567D01*
X931709D01*
X929043D02*
X926377Y575901D01*
X918380D02*
X923711D01*
X918380Y581233D01*
Y582566D01*
X919713Y583899D01*
X922378D01*
X923711Y582566D01*
X915714D02*
X914381Y583899D01*
X911715D01*
X910382Y582566D01*
Y577234D01*
X911715Y575901D01*
X914381D01*
X915714Y577234D01*
Y582566D01*
X927762Y540601D02*
X925097D01*
X926430D01*
Y548599D01*
X927762Y547266D01*
X921098Y548599D02*
Y540601D01*
Y543267D01*
X915766Y548599D01*
X919765Y544600D01*
X915766Y540601D01*
X146797Y600301D02*
Y608299D01*
X142798D01*
X141465Y606966D01*
Y604300D01*
X142798Y602967D01*
X146797D01*
X144131D02*
X141465Y600301D01*
X138799D02*
X136134D01*
X137466D01*
Y608299D01*
X138799Y606966D01*
X132135Y601634D02*
X130802Y600301D01*
X128136D01*
X126803Y601634D01*
Y606966D01*
X128136Y608299D01*
X130802D01*
X132135Y606966D01*
Y605633D01*
X130802Y604300D01*
X126803D01*
X142466Y545722D02*
X139800D01*
X141133D01*
Y553719D01*
X142466Y552386D01*
X135801Y553719D02*
Y545722D01*
Y548388D01*
X130470Y553719D01*
X134468Y549721D01*
X130470Y545722D01*
X486697Y599701D02*
Y607699D01*
X482698D01*
X481365Y606366D01*
Y603700D01*
X482698Y602367D01*
X486697D01*
X484031D02*
X481365Y599701D01*
X478699D02*
X476034D01*
X477366D01*
Y607699D01*
X478699Y606366D01*
X472035D02*
X470702Y607699D01*
X468036D01*
X466703Y606366D01*
Y605033D01*
X468036Y603700D01*
X466703Y602367D01*
Y601034D01*
X468036Y599701D01*
X470702D01*
X472035Y601034D01*
Y602367D01*
X470702Y603700D01*
X472035Y605033D01*
Y606366D01*
X470702Y603700D02*
X468036D01*
X482572Y545722D02*
X479906D01*
X481239D01*
Y553719D01*
X482572Y552386D01*
X475908Y553719D02*
Y545722D01*
Y548388D01*
X470576Y553719D01*
X474575Y549721D01*
X470576Y545722D01*
X314997Y599701D02*
Y607699D01*
X310998D01*
X309665Y606366D01*
Y603700D01*
X310998Y602367D01*
X314997D01*
X312331D02*
X309665Y599701D01*
X306999D02*
X304334D01*
X305666D01*
Y607699D01*
X306999Y606366D01*
X300335Y607699D02*
X295003D01*
Y606366D01*
X300335Y601034D01*
Y599701D01*
X312138Y545722D02*
X309472D01*
X310805D01*
Y553719D01*
X312138Y552386D01*
X305473Y553719D02*
Y545722D01*
Y548388D01*
X300142Y553719D01*
X304140Y549721D01*
X300142Y545722D01*
X654597Y600101D02*
Y608099D01*
X650598D01*
X649265Y606766D01*
Y604100D01*
X650598Y602767D01*
X654597D01*
X651931D02*
X649265Y600101D01*
X646599D02*
X643934D01*
X645266D01*
Y608099D01*
X646599Y606766D01*
X634603Y608099D02*
X637269Y606766D01*
X639935Y604100D01*
Y601434D01*
X638602Y600101D01*
X635936D01*
X634603Y601434D01*
Y602767D01*
X635936Y604100D01*
X639935D01*
X651990Y545722D02*
X649324D01*
X650657D01*
Y553719D01*
X651990Y552386D01*
X645325Y553719D02*
Y545722D01*
Y548388D01*
X639994Y553719D01*
X643992Y549721D01*
X639994Y545722D01*
X996497Y600501D02*
Y608499D01*
X992498D01*
X991165Y607166D01*
Y604500D01*
X992498Y603167D01*
X996497D01*
X993831D02*
X991165Y600501D01*
X988499D02*
X985834D01*
X987166D01*
Y608499D01*
X988499Y607166D01*
X976503Y608499D02*
X981835D01*
Y604500D01*
X979169Y605833D01*
X977836D01*
X976503Y604500D01*
Y601834D01*
X977836Y600501D01*
X980502D01*
X981835Y601834D01*
X991842Y546738D02*
X989176D01*
X990509D01*
Y554735D01*
X991842Y553402D01*
X985178Y554735D02*
Y546738D01*
Y549404D01*
X979846Y554735D01*
X983845Y550737D01*
X979846Y546738D01*
X826163Y599601D02*
Y607599D01*
X822164D01*
X820831Y606266D01*
Y603600D01*
X822164Y602267D01*
X826163D01*
X823497D02*
X820831Y599601D01*
X818165D02*
X815499D01*
X816832D01*
Y607599D01*
X818165Y606266D01*
X807502Y599601D02*
Y607599D01*
X811501Y603600D01*
X806169D01*
X822170Y545722D02*
X819504D01*
X820837D01*
Y553719D01*
X822170Y552386D01*
X815506Y553719D02*
Y545722D01*
Y548388D01*
X810174Y553719D01*
X814173Y549721D01*
X810174Y545722D01*
X1060912Y436006D02*
Y444004D01*
X1056913D01*
X1055580Y442671D01*
Y440005D01*
X1056913Y438672D01*
X1060912D01*
X1058246D02*
X1055580Y436006D01*
X1052914D02*
X1050248D01*
X1051581D01*
Y444004D01*
X1052914Y442671D01*
X1046250D02*
X1044917Y444004D01*
X1042251D01*
X1040918Y442671D01*
Y441338D01*
X1042251Y440005D01*
X1043584D01*
X1042251D01*
X1040918Y438672D01*
Y437339D01*
X1042251Y436006D01*
X1044917D01*
X1046250Y437339D01*
X999997Y435115D02*
X997331D01*
X998664D01*
Y443112D01*
X999997Y441779D01*
X993332D02*
X991999Y443112D01*
X989333D01*
X988001Y441779D01*
Y436447D01*
X989333Y435115D01*
X991999D01*
X993332Y436447D01*
Y441779D01*
X985335Y443112D02*
Y435115D01*
Y437780D01*
X980003Y443112D01*
X984002Y439113D01*
X980003Y435115D01*
X1062017Y333828D02*
Y341825D01*
X1058018D01*
X1056685Y340493D01*
Y337827D01*
X1058018Y336494D01*
X1062017D01*
X1059351D02*
X1056685Y333828D01*
X1054019D02*
X1051353D01*
X1052686D01*
Y341825D01*
X1054019Y340493D01*
X1042023Y333828D02*
X1047355D01*
X1042023Y339160D01*
Y340493D01*
X1043356Y341825D01*
X1046022D01*
X1047355Y340493D01*
X999997Y333828D02*
X997331D01*
X998664D01*
Y341825D01*
X999997Y340493D01*
X993332D02*
X991999Y341825D01*
X989333D01*
X988001Y340493D01*
Y335161D01*
X989333Y333828D01*
X991999D01*
X993332Y335161D01*
Y340493D01*
X985335Y341825D02*
Y333828D01*
Y336494D01*
X980003Y341825D01*
X984002Y337827D01*
X980003Y333828D01*
X1058259Y309901D02*
Y317899D01*
X1054260D01*
X1052927Y316566D01*
Y313900D01*
X1054260Y312567D01*
X1058259D01*
X1055593D02*
X1052927Y309901D01*
X1050262D02*
X1047596D01*
X1048929D01*
Y317899D01*
X1050262Y316566D01*
X1043597Y309901D02*
X1040931D01*
X1042264D01*
Y317899D01*
X1043597Y316566D01*
X999997Y308701D02*
X997331D01*
X998664D01*
Y316699D01*
X999997Y315366D01*
X993332D02*
X991999Y316699D01*
X989333D01*
X988001Y315366D01*
Y310034D01*
X989333Y308701D01*
X991999D01*
X993332Y310034D01*
Y315366D01*
X985335Y316699D02*
Y308701D01*
Y311367D01*
X980003Y316699D01*
X984002Y312700D01*
X980003Y308701D01*
X1061597Y257701D02*
Y265699D01*
X1057598D01*
X1056265Y264366D01*
Y261700D01*
X1057598Y260367D01*
X1061597D01*
X1058931D02*
X1056265Y257701D01*
X1053599D02*
X1050934D01*
X1052266D01*
Y265699D01*
X1053599Y264366D01*
X1046935D02*
X1045602Y265699D01*
X1042936D01*
X1041603Y264366D01*
Y259034D01*
X1042936Y257701D01*
X1045602D01*
X1046935Y259034D01*
Y264366D01*
X999997Y256801D02*
X997331D01*
X998664D01*
Y264799D01*
X999997Y263466D01*
X993332D02*
X991999Y264799D01*
X989333D01*
X988001Y263466D01*
Y258134D01*
X989333Y256801D01*
X991999D01*
X993332Y258134D01*
Y263466D01*
X985335Y264799D02*
Y256801D01*
Y259467D01*
X980003Y264799D01*
X984002Y260800D01*
X980003Y256801D01*
X1056564Y282301D02*
Y290299D01*
X1052566D01*
X1051233Y288966D01*
Y286300D01*
X1052566Y284967D01*
X1056564D01*
X1053899D02*
X1051233Y282301D01*
X1048567Y283634D02*
X1047234Y282301D01*
X1044568D01*
X1043235Y283634D01*
Y288966D01*
X1044568Y290299D01*
X1047234D01*
X1048567Y288966D01*
Y287633D01*
X1047234Y286300D01*
X1043235D01*
X999997Y282101D02*
X997331D01*
X998664D01*
Y290099D01*
X999997Y288766D01*
X993332D02*
X991999Y290099D01*
X989333D01*
X988001Y288766D01*
Y283434D01*
X989333Y282101D01*
X991999D01*
X993332Y283434D01*
Y288766D01*
X985335Y290099D02*
Y282101D01*
Y284767D01*
X980003Y290099D01*
X984002Y286100D01*
X980003Y282101D01*
X580664Y242001D02*
Y249999D01*
X576666D01*
X575333Y248666D01*
Y246000D01*
X576666Y244667D01*
X580664D01*
X577999D02*
X575333Y242001D01*
X572667Y249999D02*
X567336D01*
Y248666D01*
X572667Y243334D01*
Y242001D01*
X535039Y247265D02*
X527041D01*
X531040Y251264D01*
Y245932D01*
X527041Y243266D02*
Y237935D01*
X528374D01*
X533706Y243266D01*
X535039D01*
X527041Y235269D02*
X535039D01*
X532373D01*
X527041Y229937D01*
X531040Y233936D01*
X535039Y229937D01*
X579222Y285372D02*
Y293369D01*
X575223D01*
X573890Y292036D01*
Y289371D01*
X575223Y288038D01*
X579222D01*
X576556D02*
X573890Y285372D01*
X565893Y293369D02*
X568559Y292036D01*
X571225Y289371D01*
Y286705D01*
X569892Y285372D01*
X567226D01*
X565893Y286705D01*
Y288038D01*
X567226Y289371D01*
X571225D01*
X536803Y296035D02*
X528805D01*
X532804Y300034D01*
Y294702D01*
X528805Y292036D02*
Y286705D01*
X530138D01*
X535470Y292036D01*
X536803D01*
X528805Y284039D02*
X536803D01*
X534137D01*
X528805Y278707D01*
X532804Y282706D01*
X536803Y278707D01*
X315799Y247565D02*
X307801D01*
Y243566D01*
X309134Y242233D01*
X311800D01*
X313133Y243566D01*
Y247565D01*
Y244899D02*
X315799Y242233D01*
X307801Y234235D02*
Y239567D01*
X311800D01*
X310467Y236901D01*
Y235568D01*
X311800Y234235D01*
X314466D01*
X315799Y235568D01*
Y238234D01*
X314466Y239567D01*
X277699Y249965D02*
X269701D01*
X273700Y253963D01*
Y248632D01*
X269701Y245966D02*
Y240634D01*
X271034D01*
X276366Y245966D01*
X277699D01*
X269701Y237968D02*
X277699D01*
X275033D01*
X269701Y232637D01*
X273700Y236635D01*
X277699Y232637D01*
X316299Y295965D02*
X308301D01*
Y291966D01*
X309634Y290633D01*
X312300D01*
X313633Y291966D01*
Y295965D01*
Y293299D02*
X316299Y290633D01*
Y283968D02*
X308301D01*
X312300Y287967D01*
Y282635D01*
X278599Y297565D02*
X270601D01*
X274600Y301563D01*
Y296232D01*
X270601Y293566D02*
Y288234D01*
X271934D01*
X277266Y293566D01*
X278599D01*
X270601Y285568D02*
X278599D01*
X275933D01*
X270601Y280237D01*
X274600Y284235D01*
X278599Y280237D01*
X580665Y331951D02*
Y339949D01*
X576667D01*
X575334Y338616D01*
Y335950D01*
X576667Y334617D01*
X580665D01*
X577999D02*
X575334Y331951D01*
X572668Y338616D02*
X571335Y339949D01*
X568669D01*
X567336Y338616D01*
Y337283D01*
X568669Y335950D01*
X570002D01*
X568669D01*
X567336Y334617D01*
Y333284D01*
X568669Y331951D01*
X571335D01*
X572668Y333284D01*
X536699Y343615D02*
X528702D01*
X532701Y347613D01*
Y342282D01*
X528702Y339616D02*
Y334284D01*
X530035D01*
X535367Y339616D01*
X536699D01*
X528702Y331618D02*
X536699D01*
X534034D01*
X528702Y326287D01*
X532701Y330285D01*
X536699Y326287D01*
X316999Y345564D02*
X309001D01*
Y341566D01*
X310334Y340233D01*
X313000D01*
X314333Y341566D01*
Y345564D01*
Y342899D02*
X316999Y340233D01*
Y332235D02*
Y337567D01*
X311667Y332235D01*
X310334D01*
X309001Y333568D01*
Y336234D01*
X310334Y337567D01*
X277999Y344765D02*
X270001D01*
X274000Y348763D01*
Y343432D01*
X270001Y340766D02*
Y335434D01*
X271334D01*
X276666Y340766D01*
X277999D01*
X270001Y332768D02*
X277999D01*
X275333D01*
X270001Y327437D01*
X274000Y331436D01*
X277999Y327437D01*
X1054832Y385201D02*
Y393199D01*
X1050833D01*
X1049500Y391866D01*
Y389200D01*
X1050833Y387867D01*
X1054832D01*
X1052166D02*
X1049500Y385201D01*
X1046834D02*
X1044168D01*
X1045501D01*
Y393199D01*
X1046834Y391866D01*
X999997Y383401D02*
X997331D01*
X998664D01*
Y391399D01*
X999997Y390066D01*
X993332D02*
X991999Y391399D01*
X989333D01*
X988001Y390066D01*
Y384734D01*
X989333Y383401D01*
X991999D01*
X993332Y384734D01*
Y390066D01*
X985335Y391399D02*
Y383401D01*
Y386067D01*
X980003Y391399D01*
X984002Y387400D01*
X980003Y383401D01*
X850833Y359066D02*
X852166Y360399D01*
X854832D01*
X856164Y359066D01*
Y353734D01*
X854832Y352401D01*
X852166D01*
X850833Y353734D01*
X842835Y360399D02*
X845501Y359066D01*
X848167Y356400D01*
Y353734D01*
X846834Y352401D01*
X844168D01*
X842835Y353734D01*
Y355067D01*
X844168Y356400D01*
X848167D01*
X845701Y300757D02*
Y306089D01*
X849700D01*
X848367Y303423D01*
Y302090D01*
X849700Y300757D01*
X852366D01*
X853699Y302090D01*
Y304756D01*
X852366Y306089D01*
X847034Y298092D02*
X845701Y296759D01*
Y294093D01*
X847034Y292760D01*
X852366D01*
X853699Y294093D01*
Y296759D01*
X852366Y298092D01*
X847034D01*
X845701Y290094D02*
X851033D01*
X853699Y287428D01*
X851033Y284763D01*
X845701D01*
X853699Y274099D02*
Y271434D01*
Y272766D01*
X845701D01*
X847034Y274099D01*
Y267435D02*
X845701Y266102D01*
Y263436D01*
X847034Y262103D01*
X852366D01*
X853699Y263436D01*
Y266102D01*
X852366Y267435D01*
X847034D01*
Y259437D02*
X845701Y258104D01*
Y255439D01*
X847034Y254106D01*
X852366D01*
X853699Y255439D01*
Y258104D01*
X852366Y259437D01*
X847034D01*
X853699Y251440D02*
X848367D01*
Y247441D01*
X849700Y246108D01*
X853699D01*
X845701Y238111D02*
Y243443D01*
X849700D01*
Y240777D01*
Y243443D01*
X853699D01*
X890633Y358249D02*
X891966Y359582D01*
X894632D01*
X895965Y358249D01*
Y352917D01*
X894632Y351585D01*
X891966D01*
X890633Y352917D01*
X882635Y359582D02*
X887967D01*
Y355583D01*
X885301Y356916D01*
X883968D01*
X882635Y355583D01*
Y352917D01*
X883968Y351585D01*
X886634D01*
X887967Y352917D01*
X886001Y299041D02*
Y304372D01*
X890000D01*
X888667Y301707D01*
Y300373D01*
X890000Y299041D01*
X892666D01*
X893999Y300373D01*
Y303039D01*
X892666Y304372D01*
X887334Y296375D02*
X886001Y295042D01*
Y292376D01*
X887334Y291043D01*
X892666D01*
X893999Y292376D01*
Y295042D01*
X892666Y296375D01*
X887334D01*
X886001Y288377D02*
X891333D01*
X893999Y285712D01*
X891333Y283046D01*
X886001D01*
X893999Y272383D02*
Y269717D01*
Y271050D01*
X886001D01*
X887334Y272383D01*
Y265718D02*
X886001Y264385D01*
Y261719D01*
X887334Y260386D01*
X892666D01*
X893999Y261719D01*
Y264385D01*
X892666Y265718D01*
X887334D01*
Y257721D02*
X886001Y256388D01*
Y253722D01*
X887334Y252389D01*
X892666D01*
X893999Y253722D01*
Y256388D01*
X892666Y257721D01*
X887334D01*
X893999Y249723D02*
X888667D01*
Y245725D01*
X890000Y244392D01*
X893999D01*
X886001Y236394D02*
Y241726D01*
X890000D01*
Y239060D01*
Y241726D01*
X893999D01*
X929733Y356366D02*
X931066Y357699D01*
X933732D01*
X935064Y356366D01*
Y351034D01*
X933732Y349701D01*
X931066D01*
X929733Y351034D01*
X923068Y349701D02*
Y357699D01*
X927067Y353700D01*
X921736D01*
X924801Y297977D02*
Y303309D01*
X928800D01*
X927467Y300643D01*
Y299310D01*
X928800Y297977D01*
X931466D01*
X932799Y299310D01*
Y301976D01*
X931466Y303309D01*
X926134Y295312D02*
X924801Y293979D01*
Y291313D01*
X926134Y289980D01*
X931466D01*
X932799Y291313D01*
Y293979D01*
X931466Y295312D01*
X926134D01*
X924801Y287314D02*
X930133D01*
X932799Y284648D01*
X930133Y281983D01*
X924801D01*
X932799Y271319D02*
Y268654D01*
Y269986D01*
X924801D01*
X926134Y271319D01*
Y264655D02*
X924801Y263322D01*
Y260656D01*
X926134Y259323D01*
X931466D01*
X932799Y260656D01*
Y263322D01*
X931466Y264655D01*
X926134D01*
Y256657D02*
X924801Y255324D01*
Y252659D01*
X926134Y251326D01*
X931466D01*
X932799Y252659D01*
Y255324D01*
X931466Y256657D01*
X926134D01*
X932799Y248660D02*
X927467D01*
Y244661D01*
X928800Y243328D01*
X932799D01*
X924801Y235331D02*
Y240663D01*
X928800D01*
Y237997D01*
Y240663D01*
X932799D01*
X1138910Y459422D02*
X1140243Y460755D01*
X1142909D01*
X1144242Y459422D01*
Y454091D01*
X1142909Y452758D01*
X1140243D01*
X1138910Y454091D01*
X1136245Y459422D02*
X1134912Y460755D01*
X1132246D01*
X1130913Y459422D01*
Y458089D01*
X1132246Y456757D01*
X1133579D01*
X1132246D01*
X1130913Y455424D01*
Y454091D01*
X1132246Y452758D01*
X1134912D01*
X1136245Y454091D01*
X1153000Y460957D02*
Y466289D01*
X1156998D01*
X1155666Y463623D01*
Y462290D01*
X1156998Y460957D01*
X1159664D01*
X1160997Y462290D01*
Y464956D01*
X1159664Y466289D01*
X1154333Y458292D02*
X1153000Y456959D01*
Y454293D01*
X1154333Y452960D01*
X1159664D01*
X1160997Y454293D01*
Y456959D01*
X1159664Y458292D01*
X1154333D01*
X1153000Y450294D02*
X1158331D01*
X1160997Y447628D01*
X1158331Y444963D01*
X1153000D01*
X1160997Y434299D02*
Y431634D01*
Y432966D01*
X1153000D01*
X1154333Y434299D01*
Y427635D02*
X1153000Y426302D01*
Y423636D01*
X1154333Y422303D01*
X1159664D01*
X1160997Y423636D01*
Y426302D01*
X1159664Y427635D01*
X1154333D01*
Y419637D02*
X1153000Y418304D01*
Y415639D01*
X1154333Y414306D01*
X1159664D01*
X1160997Y415639D01*
Y418304D01*
X1159664Y419637D01*
X1154333D01*
X1160997Y411640D02*
X1155666D01*
Y407641D01*
X1156998Y406308D01*
X1160997D01*
X1153000Y398311D02*
Y403643D01*
X1156998D01*
Y400977D01*
Y403643D01*
X1160997D01*
M02*
