G04*
G04 #@! TF.GenerationSoftware,Altium Limited,Altium Designer,22.10.1 (41)*
G04*
G04 Layer_Physical_Order=2*
G04 Layer_Color=16711680*
%FSLAX44Y44*%
%MOMM*%
G71*
G04*
G04 #@! TF.SameCoordinates,0E9425E9-A874-4ED2-9F9C-91F8E0F331BA*
G04*
G04*
G04 #@! TF.FilePolarity,Positive*
G04*
G01*
G75*
%ADD11C,1.0000*%
%ADD12C,0.3000*%
%ADD16R,1.6000X1.0000*%
%ADD33C,2.0000*%
%ADD34C,0.5000*%
%ADD36C,1.8000*%
%ADD37C,2.0000*%
%ADD38R,10.0000X5.0000*%
%ADD40C,1.5000*%
%ADD41C,1.6000*%
%ADD42C,2.2000*%
%ADD43C,1.9500*%
G04:AMPARAMS|DCode=44|XSize=1.95mm|YSize=1.95mm|CornerRadius=0.4875mm|HoleSize=0mm|Usage=FLASHONLY|Rotation=90.000|XOffset=0mm|YOffset=0mm|HoleType=Round|Shape=RoundedRectangle|*
%AMROUNDEDRECTD44*
21,1,1.9500,0.9750,0,0,90.0*
21,1,0.9750,1.9500,0,0,90.0*
1,1,0.9750,0.4875,0.4875*
1,1,0.9750,0.4875,-0.4875*
1,1,0.9750,-0.4875,-0.4875*
1,1,0.9750,-0.4875,0.4875*
%
%ADD44ROUNDEDRECTD44*%
%ADD45C,3.0000*%
G04:AMPARAMS|DCode=46|XSize=1.95mm|YSize=1.95mm|CornerRadius=0.4875mm|HoleSize=0mm|Usage=FLASHONLY|Rotation=0.000|XOffset=0mm|YOffset=0mm|HoleType=Round|Shape=RoundedRectangle|*
%AMROUNDEDRECTD46*
21,1,1.9500,0.9750,0,0,0.0*
21,1,0.9750,1.9500,0,0,0.0*
1,1,0.9750,0.4875,-0.4875*
1,1,0.9750,-0.4875,-0.4875*
1,1,0.9750,-0.4875,0.4875*
1,1,0.9750,0.4875,0.4875*
%
%ADD46ROUNDEDRECTD46*%
%ADD48C,0.8000*%
%ADD49R,0.8000X1.2500*%
%ADD50R,1.0000X0.6000*%
%ADD51R,1.2500X0.8000*%
%ADD52R,0.6000X1.0000*%
%ADD53R,4.0000X3.0000*%
%ADD54R,8.0000X3.0000*%
G04:AMPARAMS|DCode=55|XSize=4mm|YSize=7mm|CornerRadius=1mm|HoleSize=0mm|Usage=FLASHONLY|Rotation=90.000|XOffset=0mm|YOffset=0mm|HoleType=Round|Shape=RoundedRectangle|*
%AMROUNDEDRECTD55*
21,1,4.0000,5.0000,0,0,90.0*
21,1,2.0000,7.0000,0,0,90.0*
1,1,2.0000,2.5000,1.0000*
1,1,2.0000,2.5000,-1.0000*
1,1,2.0000,-2.5000,-1.0000*
1,1,2.0000,-2.5000,1.0000*
%
%ADD55ROUNDEDRECTD55*%
G36*
X1895000Y880800D02*
X1995646D01*
Y125000D01*
X1951271D01*
X1950785Y126173D01*
X1953406Y128794D01*
X1954688Y130465D01*
X1955494Y132412D01*
X1955769Y134500D01*
Y231800D01*
X1955494Y233888D01*
X1954688Y235835D01*
X1953406Y237506D01*
X1935706Y255206D01*
X1934034Y256488D01*
X1932088Y257294D01*
X1930000Y257569D01*
X1925351D01*
X1925203Y257826D01*
X1922829Y260200D01*
X1919921Y261879D01*
X1916679Y262747D01*
X1913322D01*
X1910079Y261879D01*
X1907171Y260200D01*
X1905038Y258066D01*
X1890545D01*
X1822469Y326142D01*
Y418400D01*
X1822194Y420488D01*
X1821388Y422435D01*
X1820106Y424106D01*
X1686406Y557806D01*
X1684734Y559088D01*
X1682788Y559894D01*
X1680700Y560169D01*
X1678612Y559894D01*
X1676665Y559088D01*
X1674994Y557806D01*
X1673712Y556134D01*
X1672906Y554188D01*
X1672631Y552100D01*
X1672906Y550012D01*
X1673712Y548065D01*
X1674994Y546394D01*
X1806331Y415058D01*
Y322800D01*
X1806606Y320712D01*
X1807412Y318766D01*
X1808694Y317094D01*
X1881497Y244292D01*
X1883168Y243009D01*
X1885114Y242203D01*
X1887203Y241928D01*
X1905038D01*
X1907171Y239795D01*
X1910079Y238116D01*
X1913322Y237247D01*
X1916679D01*
X1919921Y238116D01*
X1922829Y239795D01*
X1924465Y241431D01*
X1926658D01*
X1939631Y228458D01*
Y137842D01*
X1926789Y125000D01*
X1895000D01*
Y120169D01*
X1849100D01*
X1847012Y119894D01*
X1845065Y119088D01*
X1843394Y117806D01*
X1790358Y64769D01*
X1770402D01*
X1768313Y64494D01*
X1766367Y63688D01*
X1765080Y62700D01*
X1762402D01*
Y57224D01*
X1762333Y56700D01*
X1762402Y56176D01*
Y50700D01*
X1765080D01*
X1766367Y49712D01*
X1768313Y48906D01*
X1770402Y48631D01*
X1793700D01*
X1795788Y48906D01*
X1797735Y49712D01*
X1799406Y50994D01*
X1852442Y104031D01*
X1895000D01*
Y4354D01*
X775100Y4354D01*
Y353700D01*
X738100Y390700D01*
X72100D01*
X56300Y406500D01*
X4354D01*
X4354Y618222D01*
X214032D01*
X214518Y617049D01*
X202535Y605065D01*
X201319Y603246D01*
X200892Y601100D01*
Y595100D01*
X200300D01*
Y579100D01*
X200692D01*
Y569600D01*
X198300D01*
Y563100D01*
Y556600D01*
X200692D01*
Y554900D01*
X201119Y552754D01*
X202335Y550935D01*
X249392Y503877D01*
Y499002D01*
X249500Y498460D01*
Y488252D01*
X263500D01*
Y506752D01*
X260498D01*
X260181Y508346D01*
X258965Y510165D01*
X215204Y553927D01*
X215690Y555100D01*
X221800D01*
Y557492D01*
X224000D01*
Y553152D01*
X238000D01*
Y571652D01*
X224000D01*
Y568708D01*
X221800D01*
Y571100D01*
X211908D01*
Y579100D01*
X212300D01*
Y595100D01*
X212108D01*
Y598777D01*
X231553Y618222D01*
X385132D01*
X385618Y617049D01*
X373235Y604665D01*
X372019Y602846D01*
X371592Y600700D01*
Y595100D01*
X371200D01*
Y579100D01*
X371592D01*
Y569600D01*
X369200D01*
Y563100D01*
Y556600D01*
X371592D01*
Y556000D01*
X372019Y553854D01*
X373235Y552035D01*
X420063Y505206D01*
Y488252D01*
X434063D01*
Y506752D01*
X431560D01*
Y507248D01*
X431133Y509394D01*
X429918Y511213D01*
X387204Y553927D01*
X387690Y555100D01*
X392700D01*
Y555100D01*
X393900Y554931D01*
Y553152D01*
X407900D01*
Y571652D01*
X393900D01*
Y571269D01*
X392700Y571100D01*
Y571100D01*
X382808D01*
Y579100D01*
X383200D01*
Y595100D01*
X382808D01*
Y598377D01*
X402653Y618222D01*
X555532D01*
X556018Y617049D01*
X544035Y605065D01*
X542819Y603246D01*
X542392Y601100D01*
Y594600D01*
X542000D01*
Y578600D01*
X542392D01*
Y569100D01*
X540000D01*
Y562600D01*
Y556100D01*
X542392D01*
Y552400D01*
X542819Y550254D01*
X544035Y548435D01*
X589792Y502677D01*
Y499002D01*
X589900Y498460D01*
Y488252D01*
X603900D01*
Y506752D01*
X600659D01*
X600581Y507146D01*
X599365Y508965D01*
X554904Y553427D01*
X555390Y554600D01*
X563500D01*
X563900Y553496D01*
Y553152D01*
X577900D01*
Y571652D01*
X563900D01*
X563500Y570600D01*
X553608D01*
Y578600D01*
X554000D01*
Y594600D01*
X553608D01*
Y598777D01*
X573053Y618222D01*
X725232D01*
X725718Y617049D01*
X714235Y605565D01*
X713019Y603746D01*
X712592Y601600D01*
Y595000D01*
X712200D01*
Y579000D01*
X712592D01*
Y569500D01*
X710200D01*
Y563000D01*
Y556500D01*
X712592D01*
Y554200D01*
X713019Y552054D01*
X714235Y550235D01*
X757492Y506977D01*
Y499002D01*
X757600Y498460D01*
Y488252D01*
X771600D01*
Y506752D01*
X768708D01*
Y509300D01*
X768281Y511446D01*
X767065Y513265D01*
X726504Y553827D01*
X726990Y555000D01*
X733700D01*
X733800Y553771D01*
Y553152D01*
X747800D01*
Y571652D01*
X733800D01*
X733700Y571000D01*
X723808D01*
Y579000D01*
X724200D01*
Y595000D01*
X723808D01*
Y599277D01*
X742753Y618222D01*
X895397D01*
X895883Y617049D01*
X883599Y604765D01*
X882383Y602946D01*
X881957Y600800D01*
Y594600D01*
X881564D01*
Y578600D01*
X881957D01*
Y569100D01*
X879564D01*
Y562600D01*
Y556100D01*
X881957D01*
Y551500D01*
X882383Y549354D01*
X883599Y547535D01*
X925944Y505190D01*
Y488352D01*
X939944D01*
Y506852D01*
X937383D01*
Y507289D01*
X936956Y509435D01*
X935741Y511254D01*
X893665Y553330D01*
X894191Y554600D01*
X903064D01*
X903264Y553413D01*
Y553252D01*
X917264D01*
Y571752D01*
X903264D01*
X903064Y570600D01*
X893172D01*
Y578600D01*
X893564D01*
Y594600D01*
X893172D01*
Y598477D01*
X912917Y618222D01*
X1064232D01*
X1064718Y617049D01*
X1053535Y605865D01*
X1052319Y604046D01*
X1051892Y601900D01*
Y596000D01*
X1051500D01*
Y580000D01*
X1051892D01*
Y570500D01*
X1049500D01*
Y564000D01*
Y557500D01*
X1051892D01*
Y552900D01*
X1052319Y550754D01*
X1053535Y548935D01*
X1094800Y507669D01*
Y489252D01*
X1108800D01*
Y507752D01*
X1107029D01*
Y508979D01*
X1106602Y511125D01*
X1105386Y512944D01*
X1063600Y554730D01*
X1064127Y556000D01*
X1073000D01*
X1073200Y554813D01*
Y554152D01*
X1087200D01*
Y572652D01*
X1073200D01*
X1073000Y572000D01*
X1063108D01*
Y580000D01*
X1063500D01*
Y596000D01*
X1063108D01*
Y599577D01*
X1081753Y618222D01*
X1120722D01*
X1162600Y660100D01*
Y995646D01*
X1895000Y995646D01*
Y880800D01*
D02*
G37*
%LPC*%
G36*
X1853000Y948000D02*
X1747000D01*
Y892000D01*
X1853000D01*
Y948000D01*
D02*
G37*
G36*
X1608514Y894500D02*
X1608500D01*
Y884500D01*
X1618500D01*
Y884514D01*
X1617716Y887439D01*
X1616202Y890061D01*
X1614061Y892202D01*
X1611439Y893716D01*
X1608514Y894500D01*
D02*
G37*
G36*
X1605500D02*
X1605486D01*
X1602561Y893716D01*
X1599939Y892202D01*
X1597798Y890061D01*
X1596284Y887439D01*
X1595500Y884514D01*
Y884500D01*
X1605500D01*
Y894500D01*
D02*
G37*
G36*
X1618500Y881500D02*
X1608500D01*
Y871500D01*
X1608514D01*
X1611439Y872284D01*
X1614061Y873798D01*
X1616202Y875939D01*
X1617716Y878561D01*
X1618500Y881486D01*
Y881500D01*
D02*
G37*
G36*
X1605500D02*
X1595500D01*
Y881486D01*
X1596284Y878561D01*
X1597798Y875939D01*
X1599939Y873798D01*
X1602561Y872284D01*
X1605486Y871500D01*
X1605500D01*
Y881500D01*
D02*
G37*
G36*
X1661012Y895700D02*
X1657589D01*
X1654282Y894814D01*
X1651318Y893103D01*
X1648897Y890682D01*
X1647186Y887718D01*
X1646300Y884411D01*
Y880988D01*
X1647186Y877682D01*
X1648897Y874718D01*
X1651318Y872297D01*
X1654282Y870586D01*
X1657589Y869700D01*
X1661012D01*
X1664318Y870586D01*
X1667282Y872297D01*
X1669703Y874718D01*
X1671414Y877682D01*
X1672300Y880988D01*
Y884411D01*
X1671414Y887718D01*
X1669703Y890682D01*
X1667282Y893103D01*
X1664318Y894814D01*
X1661012Y895700D01*
D02*
G37*
G36*
X1851500Y876500D02*
X1801500D01*
Y851500D01*
X1851500D01*
Y876500D01*
D02*
G37*
G36*
X1798500D02*
X1748500D01*
Y851500D01*
X1798500D01*
Y876500D01*
D02*
G37*
G36*
X1851500Y848500D02*
X1801500D01*
Y823500D01*
X1851500D01*
Y848500D01*
D02*
G37*
G36*
X1798500D02*
X1748500D01*
Y823500D01*
X1798500D01*
Y848500D01*
D02*
G37*
G36*
X1498800Y878912D02*
X1497948Y878800D01*
X1497088D01*
X1496258Y878577D01*
X1495406Y878465D01*
X1494612Y878137D01*
X1493782Y877914D01*
X1493038Y877484D01*
X1492244Y877156D01*
X1491562Y876632D01*
X1490818Y876203D01*
X1490210Y875595D01*
X1489528Y875072D01*
X1489198Y874642D01*
X1463803Y849247D01*
X1463448Y849200D01*
X1436300D01*
Y813200D01*
X1482300D01*
Y830657D01*
X1508072Y856428D01*
X1508072Y856428D01*
X1508925Y857540D01*
X1509203Y857818D01*
X1509399Y858158D01*
X1510155Y859144D01*
X1510631Y860292D01*
X1510914Y860782D01*
X1511061Y861329D01*
X1511465Y862306D01*
X1511604Y863355D01*
X1511800Y864089D01*
Y864848D01*
X1511912Y865700D01*
X1511912Y865700D01*
Y865800D01*
X1511800Y866652D01*
Y867512D01*
X1511577Y868342D01*
X1511465Y869194D01*
X1511136Y869988D01*
X1510914Y870818D01*
X1510484Y871562D01*
X1510155Y872356D01*
X1509632Y873038D01*
X1509203Y873782D01*
X1508595Y874390D01*
X1508072Y875072D01*
X1507390Y875595D01*
X1506782Y876203D01*
X1506038Y876632D01*
X1505356Y877156D01*
X1504562Y877484D01*
X1503818Y877914D01*
X1502988Y878137D01*
X1502194Y878465D01*
X1501342Y878577D01*
X1500511Y878800D01*
X1499652D01*
X1498800Y878912D01*
D02*
G37*
G36*
X1306400Y882012D02*
X1305548Y881900D01*
X1304689D01*
X1303858Y881678D01*
X1303006Y881565D01*
X1302212Y881236D01*
X1301382Y881014D01*
X1300638Y880584D01*
X1299844Y880255D01*
X1299162Y879732D01*
X1298418Y879303D01*
X1297810Y878695D01*
X1297128Y878172D01*
X1296605Y877490D01*
X1295997Y876882D01*
X1295568Y876138D01*
X1295045Y875456D01*
X1294716Y874662D01*
X1294286Y873918D01*
X1294064Y873088D01*
X1293735Y872294D01*
X1293622Y871442D01*
X1293400Y870611D01*
Y869752D01*
X1293288Y868900D01*
X1293400Y868048D01*
Y867188D01*
X1293622Y866358D01*
X1293735Y865506D01*
X1294064Y864712D01*
X1294286Y863882D01*
X1294716Y863138D01*
X1295045Y862344D01*
X1295568Y861662D01*
X1295997Y860918D01*
X1296605Y860310D01*
X1297128Y859628D01*
X1334828Y821928D01*
X1334828Y821928D01*
X1337544Y819845D01*
X1340706Y818535D01*
X1344100Y818088D01*
X1386300D01*
Y813200D01*
X1432300D01*
Y849200D01*
X1386300D01*
Y844312D01*
X1349531D01*
X1315672Y878172D01*
X1314990Y878695D01*
X1314382Y879303D01*
X1313638Y879732D01*
X1312956Y880255D01*
X1312162Y880584D01*
X1311418Y881014D01*
X1310588Y881236D01*
X1309794Y881565D01*
X1308941Y881678D01*
X1308112Y881900D01*
X1307252D01*
X1306400Y882012D01*
D02*
G37*
G36*
X1608712Y768000D02*
X1605289D01*
X1601982Y767114D01*
X1599018Y765403D01*
X1596597Y762982D01*
X1594886Y760018D01*
X1594000Y756712D01*
Y753288D01*
X1594886Y749982D01*
X1596597Y747018D01*
X1599018Y744597D01*
X1601982Y742886D01*
X1605289Y742000D01*
X1608712D01*
X1612018Y742886D01*
X1614982Y744597D01*
X1617403Y747018D01*
X1619114Y749982D01*
X1620000Y753288D01*
Y756712D01*
X1619114Y760018D01*
X1617403Y762982D01*
X1614982Y765403D01*
X1612018Y767114D01*
X1608712Y768000D01*
D02*
G37*
G36*
X1661012Y767700D02*
X1657589D01*
X1654282Y766814D01*
X1651318Y765103D01*
X1648897Y762682D01*
X1647186Y759718D01*
X1646300Y756412D01*
Y752989D01*
X1647186Y749682D01*
X1648897Y746718D01*
X1651318Y744297D01*
X1654282Y742586D01*
X1657589Y741700D01*
X1661012D01*
X1664318Y742586D01*
X1667282Y744297D01*
X1669703Y746718D01*
X1671414Y749682D01*
X1672300Y752989D01*
Y756412D01*
X1671414Y759718D01*
X1669703Y762682D01*
X1667282Y765103D01*
X1664318Y766814D01*
X1661012Y767700D01*
D02*
G37*
G36*
X1333800Y711599D02*
X1310300D01*
Y691500D01*
X1345399D01*
Y700000D01*
X1345004Y703002D01*
X1343845Y705800D01*
X1342002Y708202D01*
X1339600Y710045D01*
X1336802Y711204D01*
X1333800Y711599D01*
D02*
G37*
G36*
X1307300D02*
X1283800D01*
X1280798Y711204D01*
X1278000Y710045D01*
X1275598Y708202D01*
X1273755Y705800D01*
X1272596Y703002D01*
X1272201Y700000D01*
Y691500D01*
X1307300D01*
Y711599D01*
D02*
G37*
G36*
X1853000Y808000D02*
X1747000D01*
Y752000D01*
X1777688D01*
Y688110D01*
X1445798D01*
X1445797Y688110D01*
X1442404Y687663D01*
X1439241Y686353D01*
X1436526Y684269D01*
X1436526Y684269D01*
X1400428Y648172D01*
X1398345Y645456D01*
X1397035Y642294D01*
X1396588Y638900D01*
X1396588Y638900D01*
Y616200D01*
X1387300D01*
Y580200D01*
X1433300D01*
Y616200D01*
X1422812D01*
Y633469D01*
X1451229Y661885D01*
X1915000D01*
X1918394Y662332D01*
X1921556Y663642D01*
X1924272Y665726D01*
X1926356Y668441D01*
X1927666Y671604D01*
X1928112Y674997D01*
X1927666Y678391D01*
X1926356Y681554D01*
X1924272Y684269D01*
X1921556Y686353D01*
X1918394Y687663D01*
X1915000Y688110D01*
X1803912D01*
Y752000D01*
X1853000D01*
Y808000D01*
D02*
G37*
G36*
X1345399Y688500D02*
X1310300D01*
Y668401D01*
X1333800D01*
X1336802Y668796D01*
X1339600Y669955D01*
X1342002Y671798D01*
X1343845Y674200D01*
X1345004Y676998D01*
X1345399Y680000D01*
Y688500D01*
D02*
G37*
G36*
X1307300D02*
X1272201D01*
Y680000D01*
X1272596Y676998D01*
X1273755Y674200D01*
X1275598Y671798D01*
X1278000Y669955D01*
X1280798Y668796D01*
X1283800Y668401D01*
X1307300D01*
Y688500D01*
D02*
G37*
G36*
X1237800Y713112D02*
X1187800D01*
X1184406Y712665D01*
X1181244Y711355D01*
X1178528Y709272D01*
X1176444Y706556D01*
X1175135Y703394D01*
X1174688Y700000D01*
Y680000D01*
X1175135Y676606D01*
X1176444Y673444D01*
X1178528Y670728D01*
X1181244Y668644D01*
X1184406Y667335D01*
X1187800Y666888D01*
X1237800D01*
X1241194Y667335D01*
X1244356Y668644D01*
X1247072Y670728D01*
X1249156Y673444D01*
X1250465Y676606D01*
X1250912Y680000D01*
Y700000D01*
X1250465Y703394D01*
X1249156Y706556D01*
X1247072Y709272D01*
X1244356Y711355D01*
X1241194Y712665D01*
X1237800Y713112D01*
D02*
G37*
G36*
X1919875Y637816D02*
X1910125D01*
X1908069Y637545D01*
X1906154Y636751D01*
X1904509Y635489D01*
X1903246Y633844D01*
X1902453Y631928D01*
X1902182Y629873D01*
Y620123D01*
X1902453Y618067D01*
X1903246Y616151D01*
X1904509Y614506D01*
X1906154Y613244D01*
X1908069Y612450D01*
X1910125Y612180D01*
X1919875D01*
X1921931Y612450D01*
X1923846Y613244D01*
X1925492Y614506D01*
X1926754Y616151D01*
X1927547Y618067D01*
X1927818Y620123D01*
Y629873D01*
X1927547Y631928D01*
X1926754Y633844D01*
X1925492Y635489D01*
X1923846Y636751D01*
X1921931Y637545D01*
X1919875Y637816D01*
D02*
G37*
G36*
X1016722Y595700D02*
X1014878D01*
X1013098Y595223D01*
X1011502Y594301D01*
X1011408Y594208D01*
X994952D01*
Y595500D01*
X976452D01*
Y581500D01*
X994952D01*
Y582992D01*
X1011686D01*
X1013098Y582177D01*
X1014878Y581700D01*
X1016722D01*
X1018502Y582177D01*
X1020098Y583099D01*
X1021401Y584402D01*
X1022323Y585998D01*
X1022800Y587778D01*
Y589622D01*
X1022323Y591402D01*
X1021401Y592998D01*
X1020098Y594301D01*
X1018502Y595223D01*
X1016722Y595700D01*
D02*
G37*
G36*
X850586Y595000D02*
X848743D01*
X846962Y594523D01*
X845366Y593601D01*
X845173Y593408D01*
X825216D01*
Y594600D01*
X806716D01*
Y580600D01*
X825216D01*
Y582192D01*
X845724D01*
X846962Y581477D01*
X848743Y581000D01*
X850586D01*
X852366Y581477D01*
X853962Y582399D01*
X855266Y583702D01*
X856187Y585298D01*
X856664Y587078D01*
Y588922D01*
X856187Y590702D01*
X855266Y592298D01*
X853962Y593601D01*
X852366Y594523D01*
X850586Y595000D01*
D02*
G37*
G36*
X677822Y594700D02*
X675978D01*
X674198Y594223D01*
X672602Y593301D01*
X672508Y593208D01*
X655252D01*
Y594500D01*
X636752D01*
Y580500D01*
X655252D01*
Y581992D01*
X672786D01*
X674198Y581177D01*
X675978Y580700D01*
X677822D01*
X679602Y581177D01*
X681198Y582099D01*
X682501Y583402D01*
X683423Y584998D01*
X683900Y586778D01*
Y588622D01*
X683423Y590402D01*
X682501Y591998D01*
X681198Y593301D01*
X679602Y594223D01*
X677822Y594700D01*
D02*
G37*
G36*
X507522Y594500D02*
X505678D01*
X503898Y594023D01*
X502313Y593108D01*
X485652D01*
Y594500D01*
X467152D01*
Y580500D01*
X485652D01*
Y581892D01*
X502313D01*
X503898Y580977D01*
X505678Y580500D01*
X507522D01*
X509302Y580977D01*
X510898Y581899D01*
X512201Y583202D01*
X513123Y584798D01*
X513600Y586578D01*
Y588422D01*
X513123Y590202D01*
X512201Y591798D01*
X510898Y593101D01*
X509302Y594023D01*
X507522Y594500D01*
D02*
G37*
G36*
X338222D02*
X336378D01*
X334598Y594023D01*
X333013Y593108D01*
X315252D01*
Y594500D01*
X296752D01*
Y580500D01*
X315252D01*
Y581892D01*
X333013D01*
X334598Y580977D01*
X336378Y580500D01*
X338222D01*
X340002Y580977D01*
X341598Y581899D01*
X342901Y583202D01*
X343823Y584798D01*
X344300Y586578D01*
Y588422D01*
X343823Y590202D01*
X342901Y591798D01*
X341598Y593101D01*
X340002Y594023D01*
X338222Y594500D01*
D02*
G37*
G36*
X168422D02*
X166578D01*
X164798Y594023D01*
X163213Y593108D01*
X145652D01*
Y594500D01*
X127152D01*
Y580500D01*
X145652D01*
Y581892D01*
X163213D01*
X164798Y580977D01*
X166578Y580500D01*
X168422D01*
X170202Y580977D01*
X171798Y581899D01*
X173101Y583202D01*
X174023Y584798D01*
X174500Y586578D01*
Y588422D01*
X174023Y590202D01*
X173101Y591798D01*
X171798Y593101D01*
X170202Y594023D01*
X168422Y594500D01*
D02*
G37*
G36*
X1046500Y570500D02*
X1043500D01*
Y565500D01*
X1046500D01*
Y570500D01*
D02*
G37*
G36*
X366200Y569600D02*
X363200D01*
Y564600D01*
X366200D01*
Y569600D01*
D02*
G37*
G36*
X195300D02*
X192300D01*
Y564600D01*
X195300D01*
Y569600D01*
D02*
G37*
G36*
X707200Y569500D02*
X704200D01*
Y564500D01*
X707200D01*
Y569500D01*
D02*
G37*
G36*
X876564Y569100D02*
X873564D01*
Y564100D01*
X876564D01*
Y569100D01*
D02*
G37*
G36*
X537000D02*
X534000D01*
Y564100D01*
X537000D01*
Y569100D01*
D02*
G37*
G36*
X1046500Y562500D02*
X1043500D01*
Y557500D01*
X1046500D01*
Y562500D01*
D02*
G37*
G36*
X366200Y561600D02*
X363200D01*
Y556600D01*
X366200D01*
Y561600D01*
D02*
G37*
G36*
X195300D02*
X192300D01*
Y556600D01*
X195300D01*
Y561600D01*
D02*
G37*
G36*
X707200Y561500D02*
X704200D01*
Y556500D01*
X707200D01*
Y561500D01*
D02*
G37*
G36*
X1107200Y572652D02*
X1093200D01*
Y554152D01*
X1107200D01*
Y555734D01*
X1108470Y556524D01*
X1109678Y556200D01*
X1111522D01*
X1113302Y556677D01*
X1114898Y557599D01*
X1116201Y558902D01*
X1117123Y560498D01*
X1117600Y562278D01*
Y564122D01*
X1117123Y565902D01*
X1116201Y567498D01*
X1114898Y568801D01*
X1113302Y569723D01*
X1111522Y570200D01*
X1109678D01*
X1108470Y569876D01*
X1107200Y570666D01*
Y572652D01*
D02*
G37*
G36*
X876564Y561100D02*
X873564D01*
Y556100D01*
X876564D01*
Y561100D01*
D02*
G37*
G36*
X537000D02*
X534000D01*
Y556100D01*
X537000D01*
Y561100D01*
D02*
G37*
G36*
X258000Y571652D02*
X244000D01*
Y553152D01*
X258000D01*
Y555134D01*
X259270Y555924D01*
X260478Y555600D01*
X262322D01*
X264102Y556077D01*
X265698Y556999D01*
X267001Y558302D01*
X267923Y559898D01*
X268400Y561678D01*
Y563522D01*
X267923Y565302D01*
X267001Y566898D01*
X265698Y568201D01*
X264102Y569123D01*
X262322Y569600D01*
X260478D01*
X259270Y569276D01*
X258000Y570066D01*
Y571652D01*
D02*
G37*
G36*
X767800D02*
X753800D01*
Y553152D01*
X767800D01*
Y554934D01*
X769070Y555724D01*
X770278Y555400D01*
X772122D01*
X773902Y555877D01*
X775498Y556799D01*
X776801Y558102D01*
X777723Y559698D01*
X778200Y561478D01*
Y563322D01*
X777723Y565102D01*
X776801Y566698D01*
X775498Y568001D01*
X773902Y568923D01*
X772122Y569400D01*
X770278D01*
X769070Y569076D01*
X767800Y569866D01*
Y571652D01*
D02*
G37*
G36*
X937264Y571752D02*
X923264D01*
Y553252D01*
X937264D01*
Y554626D01*
X938272Y555399D01*
X938643Y555300D01*
X940486D01*
X942266Y555777D01*
X943862Y556699D01*
X945166Y558002D01*
X946087Y559598D01*
X946564Y561378D01*
Y563222D01*
X946087Y565002D01*
X945166Y566598D01*
X943862Y567901D01*
X942266Y568823D01*
X940486Y569300D01*
X938643D01*
X938272Y569201D01*
X937264Y569974D01*
Y571752D01*
D02*
G37*
G36*
X597900Y571652D02*
X583900D01*
Y553152D01*
X597900D01*
Y554604D01*
X599170Y555543D01*
X600078Y555300D01*
X601922D01*
X603702Y555777D01*
X605298Y556699D01*
X606601Y558002D01*
X607523Y559598D01*
X608000Y561378D01*
Y563222D01*
X607523Y565002D01*
X606601Y566598D01*
X605298Y567901D01*
X603702Y568823D01*
X601922Y569300D01*
X600078D01*
X599170Y569057D01*
X597900Y569996D01*
Y571652D01*
D02*
G37*
G36*
X427900D02*
X413900D01*
Y553152D01*
X427900D01*
Y554911D01*
X429170Y555651D01*
X430478Y555300D01*
X432322D01*
X434102Y555777D01*
X435698Y556699D01*
X437001Y558002D01*
X437923Y559598D01*
X438400Y561378D01*
Y563222D01*
X437923Y565002D01*
X437001Y566598D01*
X435698Y567901D01*
X434102Y568823D01*
X432322Y569300D01*
X430478D01*
X429170Y568949D01*
X427900Y569689D01*
Y571652D01*
D02*
G37*
G36*
X1237800Y551599D02*
X1214300D01*
Y531500D01*
X1249399D01*
Y540000D01*
X1249004Y543002D01*
X1247845Y545800D01*
X1246002Y548202D01*
X1243600Y550045D01*
X1240802Y551204D01*
X1237800Y551599D01*
D02*
G37*
G36*
X1211300D02*
X1187800D01*
X1184798Y551204D01*
X1182000Y550045D01*
X1179598Y548202D01*
X1177755Y545800D01*
X1176596Y543002D01*
X1176201Y540000D01*
Y531500D01*
X1211300D01*
Y551599D01*
D02*
G37*
G36*
X825216Y574600D02*
X806716D01*
Y560600D01*
X810458D01*
Y532571D01*
X809643Y531159D01*
X809166Y529378D01*
Y527535D01*
X809643Y525755D01*
X810565Y524159D01*
X811868Y522855D01*
X813464Y521934D01*
X815244Y521457D01*
X817087D01*
X818868Y521934D01*
X820464Y522855D01*
X821767Y524159D01*
X822689Y525755D01*
X823166Y527535D01*
Y529378D01*
X822689Y531159D01*
X821767Y532755D01*
X821674Y532849D01*
Y560600D01*
X825216D01*
Y574600D01*
D02*
G37*
G36*
X1050748Y534700D02*
X1047852D01*
X1045054Y533950D01*
X1042546Y532502D01*
X1040498Y530454D01*
X1039050Y527946D01*
X1038300Y525148D01*
Y522252D01*
X1039050Y519454D01*
X1040498Y516946D01*
X1042546Y514898D01*
X1045054Y513450D01*
X1047852Y512700D01*
X1050748D01*
X1053546Y513450D01*
X1056054Y514898D01*
X1058102Y516946D01*
X1059550Y519454D01*
X1060300Y522252D01*
Y525148D01*
X1059550Y527946D01*
X1058102Y530454D01*
X1056054Y532502D01*
X1053546Y533950D01*
X1050748Y534700D01*
D02*
G37*
G36*
X1916679Y537747D02*
X1913322D01*
X1910079Y536879D01*
X1907171Y535200D01*
X1904798Y532826D01*
X1903119Y529919D01*
X1902250Y526676D01*
Y523319D01*
X1903119Y520076D01*
X1904798Y517169D01*
X1907171Y514795D01*
X1910079Y513116D01*
X1913322Y512248D01*
X1916679D01*
X1919921Y513116D01*
X1922829Y514795D01*
X1925203Y517169D01*
X1926881Y520076D01*
X1927750Y523319D01*
Y526676D01*
X1926881Y529919D01*
X1925203Y532826D01*
X1922829Y535200D01*
X1919921Y536879D01*
X1916679Y537747D01*
D02*
G37*
G36*
X880713Y533800D02*
X877816D01*
X875018Y533050D01*
X872510Y531602D01*
X870462Y529554D01*
X869014Y527046D01*
X868264Y524248D01*
Y521352D01*
X869014Y518554D01*
X870462Y516046D01*
X872510Y513998D01*
X875018Y512550D01*
X877816Y511800D01*
X880713D01*
X883510Y512550D01*
X886019Y513998D01*
X888066Y516046D01*
X889515Y518554D01*
X890264Y521352D01*
Y524248D01*
X889515Y527046D01*
X888066Y529554D01*
X886019Y531602D01*
X883510Y533050D01*
X880713Y533800D01*
D02*
G37*
G36*
X711448Y533700D02*
X708552D01*
X705754Y532950D01*
X703246Y531502D01*
X701198Y529454D01*
X699750Y526946D01*
X699000Y524148D01*
Y521252D01*
X699750Y518454D01*
X701198Y515946D01*
X703246Y513898D01*
X705754Y512450D01*
X708552Y511700D01*
X711448D01*
X714246Y512450D01*
X716754Y513898D01*
X718802Y515946D01*
X720250Y518454D01*
X721000Y521252D01*
Y524148D01*
X720250Y526946D01*
X718802Y529454D01*
X716754Y531502D01*
X714246Y532950D01*
X711448Y533700D01*
D02*
G37*
G36*
X541448D02*
X538552D01*
X535754Y532950D01*
X533246Y531502D01*
X531198Y529454D01*
X529750Y526946D01*
X529000Y524148D01*
Y521252D01*
X529750Y518454D01*
X531198Y515946D01*
X533246Y513898D01*
X535754Y512450D01*
X538552Y511700D01*
X541448D01*
X544246Y512450D01*
X546754Y513898D01*
X548802Y515946D01*
X550250Y518454D01*
X551000Y521252D01*
Y524148D01*
X550250Y526946D01*
X548802Y529454D01*
X546754Y531502D01*
X544246Y532950D01*
X541448Y533700D01*
D02*
G37*
G36*
X371448D02*
X368552D01*
X365754Y532950D01*
X363246Y531502D01*
X361198Y529454D01*
X359750Y526946D01*
X359000Y524148D01*
Y521252D01*
X359750Y518454D01*
X361198Y515946D01*
X363246Y513898D01*
X365754Y512450D01*
X368552Y511700D01*
X371448D01*
X374246Y512450D01*
X376754Y513898D01*
X378802Y515946D01*
X380250Y518454D01*
X381000Y521252D01*
Y524148D01*
X380250Y526946D01*
X378802Y529454D01*
X376754Y531502D01*
X374246Y532950D01*
X371448Y533700D01*
D02*
G37*
G36*
X201448D02*
X198552D01*
X195754Y532950D01*
X193246Y531502D01*
X191198Y529454D01*
X189750Y526946D01*
X189000Y524148D01*
Y521252D01*
X189750Y518454D01*
X191198Y515946D01*
X193246Y513898D01*
X195754Y512450D01*
X198552Y511700D01*
X201448D01*
X204246Y512450D01*
X206754Y513898D01*
X208802Y515946D01*
X210250Y518454D01*
X211000Y521252D01*
Y524148D01*
X210250Y526946D01*
X208802Y529454D01*
X206754Y531502D01*
X204246Y532950D01*
X201448Y533700D01*
D02*
G37*
G36*
X1249399Y528500D02*
X1214300D01*
Y508401D01*
X1237800D01*
X1240802Y508796D01*
X1243600Y509955D01*
X1246002Y511798D01*
X1247845Y514200D01*
X1249004Y516998D01*
X1249399Y520000D01*
Y528500D01*
D02*
G37*
G36*
X1211300D02*
X1176201D01*
Y520000D01*
X1176596Y516998D01*
X1177755Y514200D01*
X1179598Y511798D01*
X1182000Y509955D01*
X1184798Y508796D01*
X1187800Y508401D01*
X1211300D01*
Y528500D01*
D02*
G37*
G36*
X1050748Y509300D02*
X1047852D01*
X1045054Y508550D01*
X1042546Y507102D01*
X1040498Y505054D01*
X1039050Y502546D01*
X1038300Y499748D01*
Y496852D01*
X1039050Y494054D01*
X1040498Y491546D01*
X1042546Y489498D01*
X1045054Y488050D01*
X1047852Y487300D01*
X1050748D01*
X1053546Y488050D01*
X1056054Y489498D01*
X1056888Y490332D01*
X1074800D01*
Y489252D01*
X1088800D01*
Y494496D01*
X1089594Y496413D01*
X1089869Y498502D01*
X1089594Y500590D01*
X1088800Y502507D01*
Y507752D01*
X1074800D01*
Y506470D01*
X1056686D01*
X1056054Y507102D01*
X1053546Y508550D01*
X1050748Y509300D01*
D02*
G37*
G36*
X880713Y508400D02*
X877816D01*
X875018Y507650D01*
X872510Y506202D01*
X870462Y504154D01*
X869014Y501646D01*
X868264Y498848D01*
Y495952D01*
X869014Y493154D01*
X870462Y490646D01*
X872510Y488598D01*
X875018Y487150D01*
X877816Y486400D01*
X880713D01*
X883510Y487150D01*
X886019Y488598D01*
X886852Y489432D01*
X905944D01*
Y488352D01*
X919944D01*
Y493739D01*
X920638Y495412D01*
X920913Y497501D01*
X920638Y499589D01*
X919944Y501263D01*
Y506852D01*
X905944D01*
Y505570D01*
X886651D01*
X886019Y506202D01*
X883510Y507650D01*
X880713Y508400D01*
D02*
G37*
G36*
X711448Y508300D02*
X708552D01*
X705754Y507550D01*
X703246Y506102D01*
X701198Y504054D01*
X699750Y501546D01*
X699000Y498748D01*
Y495852D01*
X699750Y493054D01*
X701198Y490546D01*
X703246Y488498D01*
X705754Y487050D01*
X708552Y486300D01*
X711448D01*
X714246Y487050D01*
X716754Y488498D01*
X717588Y489332D01*
X737600D01*
Y488252D01*
X751600D01*
Y493496D01*
X752394Y495413D01*
X752669Y497502D01*
X752394Y499590D01*
X751600Y501507D01*
Y506752D01*
X737600D01*
Y505470D01*
X717386D01*
X716754Y506102D01*
X714246Y507550D01*
X711448Y508300D01*
D02*
G37*
G36*
X541448D02*
X538552D01*
X535754Y507550D01*
X533246Y506102D01*
X531198Y504054D01*
X529750Y501546D01*
X529000Y498748D01*
Y495852D01*
X529750Y493054D01*
X531198Y490546D01*
X533246Y488498D01*
X535754Y487050D01*
X538552Y486300D01*
X541448D01*
X544246Y487050D01*
X546754Y488498D01*
X547588Y489332D01*
X569900D01*
Y488252D01*
X583900D01*
Y493496D01*
X584694Y495413D01*
X584969Y497502D01*
X584694Y499590D01*
X583900Y501507D01*
Y506752D01*
X569900D01*
Y505470D01*
X547387D01*
X546754Y506102D01*
X544246Y507550D01*
X541448Y508300D01*
D02*
G37*
G36*
X371448D02*
X368552D01*
X365754Y507550D01*
X363246Y506102D01*
X361198Y504054D01*
X359750Y501546D01*
X359000Y498748D01*
Y495852D01*
X359750Y493054D01*
X361198Y490546D01*
X363246Y488498D01*
X365754Y487050D01*
X368552Y486300D01*
X371448D01*
X374246Y487050D01*
X376754Y488498D01*
X377487Y489231D01*
X400063D01*
Y488252D01*
X414063D01*
Y493781D01*
X414656Y495212D01*
X414931Y497300D01*
X414656Y499388D01*
X414063Y500819D01*
Y506752D01*
X400063D01*
Y505369D01*
X377487D01*
X376754Y506102D01*
X374246Y507550D01*
X371448Y508300D01*
D02*
G37*
G36*
X201448D02*
X198552D01*
X195754Y507550D01*
X193246Y506102D01*
X191198Y504054D01*
X189750Y501546D01*
X189000Y498748D01*
Y495852D01*
X189750Y493054D01*
X191198Y490546D01*
X193246Y488498D01*
X195754Y487050D01*
X198552Y486300D01*
X201448D01*
X204246Y487050D01*
X206754Y488498D01*
X207588Y489332D01*
X229500D01*
Y488252D01*
X243500D01*
Y493496D01*
X244294Y495413D01*
X244569Y497502D01*
X244294Y499590D01*
X243500Y501507D01*
Y506752D01*
X229500D01*
Y505470D01*
X207386D01*
X206754Y506102D01*
X204246Y507550D01*
X201448Y508300D01*
D02*
G37*
G36*
X1919875Y486372D02*
X1916500D01*
Y476498D01*
X1926375D01*
Y479873D01*
X1925880Y482360D01*
X1924471Y484469D01*
X1922363Y485878D01*
X1919875Y486372D01*
D02*
G37*
G36*
X1913500D02*
X1910125D01*
X1907638Y485878D01*
X1905529Y484469D01*
X1904120Y482360D01*
X1903625Y479873D01*
Y476498D01*
X1913500D01*
Y486372D01*
D02*
G37*
G36*
X1926375Y473498D02*
X1916500D01*
Y463623D01*
X1919875D01*
X1922363Y464118D01*
X1924471Y465527D01*
X1925880Y467635D01*
X1926375Y470123D01*
Y473498D01*
D02*
G37*
G36*
X1913500D02*
X1903625D01*
Y470123D01*
X1904120Y467635D01*
X1905529Y465527D01*
X1907638Y464118D01*
X1910125Y463623D01*
X1913500D01*
Y473498D01*
D02*
G37*
G36*
X994952Y575500D02*
X976452D01*
Y561500D01*
X980593D01*
Y479300D01*
X981020Y477154D01*
X982236Y475335D01*
X983093Y474477D01*
Y469069D01*
X982477Y468002D01*
X982000Y466222D01*
Y464378D01*
X982477Y462598D01*
X983399Y461002D01*
X984702Y459699D01*
X986298Y458777D01*
X988078Y458300D01*
X989922D01*
X991702Y458777D01*
X993298Y459699D01*
X994601Y461002D01*
X995523Y462598D01*
X996000Y464378D01*
Y466222D01*
X995523Y468002D01*
X994601Y469598D01*
X994309Y469891D01*
Y476800D01*
X993882Y478946D01*
X992666Y480765D01*
X991809Y481623D01*
Y561500D01*
X994952D01*
Y575500D01*
D02*
G37*
G36*
X1145948Y424400D02*
X1139698D01*
Y420400D01*
X1145948D01*
Y424400D01*
D02*
G37*
G36*
X1136698D02*
X1130448D01*
Y420400D01*
X1136698D01*
Y424400D01*
D02*
G37*
G36*
X1145948Y417400D02*
X1139698D01*
Y413400D01*
X1145948D01*
Y417400D01*
D02*
G37*
G36*
X1136698D02*
X1130448D01*
Y413400D01*
X1136698D01*
Y417400D01*
D02*
G37*
G36*
X655252Y574500D02*
X636752D01*
Y560500D01*
X640394D01*
Y492098D01*
X640821Y489952D01*
X642036Y488133D01*
X658735Y471435D01*
X660554Y470219D01*
X662700Y469792D01*
X735777D01*
X806792Y398777D01*
Y396111D01*
X805522Y395908D01*
X735165Y466265D01*
X733346Y467481D01*
X731200Y467908D01*
X514723D01*
X482009Y500621D01*
Y560500D01*
X485652D01*
Y574500D01*
X467152D01*
Y560500D01*
X470794D01*
Y498298D01*
X471221Y496152D01*
X472436Y494333D01*
X508435Y458335D01*
X510254Y457119D01*
X510965Y456978D01*
X510840Y455708D01*
X338291D01*
X311609Y482389D01*
Y560500D01*
X315252D01*
Y574500D01*
X296752D01*
Y560500D01*
X300394D01*
Y480067D01*
X300821Y477921D01*
X302036Y476101D01*
X332003Y446135D01*
X333822Y444919D01*
X335968Y444492D01*
X724277D01*
X784792Y383977D01*
Y284100D01*
X785219Y281954D01*
X786435Y280135D01*
X856903Y209666D01*
X857377Y207898D01*
X858299Y206302D01*
X859602Y204999D01*
X861198Y204077D01*
X862978Y203600D01*
X864822D01*
X866602Y204077D01*
X868198Y204999D01*
X869501Y206302D01*
X870423Y207898D01*
X870900Y209678D01*
Y210073D01*
X872170Y210599D01*
X919192Y163577D01*
Y97400D01*
X919619Y95254D01*
X920835Y93435D01*
X935260Y79010D01*
X937079Y77794D01*
X939225Y77367D01*
X949602D01*
X951327Y74379D01*
X953934Y71772D01*
X957126Y69929D01*
X960687Y68975D01*
X964373D01*
X967934Y69929D01*
X971126Y71772D01*
X973733Y74379D01*
X975576Y77571D01*
X976530Y81132D01*
Y84818D01*
X975576Y88379D01*
X973733Y91571D01*
X971126Y94178D01*
X969594Y95063D01*
Y96333D01*
X971126Y97217D01*
X973733Y99824D01*
X975576Y103016D01*
X976530Y106577D01*
Y110263D01*
X975576Y113824D01*
X973733Y117016D01*
X971126Y119623D01*
X969594Y120507D01*
Y121777D01*
X971126Y122662D01*
X973733Y125269D01*
X975576Y128461D01*
X976530Y132022D01*
Y135708D01*
X975576Y139269D01*
X973733Y142461D01*
X971126Y145068D01*
X969594Y145953D01*
Y147222D01*
X971126Y148107D01*
X973733Y150714D01*
X975576Y153906D01*
X975795Y154723D01*
X983947D01*
X1000092Y138577D01*
Y77000D01*
X1000519Y74854D01*
X1001735Y73035D01*
X1051935Y22835D01*
X1053754Y21619D01*
X1055900Y21192D01*
X1643600D01*
X1645746Y21619D01*
X1647565Y22835D01*
X1685623Y60892D01*
X1716252D01*
Y59500D01*
X1734752D01*
Y73500D01*
X1716252D01*
Y72108D01*
X1683300D01*
X1681154Y71681D01*
X1679335Y70465D01*
X1641277Y32408D01*
X1058223D01*
X1011308Y79323D01*
Y140900D01*
X1010881Y143046D01*
X1009665Y144865D01*
X990235Y164296D01*
X988415Y165511D01*
X986269Y165938D01*
X974869D01*
X973733Y167906D01*
X971126Y170513D01*
X969594Y171397D01*
Y172668D01*
X971126Y173552D01*
X973733Y176159D01*
X975576Y179351D01*
X976530Y182912D01*
Y186598D01*
X975576Y190159D01*
X973733Y193351D01*
X971126Y195958D01*
X969594Y196842D01*
Y198113D01*
X971126Y198997D01*
X973733Y201604D01*
X975576Y204796D01*
X976530Y208357D01*
Y212043D01*
X975576Y215604D01*
X973733Y218796D01*
X971126Y221403D01*
X969594Y222288D01*
Y223557D01*
X971126Y224442D01*
X973733Y227049D01*
X975531Y230164D01*
X1003000D01*
Y226648D01*
X1017000D01*
Y231893D01*
X1017794Y233810D01*
X1018069Y235898D01*
X1017794Y237987D01*
X1017000Y239904D01*
Y245148D01*
X1003000D01*
Y241380D01*
X975385D01*
X973733Y244241D01*
X971126Y246848D01*
X969594Y247733D01*
Y249002D01*
X971126Y249887D01*
X973733Y252494D01*
X975201Y255037D01*
X1003000D01*
Y250948D01*
X1017000D01*
Y256193D01*
X1017794Y258110D01*
X1018069Y260198D01*
X1017794Y262287D01*
X1017000Y264204D01*
Y269448D01*
X1003000D01*
Y266252D01*
X975641D01*
X975576Y266494D01*
X973733Y269686D01*
X971126Y272293D01*
X969594Y273178D01*
Y274447D01*
X971126Y275332D01*
X973733Y277939D01*
X975246Y280559D01*
X1003000D01*
Y276548D01*
X1017000D01*
Y281793D01*
X1017794Y283710D01*
X1018069Y285798D01*
X1017794Y287887D01*
X1017000Y289804D01*
Y295048D01*
X1003000D01*
Y291774D01*
X975620D01*
X975576Y291939D01*
X973733Y295131D01*
X971126Y297738D01*
X969594Y298622D01*
Y299893D01*
X971126Y300777D01*
X973733Y303384D01*
X975576Y306576D01*
X975618Y306731D01*
X1003000D01*
Y303448D01*
X1017000D01*
Y321948D01*
X1003000D01*
Y317947D01*
X975251D01*
X973733Y320576D01*
X971126Y323183D01*
X969594Y324067D01*
Y325337D01*
X971126Y326222D01*
X973733Y328829D01*
X975458Y331817D01*
X1003000D01*
Y328175D01*
X1017000D01*
Y346675D01*
X1003000D01*
Y343033D01*
X975458D01*
X973733Y346021D01*
X971126Y348628D01*
X968264Y350280D01*
X968118Y351313D01*
X968205Y351713D01*
X970205Y352868D01*
X972533Y355195D01*
X974178Y358045D01*
X975030Y361224D01*
Y361370D01*
X962530D01*
X950030D01*
Y361224D01*
X950882Y358045D01*
X952527Y355195D01*
X954855Y352868D01*
X956855Y351713D01*
X956942Y351313D01*
X956796Y350280D01*
X954738Y349092D01*
X944814Y359017D01*
X942995Y360232D01*
X940848Y360659D01*
X897929D01*
X895783Y360232D01*
X893964Y359017D01*
X885536Y350589D01*
X884321Y348770D01*
X883894Y346624D01*
Y344083D01*
X880252D01*
Y342549D01*
X878348D01*
X877945Y343247D01*
X875990Y345202D01*
X873596Y346584D01*
X870926Y347300D01*
X868161D01*
X865490Y346584D01*
X863096Y345202D01*
X861141Y343247D01*
X859759Y340853D01*
X859622Y340341D01*
X858352Y340508D01*
Y344800D01*
X854709D01*
Y384679D01*
X903628Y433597D01*
X949602D01*
X951327Y430609D01*
X953934Y428002D01*
X955466Y427118D01*
Y425848D01*
X953934Y424963D01*
X951327Y422356D01*
X949484Y419164D01*
X948530Y415603D01*
Y411917D01*
X949484Y408356D01*
X951327Y405164D01*
X953934Y402557D01*
X955466Y401673D01*
Y400402D01*
X953934Y399518D01*
X951327Y396911D01*
X949484Y393719D01*
X948530Y390158D01*
Y386472D01*
X949484Y382911D01*
X951327Y379719D01*
X953934Y377112D01*
X956796Y375460D01*
X956942Y374427D01*
X956855Y374027D01*
X954855Y372873D01*
X952527Y370545D01*
X950882Y367695D01*
X950030Y364516D01*
Y364370D01*
X962530D01*
X975030D01*
Y364516D01*
X974178Y367695D01*
X972533Y370545D01*
X970205Y372873D01*
X968205Y374027D01*
X968118Y374427D01*
X968264Y375460D01*
X971126Y377112D01*
X973733Y379719D01*
X975576Y382911D01*
X976530Y386472D01*
Y390158D01*
X975576Y393719D01*
X973733Y396911D01*
X971126Y399518D01*
X969594Y400402D01*
Y401673D01*
X971126Y402557D01*
X973733Y405164D01*
X974863Y407122D01*
X1002700D01*
Y404948D01*
X1012377D01*
X1013110Y403678D01*
X1012777Y403102D01*
X1012303Y401334D01*
X1008518Y397548D01*
X1003000D01*
Y379048D01*
X1017000D01*
Y389257D01*
X1017108Y389798D01*
Y390277D01*
X1020234Y393403D01*
X1021730Y393804D01*
X1023000Y393164D01*
Y379048D01*
X1024392D01*
Y367157D01*
X1023477Y365572D01*
X1023000Y363792D01*
Y361949D01*
X1023477Y360168D01*
X1024392Y358583D01*
Y346675D01*
X1023000D01*
Y328175D01*
X1024392D01*
Y321948D01*
X1023000D01*
Y303448D01*
X1024392D01*
Y295048D01*
X1023000D01*
Y276548D01*
X1024392D01*
Y269448D01*
X1023000D01*
Y250948D01*
X1024392D01*
Y245148D01*
X1023000D01*
Y226648D01*
X1037000D01*
Y245148D01*
X1035608D01*
Y250948D01*
X1037000D01*
Y269448D01*
X1035608D01*
Y276548D01*
X1037000D01*
Y295048D01*
X1035608D01*
Y303448D01*
X1037000D01*
Y321948D01*
X1035608D01*
Y328175D01*
X1037000D01*
Y346675D01*
X1035608D01*
Y358583D01*
X1036523Y360168D01*
X1037000Y361949D01*
Y363792D01*
X1036523Y365572D01*
X1035608Y367157D01*
Y379048D01*
X1037000D01*
Y388569D01*
X1046325Y397895D01*
X1047541Y399714D01*
X1047968Y401860D01*
Y425140D01*
X1047541Y427286D01*
X1046325Y429105D01*
X1037000Y438431D01*
Y448363D01*
X1023000D01*
Y429863D01*
X1029706D01*
X1034948Y424622D01*
X1034462Y423448D01*
X1022700D01*
Y411731D01*
X1018366Y407397D01*
X1017708Y407220D01*
X1016700Y407993D01*
Y423448D01*
X1002700D01*
Y418337D01*
X975798D01*
X975576Y419164D01*
X973733Y422356D01*
X971126Y424963D01*
X969594Y425848D01*
Y427118D01*
X971126Y428002D01*
X973733Y430609D01*
X975576Y433801D01*
X975600Y433892D01*
X1003000D01*
Y429863D01*
X1017000D01*
Y448363D01*
X1003000D01*
Y445108D01*
X975288D01*
X973733Y447801D01*
X971126Y450408D01*
X967934Y452251D01*
X964373Y453205D01*
X960687D01*
X957126Y452251D01*
X953934Y450408D01*
X951327Y447801D01*
X949602Y444813D01*
X901305D01*
X899159Y444386D01*
X897340Y443170D01*
X845136Y390967D01*
X843921Y389148D01*
X843494Y387002D01*
Y344800D01*
X839852D01*
Y343208D01*
X837787D01*
X837302Y344047D01*
X835347Y346002D01*
X832953Y347384D01*
X830282Y348100D01*
X827518D01*
X824847Y347384D01*
X822453Y346002D01*
X820498Y344047D01*
X819278Y341934D01*
X818008Y342227D01*
Y401100D01*
X817581Y403246D01*
X816365Y405065D01*
X742065Y479365D01*
X740246Y480581D01*
X738100Y481008D01*
X665023D01*
X651609Y494421D01*
Y560500D01*
X655252D01*
Y574500D01*
D02*
G37*
G36*
X145652D02*
X127152D01*
Y560500D01*
X130792D01*
Y514100D01*
X131219Y511954D01*
X132435Y510135D01*
X210335Y432235D01*
X212154Y431019D01*
X214300Y430592D01*
X717477D01*
X767703Y380366D01*
X768177Y378598D01*
X769099Y377002D01*
X770402Y375699D01*
X771998Y374777D01*
X773778Y374300D01*
X775622D01*
X777402Y374777D01*
X778998Y375699D01*
X780301Y377002D01*
X781223Y378598D01*
X781700Y380378D01*
Y382222D01*
X781223Y384002D01*
X780301Y385598D01*
X778998Y386901D01*
X777402Y387823D01*
X775634Y388297D01*
X723765Y440165D01*
X721946Y441381D01*
X719800Y441808D01*
X216623D01*
X142008Y516423D01*
Y560500D01*
X145652D01*
Y574500D01*
D02*
G37*
G36*
X1916679Y387747D02*
X1913322D01*
X1910079Y386879D01*
X1907171Y385200D01*
X1904798Y382826D01*
X1903119Y379919D01*
X1902250Y376676D01*
Y373319D01*
X1903119Y370076D01*
X1904798Y367169D01*
X1907171Y364795D01*
X1910079Y363116D01*
X1913322Y362248D01*
X1916679D01*
X1919921Y363116D01*
X1922829Y364795D01*
X1925203Y367169D01*
X1926881Y370076D01*
X1927750Y373319D01*
Y376676D01*
X1926881Y379919D01*
X1925203Y382826D01*
X1922829Y385200D01*
X1919921Y386879D01*
X1916679Y387747D01*
D02*
G37*
G36*
X1919875Y336372D02*
X1916500D01*
Y326498D01*
X1926375D01*
Y329873D01*
X1925880Y332360D01*
X1924471Y334469D01*
X1922363Y335878D01*
X1919875Y336372D01*
D02*
G37*
G36*
X1913500D02*
X1910125D01*
X1907638Y335878D01*
X1905529Y334469D01*
X1904120Y332360D01*
X1903625Y329873D01*
Y326498D01*
X1913500D01*
Y336372D01*
D02*
G37*
G36*
X1926375Y323498D02*
X1916500D01*
Y313623D01*
X1919875D01*
X1922363Y314118D01*
X1924471Y315527D01*
X1925880Y317635D01*
X1926375Y320123D01*
Y323498D01*
D02*
G37*
G36*
X1913500D02*
X1903625D01*
Y320123D01*
X1904120Y317635D01*
X1905529Y315527D01*
X1907638Y314118D01*
X1910125Y313623D01*
X1913500D01*
Y323498D01*
D02*
G37*
G36*
X1481300Y616200D02*
X1435300D01*
Y580200D01*
X1445188D01*
Y572747D01*
X1441153Y568712D01*
X1349400D01*
X1346006Y568265D01*
X1342844Y566955D01*
X1340128Y564872D01*
X1328369Y553112D01*
X1283800D01*
X1280406Y552665D01*
X1277244Y551356D01*
X1274528Y549272D01*
X1272445Y546556D01*
X1271135Y543394D01*
X1270688Y540000D01*
Y520000D01*
X1271135Y516606D01*
X1272445Y513444D01*
X1274528Y510728D01*
X1277244Y508645D01*
X1280406Y507335D01*
X1283800Y506888D01*
X1300731D01*
Y492542D01*
X1255463Y447274D01*
X1126707D01*
X1126403Y447801D01*
X1123796Y450408D01*
X1120604Y452251D01*
X1117043Y453205D01*
X1113357D01*
X1109796Y452251D01*
X1106604Y450408D01*
X1103997Y447801D01*
X1102154Y444609D01*
X1101200Y441048D01*
Y437362D01*
X1102154Y433801D01*
X1103997Y430609D01*
X1106604Y428002D01*
X1109466Y426350D01*
X1109612Y425317D01*
X1109525Y424917D01*
X1107525Y423763D01*
X1105198Y421435D01*
X1103552Y418585D01*
X1102700Y415406D01*
Y415260D01*
X1115200D01*
X1127700D01*
Y415406D01*
X1126848Y418585D01*
X1125202Y421435D01*
X1122875Y423763D01*
X1120875Y424917D01*
X1120788Y425317D01*
X1120934Y426350D01*
X1123796Y428002D01*
X1126403Y430609D01*
X1126707Y431136D01*
X1258805D01*
X1260893Y431411D01*
X1262840Y432217D01*
X1264511Y433499D01*
X1314506Y483494D01*
X1315788Y485165D01*
X1316594Y487112D01*
X1316869Y489200D01*
Y506888D01*
X1333800D01*
X1337194Y507335D01*
X1340356Y508645D01*
X1343072Y510728D01*
X1345155Y513444D01*
X1346465Y516606D01*
X1346912Y520000D01*
Y534569D01*
X1354831Y542488D01*
X1446584D01*
X1446584Y542488D01*
X1449978Y542935D01*
X1453140Y544244D01*
X1455856Y546328D01*
X1467572Y558044D01*
X1469655Y560760D01*
X1470965Y563922D01*
X1471412Y567316D01*
X1471412Y567316D01*
Y580200D01*
X1481300D01*
Y589788D01*
X1557588D01*
Y292000D01*
X1558035Y288606D01*
X1559344Y285444D01*
X1561428Y282728D01*
X1564144Y280644D01*
X1567306Y279335D01*
X1570700Y278888D01*
X1574094Y279335D01*
X1577256Y280644D01*
X1579972Y282728D01*
X1582056Y285444D01*
X1583365Y288606D01*
X1583812Y292000D01*
Y589788D01*
X1696700D01*
X1700094Y590235D01*
X1703256Y591544D01*
X1705972Y593628D01*
X1708056Y596344D01*
X1709365Y599506D01*
X1709812Y602900D01*
X1709365Y606294D01*
X1708056Y609456D01*
X1705972Y612172D01*
X1703256Y614255D01*
X1700094Y615565D01*
X1696700Y616012D01*
X1578300D01*
X1578300Y616012D01*
X1578300Y616012D01*
X1481300D01*
Y616200D01*
D02*
G37*
G36*
X1403922Y382000D02*
X1402078D01*
X1400298Y381523D01*
X1398702Y380601D01*
X1397399Y379298D01*
X1396477Y377702D01*
X1396000Y375922D01*
Y375331D01*
X1281277Y260608D01*
X1219148D01*
Y262000D01*
X1200648D01*
Y248000D01*
X1219148D01*
Y249392D01*
X1283600D01*
X1285746Y249819D01*
X1287565Y251035D01*
X1404754Y368223D01*
X1405702Y368477D01*
X1407298Y369399D01*
X1408601Y370702D01*
X1409523Y372298D01*
X1410000Y374078D01*
Y375922D01*
X1409523Y377702D01*
X1408601Y379298D01*
X1407298Y380601D01*
X1405702Y381523D01*
X1403922Y382000D01*
D02*
G37*
G36*
X1181652Y260500D02*
X1175402D01*
Y256500D01*
X1181652D01*
Y260500D01*
D02*
G37*
G36*
X1172402D02*
X1166152D01*
Y256500D01*
X1172402D01*
Y260500D01*
D02*
G37*
G36*
X1181652Y253500D02*
X1175402D01*
Y249500D01*
X1181652D01*
Y253500D01*
D02*
G37*
G36*
X1172402D02*
X1166152D01*
Y249500D01*
X1172402D01*
Y253500D01*
D02*
G37*
G36*
X1127700Y412260D02*
X1115200D01*
X1102700D01*
Y412114D01*
X1103552Y408935D01*
X1105198Y406085D01*
X1107525Y403758D01*
X1109525Y402603D01*
X1109612Y402203D01*
X1109466Y401170D01*
X1106604Y399518D01*
X1103997Y396911D01*
X1102154Y393719D01*
X1101200Y390158D01*
Y386472D01*
X1102154Y382911D01*
X1103997Y379719D01*
X1106604Y377112D01*
X1108136Y376227D01*
Y374958D01*
X1106604Y374073D01*
X1103997Y371466D01*
X1102154Y368274D01*
X1101200Y364713D01*
Y361027D01*
X1102154Y357466D01*
X1103997Y354274D01*
X1106604Y351667D01*
X1108136Y350783D01*
Y349512D01*
X1106604Y348628D01*
X1103997Y346021D01*
X1102154Y342829D01*
X1101200Y339268D01*
Y335582D01*
X1102154Y332021D01*
X1103997Y328829D01*
X1106604Y326222D01*
X1108136Y325337D01*
Y324067D01*
X1106604Y323183D01*
X1103997Y320576D01*
X1102154Y317384D01*
X1101200Y313823D01*
Y310137D01*
X1102154Y306576D01*
X1103997Y303384D01*
X1106604Y300777D01*
X1108136Y299893D01*
Y298622D01*
X1106604Y297738D01*
X1103997Y295131D01*
X1102154Y291939D01*
X1101200Y288378D01*
Y284692D01*
X1102154Y281131D01*
X1103997Y277939D01*
X1106604Y275332D01*
X1108136Y274447D01*
Y273178D01*
X1106604Y272293D01*
X1103997Y269686D01*
X1102154Y266494D01*
X1101200Y262933D01*
Y259247D01*
X1102154Y255686D01*
X1103997Y252494D01*
X1106604Y249887D01*
X1108136Y249002D01*
Y247733D01*
X1106604Y246848D01*
X1103997Y244241D01*
X1102154Y241049D01*
X1101200Y237488D01*
Y233802D01*
X1102154Y230241D01*
X1103997Y227049D01*
X1106604Y224442D01*
X1108136Y223557D01*
Y222288D01*
X1106604Y221403D01*
X1103997Y218796D01*
X1102154Y215604D01*
X1101200Y212043D01*
Y208357D01*
X1102154Y204796D01*
X1103997Y201604D01*
X1106604Y198997D01*
X1108136Y198113D01*
Y196842D01*
X1106604Y195958D01*
X1103997Y193351D01*
X1102154Y190159D01*
X1101200Y186598D01*
Y182912D01*
X1102154Y179351D01*
X1103997Y176159D01*
X1106604Y173552D01*
X1108136Y172668D01*
Y171397D01*
X1106604Y170513D01*
X1103997Y167906D01*
X1102154Y164714D01*
X1101200Y161153D01*
Y157467D01*
X1102154Y153906D01*
X1103997Y150714D01*
X1106604Y148107D01*
X1108136Y147222D01*
Y145953D01*
X1106604Y145068D01*
X1103997Y142461D01*
X1102154Y139269D01*
X1101200Y135708D01*
Y132022D01*
X1102154Y128461D01*
X1103997Y125269D01*
X1106604Y122662D01*
X1108136Y121777D01*
Y120507D01*
X1106604Y119623D01*
X1103997Y117016D01*
X1102154Y113824D01*
X1101200Y110263D01*
Y106577D01*
X1102154Y103016D01*
X1103997Y99824D01*
X1106604Y97217D01*
X1108136Y96333D01*
Y95063D01*
X1106604Y94178D01*
X1103997Y91571D01*
X1102154Y88379D01*
X1101200Y84818D01*
Y81132D01*
X1102154Y77571D01*
X1103997Y74379D01*
X1106604Y71772D01*
X1109796Y69929D01*
X1113357Y68975D01*
X1117043D01*
X1120604Y69929D01*
X1123796Y71772D01*
X1126403Y74379D01*
X1128246Y77571D01*
X1129200Y81132D01*
Y84818D01*
X1128246Y88379D01*
X1126403Y91571D01*
X1123796Y94178D01*
X1122264Y95063D01*
Y96333D01*
X1123796Y97217D01*
X1126403Y99824D01*
X1128246Y103016D01*
X1129200Y106577D01*
Y110263D01*
X1128246Y113824D01*
X1126403Y117016D01*
X1123796Y119623D01*
X1122264Y120507D01*
Y121777D01*
X1123796Y122662D01*
X1126403Y125269D01*
X1128246Y128461D01*
X1129200Y132022D01*
Y135708D01*
X1128246Y139269D01*
X1126403Y142461D01*
X1123796Y145068D01*
X1122264Y145953D01*
Y147222D01*
X1123796Y148107D01*
X1126403Y150714D01*
X1128246Y153906D01*
X1129200Y157467D01*
Y161153D01*
X1128246Y164714D01*
X1126403Y167906D01*
X1123796Y170513D01*
X1122264Y171397D01*
Y172668D01*
X1123796Y173552D01*
X1126403Y176159D01*
X1128246Y179351D01*
X1129200Y182912D01*
Y186598D01*
X1128246Y190159D01*
X1126403Y193351D01*
X1123796Y195958D01*
X1122264Y196842D01*
Y198113D01*
X1123796Y198997D01*
X1126403Y201604D01*
X1128128Y204592D01*
X1142877D01*
X1157633Y189836D01*
X1159452Y188621D01*
X1161598Y188194D01*
X1170630D01*
Y184552D01*
X1171030D01*
Y167548D01*
X1170930D01*
Y149048D01*
X1184930D01*
Y166848D01*
X1185030D01*
Y185348D01*
X1184630D01*
Y203052D01*
X1170630D01*
Y199409D01*
X1163921D01*
X1149165Y214165D01*
X1147346Y215381D01*
X1145200Y215808D01*
X1128128D01*
X1126403Y218796D01*
X1123796Y221403D01*
X1122264Y222288D01*
Y223557D01*
X1123796Y224442D01*
X1126403Y227049D01*
X1127942Y229715D01*
X1164652D01*
Y228000D01*
X1183152D01*
Y229715D01*
X1200648D01*
Y228000D01*
X1219148D01*
Y242000D01*
X1200648D01*
Y240930D01*
X1183152D01*
Y242000D01*
X1164652D01*
Y240930D01*
X1128278D01*
X1128246Y241049D01*
X1126403Y244241D01*
X1123796Y246848D01*
X1122264Y247733D01*
Y249002D01*
X1123796Y249887D01*
X1126403Y252494D01*
X1128246Y255686D01*
X1129200Y259247D01*
Y262933D01*
X1128246Y266494D01*
X1126403Y269686D01*
X1123796Y272293D01*
X1122264Y273178D01*
Y274447D01*
X1123796Y275332D01*
X1126403Y277939D01*
X1128246Y281131D01*
X1129200Y284692D01*
Y288378D01*
X1128246Y291939D01*
X1126403Y295131D01*
X1123796Y297738D01*
X1122264Y298622D01*
Y299893D01*
X1123796Y300777D01*
X1126403Y303384D01*
X1128246Y306576D01*
X1129200Y310137D01*
Y313823D01*
X1128246Y317384D01*
X1126403Y320576D01*
X1123796Y323183D01*
X1122264Y324067D01*
Y325337D01*
X1123796Y326222D01*
X1126403Y328829D01*
X1128246Y332021D01*
X1129200Y335582D01*
Y339268D01*
X1128246Y342829D01*
X1126403Y346021D01*
X1123796Y348628D01*
X1122264Y349512D01*
Y350783D01*
X1123796Y351667D01*
X1126403Y354274D01*
X1128246Y357466D01*
X1129200Y361027D01*
Y364713D01*
X1128246Y368274D01*
X1126403Y371466D01*
X1123796Y374073D01*
X1122264Y374958D01*
Y376227D01*
X1123796Y377112D01*
X1126403Y379719D01*
X1128246Y382911D01*
X1129200Y386472D01*
Y390158D01*
X1128246Y393719D01*
X1126403Y396911D01*
X1123796Y399518D01*
X1120934Y401170D01*
X1120788Y402203D01*
X1120875Y402603D01*
X1122875Y403758D01*
X1125202Y406085D01*
X1126848Y408935D01*
X1127700Y412114D01*
Y412260D01*
D02*
G37*
G36*
X1338727Y214800D02*
X1336884D01*
X1335104Y214323D01*
X1333508Y213401D01*
X1332204Y212098D01*
X1331283Y210502D01*
X1330809Y208734D01*
X1321485Y199409D01*
X1204630D01*
Y203052D01*
X1190630D01*
Y184552D01*
X1191030D01*
Y166848D01*
X1191491D01*
X1192430Y166048D01*
X1192430Y165578D01*
Y159798D01*
X1203430D01*
Y165578D01*
X1203430Y166048D01*
X1204369Y166848D01*
X1205030D01*
Y170491D01*
X1220079D01*
X1340940Y49629D01*
X1340900Y49480D01*
Y46320D01*
X1341718Y43268D01*
X1343298Y40532D01*
X1345532Y38298D01*
X1348268Y36718D01*
X1351320Y35900D01*
X1354480D01*
X1357532Y36718D01*
X1360268Y38298D01*
X1362502Y40532D01*
X1364082Y43268D01*
X1364900Y46320D01*
Y49480D01*
X1364082Y52532D01*
X1362502Y55268D01*
X1360268Y57502D01*
X1357532Y59082D01*
X1354480Y59900D01*
X1351320D01*
X1348268Y59082D01*
X1347685Y58745D01*
X1226367Y180064D01*
X1224548Y181279D01*
X1222402Y181706D01*
X1205030D01*
Y185348D01*
X1204630D01*
Y188194D01*
X1323808D01*
X1325954Y188621D01*
X1327773Y189836D01*
X1338740Y200803D01*
X1340508Y201277D01*
X1342104Y202199D01*
X1343407Y203502D01*
X1344329Y205098D01*
X1344806Y206878D01*
Y208722D01*
X1344329Y210502D01*
X1343407Y212098D01*
X1342104Y213401D01*
X1340508Y214323D01*
X1338727Y214800D01*
D02*
G37*
G36*
X1916679Y212747D02*
X1913322D01*
X1910079Y211879D01*
X1907171Y210200D01*
X1905038Y208067D01*
X1857798D01*
X1855709Y207792D01*
X1853763Y206985D01*
X1852092Y205703D01*
X1760989Y114600D01*
X1756853D01*
Y100600D01*
X1763795D01*
X1764015Y100509D01*
X1766103Y100234D01*
X1768192Y100509D01*
X1768411Y100600D01*
X1775353D01*
Y106142D01*
X1861140Y191929D01*
X1905038D01*
X1907171Y189795D01*
X1910079Y188116D01*
X1913322Y187248D01*
X1916679D01*
X1919921Y188116D01*
X1922829Y189795D01*
X1925203Y192169D01*
X1926881Y195076D01*
X1927750Y198319D01*
Y201676D01*
X1926881Y204919D01*
X1925203Y207826D01*
X1922829Y210200D01*
X1919921Y211879D01*
X1916679Y212747D01*
D02*
G37*
G36*
X846514Y190800D02*
X846500D01*
Y180800D01*
X856500D01*
Y180814D01*
X855716Y183739D01*
X854202Y186361D01*
X852061Y188502D01*
X849439Y190016D01*
X846514Y190800D01*
D02*
G37*
G36*
X843500D02*
X843486D01*
X840561Y190016D01*
X837939Y188502D01*
X835798Y186361D01*
X834284Y183739D01*
X833500Y180814D01*
Y180800D01*
X843500D01*
Y190800D01*
D02*
G37*
G36*
X856500Y177800D02*
X846500D01*
Y167800D01*
X846514D01*
X849439Y168584D01*
X852061Y170098D01*
X854202Y172239D01*
X855716Y174861D01*
X856500Y177786D01*
Y177800D01*
D02*
G37*
G36*
X843500D02*
X833500D01*
Y177786D01*
X834284Y174861D01*
X835798Y172239D01*
X837939Y170098D01*
X840561Y168584D01*
X843486Y167800D01*
X843500D01*
Y177800D01*
D02*
G37*
G36*
X1919875Y161373D02*
X1916500D01*
Y151498D01*
X1926375D01*
Y154873D01*
X1925880Y157360D01*
X1924471Y159469D01*
X1922363Y160878D01*
X1919875Y161373D01*
D02*
G37*
G36*
X1913500D02*
X1910125D01*
X1907638Y160878D01*
X1905529Y159469D01*
X1904120Y157360D01*
X1903625Y154873D01*
Y151498D01*
X1913500D01*
Y161373D01*
D02*
G37*
G36*
X1203430Y156798D02*
X1199430D01*
Y150548D01*
X1203430D01*
Y156798D01*
D02*
G37*
G36*
X1196430D02*
X1192430D01*
Y150548D01*
X1196430D01*
Y156798D01*
D02*
G37*
G36*
X896712Y167300D02*
X893288D01*
X889982Y166414D01*
X887018Y164703D01*
X884597Y162282D01*
X882886Y159318D01*
X882000Y156011D01*
Y152589D01*
X882886Y149282D01*
X884597Y146318D01*
X887018Y143897D01*
X889982Y142186D01*
X893288Y141300D01*
X896712D01*
X900018Y142186D01*
X902982Y143897D01*
X905403Y146318D01*
X907114Y149282D01*
X908000Y152589D01*
Y156011D01*
X907114Y159318D01*
X905403Y162282D01*
X902982Y164703D01*
X900018Y166414D01*
X896712Y167300D01*
D02*
G37*
G36*
X1926375Y148498D02*
X1916500D01*
Y138623D01*
X1919875D01*
X1922363Y139117D01*
X1924471Y140527D01*
X1925880Y142635D01*
X1926375Y145123D01*
Y148498D01*
D02*
G37*
G36*
X1913500D02*
X1903625D01*
Y145123D01*
X1904120Y142635D01*
X1905529Y140527D01*
X1907638Y139117D01*
X1910125Y138623D01*
X1913500D01*
Y148498D01*
D02*
G37*
G36*
X1614582Y138800D02*
X1611818D01*
X1609147Y138084D01*
X1606753Y136702D01*
X1604798Y134747D01*
X1604544Y134308D01*
X1539900D01*
Y136549D01*
X1525900D01*
Y118049D01*
X1539900D01*
Y123092D01*
X1604082D01*
X1604798Y121853D01*
X1606753Y119898D01*
X1609147Y118516D01*
X1611818Y117800D01*
X1614582D01*
X1617253Y118516D01*
X1619647Y119898D01*
X1621602Y121853D01*
X1622984Y124247D01*
X1623700Y126918D01*
Y129682D01*
X1622984Y132353D01*
X1621602Y134747D01*
X1619647Y136702D01*
X1617253Y138084D01*
X1614582Y138800D01*
D02*
G37*
G36*
Y113400D02*
X1611818D01*
X1609147Y112684D01*
X1606753Y111302D01*
X1604798Y109347D01*
X1604313Y108508D01*
X1539900D01*
Y113252D01*
X1525900D01*
Y94752D01*
X1539900D01*
Y97292D01*
X1604313D01*
X1604798Y96453D01*
X1606753Y94498D01*
X1609147Y93116D01*
X1611818Y92400D01*
X1614582D01*
X1617253Y93116D01*
X1619647Y94498D01*
X1621602Y96453D01*
X1622984Y98847D01*
X1623700Y101518D01*
Y104282D01*
X1622984Y106953D01*
X1621602Y109347D01*
X1619647Y111302D01*
X1617253Y112684D01*
X1614582Y113400D01*
D02*
G37*
G36*
X1753852Y112500D02*
X1747602D01*
Y108500D01*
X1753852D01*
Y112500D01*
D02*
G37*
G36*
X1744602D02*
X1738352D01*
Y108500D01*
X1744602D01*
Y112500D01*
D02*
G37*
G36*
X1753852Y105500D02*
X1747602D01*
Y101500D01*
X1753852D01*
Y105500D01*
D02*
G37*
G36*
X1744602D02*
X1738352D01*
Y101500D01*
X1744602D01*
Y105500D01*
D02*
G37*
G36*
X1477300Y531200D02*
X1391300D01*
Y495200D01*
X1421188D01*
Y203431D01*
X1343201Y125444D01*
X1341117Y122729D01*
X1339807Y119566D01*
X1339360Y116172D01*
X1339360Y116172D01*
Y114200D01*
X1339472Y113348D01*
Y112488D01*
X1339695Y111658D01*
X1339807Y110806D01*
X1340136Y110012D01*
X1340358Y109182D01*
X1340788Y108438D01*
X1341117Y107644D01*
X1341640Y106962D01*
X1342070Y106218D01*
X1342677Y105610D01*
X1343201Y104928D01*
X1343883Y104405D01*
X1344490Y103797D01*
X1345235Y103368D01*
X1345916Y102844D01*
X1346710Y102516D01*
X1347455Y102086D01*
X1348285Y101863D01*
X1349079Y101535D01*
X1349931Y101423D01*
X1350761Y101200D01*
X1351620D01*
X1352472Y101088D01*
X1353324Y101200D01*
X1354184D01*
X1355014Y101423D01*
X1355866Y101535D01*
X1356660Y101863D01*
X1357490Y102086D01*
X1358235Y102516D01*
X1359028Y102844D01*
X1359710Y103368D01*
X1360455Y103797D01*
X1361062Y104405D01*
X1361744Y104928D01*
X1362267Y105610D01*
X1362875Y106218D01*
X1363305Y106962D01*
X1363828Y107644D01*
X1364157Y108438D01*
X1364586Y109182D01*
X1364792Y109948D01*
X1443572Y188728D01*
X1443572Y188728D01*
X1445656Y191444D01*
X1446965Y194606D01*
X1447412Y198000D01*
Y495200D01*
X1477300D01*
Y531200D01*
D02*
G37*
G36*
X846514Y104200D02*
X846500D01*
Y94200D01*
X856500D01*
Y94214D01*
X855716Y97139D01*
X854202Y99761D01*
X852061Y101902D01*
X849439Y103416D01*
X846514Y104200D01*
D02*
G37*
G36*
X843500D02*
X843486D01*
X840561Y103416D01*
X837939Y101902D01*
X835798Y99761D01*
X834284Y97139D01*
X833500Y94214D01*
Y94200D01*
X843500D01*
Y104200D01*
D02*
G37*
G36*
X1775353Y94600D02*
X1756853D01*
Y92908D01*
X1755352D01*
Y94000D01*
X1736852D01*
Y80000D01*
X1740794D01*
Y72200D01*
X1738402D01*
Y60200D01*
X1754402D01*
Y72200D01*
X1752009D01*
Y80000D01*
X1755352D01*
Y81692D01*
X1756853D01*
Y80600D01*
X1775353D01*
Y94600D01*
D02*
G37*
G36*
X856500Y91200D02*
X846500D01*
Y81200D01*
X846514D01*
X849439Y81984D01*
X852061Y83498D01*
X854202Y85639D01*
X855716Y88261D01*
X856500Y91186D01*
Y91200D01*
D02*
G37*
G36*
X843500D02*
X833500D01*
Y91186D01*
X834284Y88261D01*
X835798Y85639D01*
X837939Y83498D01*
X840561Y81984D01*
X843486Y81200D01*
X843500D01*
Y91200D01*
D02*
G37*
G36*
X1514222Y214600D02*
X1512378D01*
X1510598Y214123D01*
X1509002Y213201D01*
X1507699Y211898D01*
X1506777Y210302D01*
X1506300Y208522D01*
Y206678D01*
X1506777Y204898D01*
X1507492Y203659D01*
Y136549D01*
X1505900D01*
Y118049D01*
X1507292D01*
Y113252D01*
X1505900D01*
Y94752D01*
X1507292D01*
Y87100D01*
X1507719Y84954D01*
X1508935Y83135D01*
X1517935Y74135D01*
X1519754Y72919D01*
X1521900Y72492D01*
X1603967D01*
X1604798Y71053D01*
X1606753Y69098D01*
X1609147Y67716D01*
X1611818Y67000D01*
X1614582D01*
X1617253Y67716D01*
X1619647Y69098D01*
X1621602Y71053D01*
X1622984Y73447D01*
X1623700Y76118D01*
Y78882D01*
X1622984Y81553D01*
X1621602Y83947D01*
X1619647Y85902D01*
X1617253Y87284D01*
X1614582Y88000D01*
X1611818D01*
X1609147Y87284D01*
X1606753Y85902D01*
X1604798Y83947D01*
X1604660Y83708D01*
X1524223D01*
X1518508Y89423D01*
Y94752D01*
X1519900D01*
Y113252D01*
X1518508D01*
Y118049D01*
X1519900D01*
Y136549D01*
X1518708D01*
Y203108D01*
X1518901Y203302D01*
X1519823Y204898D01*
X1520300Y206678D01*
Y208522D01*
X1519823Y210302D01*
X1518901Y211898D01*
X1517598Y213201D01*
X1516002Y214123D01*
X1514222Y214600D01*
D02*
G37*
G36*
X896712Y80700D02*
X893288D01*
X889982Y79814D01*
X887018Y78103D01*
X884597Y75682D01*
X882886Y72718D01*
X882000Y69412D01*
Y65988D01*
X882886Y62682D01*
X884597Y59718D01*
X887018Y57297D01*
X889982Y55586D01*
X893288Y54700D01*
X896712D01*
X900018Y55586D01*
X902982Y57297D01*
X905403Y59718D01*
X907114Y62682D01*
X908000Y65988D01*
Y69412D01*
X907114Y72718D01*
X905403Y75682D01*
X902982Y78103D01*
X900018Y79814D01*
X896712Y80700D01*
D02*
G37*
G36*
X1614700Y61016D02*
Y53600D01*
X1622116D01*
X1621587Y55574D01*
X1620402Y57626D01*
X1618726Y59302D01*
X1616674Y60487D01*
X1614700Y61016D01*
D02*
G37*
G36*
X1611700Y61016D02*
X1609726Y60487D01*
X1607674Y59302D01*
X1605998Y57626D01*
X1604813Y55574D01*
X1604285Y53600D01*
X1611700D01*
Y61016D01*
D02*
G37*
G36*
Y50600D02*
X1604285D01*
X1604813Y48626D01*
X1605998Y46574D01*
X1607674Y44898D01*
X1609726Y43713D01*
X1611700Y43184D01*
Y50600D01*
D02*
G37*
G36*
X1622116D02*
X1614700D01*
Y43184D01*
X1616674Y43713D01*
X1618726Y44898D01*
X1620402Y46574D01*
X1621587Y48626D01*
X1622116Y50600D01*
D02*
G37*
G36*
X1734752Y53500D02*
X1716252D01*
Y39500D01*
X1734752D01*
Y41242D01*
X1738402D01*
Y41200D01*
X1754402D01*
Y53200D01*
X1738402D01*
Y52458D01*
X1734752D01*
Y53500D01*
D02*
G37*
G36*
X846712Y142300D02*
X843288D01*
X839982Y141414D01*
X837018Y139703D01*
X834597Y137282D01*
X832886Y134318D01*
X832000Y131011D01*
Y127589D01*
X832886Y124282D01*
X834597Y121318D01*
X837018Y118897D01*
X839982Y117186D01*
X843288Y116300D01*
X846712D01*
X850018Y117186D01*
X851518Y118052D01*
X863592Y105977D01*
Y88223D01*
X841035Y65665D01*
X839819Y63846D01*
X839392Y61700D01*
Y54474D01*
X837018Y53103D01*
X834597Y50682D01*
X832886Y47718D01*
X832000Y44412D01*
Y40988D01*
X832886Y37682D01*
X834597Y34718D01*
X837018Y32297D01*
X839982Y30586D01*
X843288Y29700D01*
X846712D01*
X850018Y30586D01*
X852982Y32297D01*
X855403Y34718D01*
X856774Y37092D01*
X963400D01*
X965546Y37519D01*
X967365Y38735D01*
X978434Y49803D01*
X980202Y50277D01*
X981798Y51199D01*
X983101Y52502D01*
X984023Y54098D01*
X984500Y55878D01*
Y57722D01*
X984023Y59502D01*
X983101Y61098D01*
X981798Y62401D01*
X980202Y63323D01*
X978422Y63800D01*
X976578D01*
X974798Y63323D01*
X973202Y62401D01*
X971899Y61098D01*
X970977Y59502D01*
X970503Y57734D01*
X961077Y48308D01*
X856774D01*
X855403Y50682D01*
X852982Y53103D01*
X850608Y54474D01*
Y59377D01*
X873165Y81935D01*
X874381Y83754D01*
X874808Y85900D01*
Y108300D01*
X874381Y110446D01*
X873165Y112265D01*
X857967Y127464D01*
X858000Y127589D01*
Y131011D01*
X857114Y134318D01*
X855403Y137282D01*
X852982Y139703D01*
X850018Y141414D01*
X846712Y142300D01*
D02*
G37*
%LPD*%
G36*
X820498Y331153D02*
X822453Y329198D01*
X824847Y327816D01*
X827518Y327100D01*
X830282D01*
X832953Y327816D01*
X835347Y329198D01*
X837302Y331153D01*
X837787Y331992D01*
X839852D01*
Y330800D01*
X843906D01*
X845202Y330542D01*
X846497Y330800D01*
X858352D01*
Y333092D01*
X859622Y333259D01*
X859759Y332747D01*
X861141Y330353D01*
X863096Y328398D01*
X865490Y327016D01*
X868161Y326300D01*
X870926D01*
X873596Y327016D01*
X875990Y328398D01*
X877945Y330353D01*
X878512Y331334D01*
X880252D01*
Y330083D01*
X898752D01*
Y332158D01*
X900016Y332347D01*
X901398Y329953D01*
X903353Y327998D01*
X905747Y326616D01*
X908418Y325900D01*
X911182D01*
X913853Y326616D01*
X916247Y327998D01*
X917882Y329632D01*
X919152Y329179D01*
Y328600D01*
X937652D01*
X937692Y327347D01*
Y314909D01*
X938119Y312763D01*
X939335Y310944D01*
X942264Y308015D01*
X944083Y306799D01*
X946229Y306372D01*
X949602D01*
X951327Y303384D01*
X953934Y300777D01*
X955466Y299893D01*
Y298622D01*
X953934Y297738D01*
X951327Y295131D01*
X949484Y291939D01*
X949473Y291899D01*
X853756D01*
X852502Y292623D01*
X850722Y293100D01*
X848878D01*
X847098Y292623D01*
X845502Y291701D01*
X844199Y290398D01*
X843277Y288802D01*
X842800Y287022D01*
Y285178D01*
X843277Y283398D01*
X844199Y281802D01*
X845502Y280499D01*
X847098Y279577D01*
X848878Y279100D01*
X850722D01*
X852502Y279577D01*
X854098Y280499D01*
X854283Y280684D01*
X949743D01*
X951327Y277939D01*
X953934Y275332D01*
X955466Y274447D01*
Y273178D01*
X953934Y272293D01*
X951327Y269686D01*
X949602Y266698D01*
X876632D01*
X876502Y266773D01*
X874722Y267250D01*
X872878D01*
X871098Y266773D01*
X869502Y265851D01*
X868199Y264548D01*
X867277Y262952D01*
X866800Y261172D01*
Y259328D01*
X867277Y257548D01*
X868199Y255952D01*
X869502Y254649D01*
X871098Y253727D01*
X872878Y253250D01*
X874722D01*
X876502Y253727D01*
X878098Y254649D01*
X878932Y255482D01*
X949602D01*
X951327Y252494D01*
X953934Y249887D01*
X955466Y249002D01*
Y247733D01*
X953934Y246848D01*
X951327Y244241D01*
X949484Y241049D01*
X948530Y237488D01*
Y233802D01*
X949484Y230241D01*
X951327Y227049D01*
X953934Y224442D01*
X955466Y223557D01*
Y222288D01*
X953934Y221403D01*
X951327Y218796D01*
X949484Y215604D01*
X948530Y212043D01*
Y208357D01*
X949484Y204796D01*
X951327Y201604D01*
X953934Y198997D01*
X955466Y198113D01*
Y196842D01*
X953934Y195958D01*
X951327Y193351D01*
X949602Y190363D01*
X926039D01*
X818008Y298394D01*
Y332973D01*
X819278Y333266D01*
X820498Y331153D01*
D02*
G37*
%LPC*%
G36*
X856852Y323300D02*
X850602D01*
Y319300D01*
X856852D01*
Y323300D01*
D02*
G37*
G36*
X847602D02*
X841352D01*
Y319300D01*
X847602D01*
Y323300D01*
D02*
G37*
G36*
X897252Y322583D02*
X891002D01*
Y318583D01*
X897252D01*
Y322583D01*
D02*
G37*
G36*
X888002D02*
X881752D01*
Y318583D01*
X888002D01*
Y322583D01*
D02*
G37*
G36*
X936152Y321100D02*
X929902D01*
Y317100D01*
X936152D01*
Y321100D01*
D02*
G37*
G36*
X926902D02*
X920652D01*
Y317100D01*
X926902D01*
Y321100D01*
D02*
G37*
G36*
X830400Y321116D02*
Y313700D01*
X837815D01*
X837287Y315674D01*
X836102Y317726D01*
X834426Y319402D01*
X832374Y320587D01*
X830400Y321116D01*
D02*
G37*
G36*
X827400D02*
X825426Y320587D01*
X823374Y319402D01*
X821698Y317726D01*
X820513Y315674D01*
X819985Y313700D01*
X827400D01*
Y321116D01*
D02*
G37*
G36*
X871043Y320316D02*
Y312900D01*
X878459D01*
X877930Y314874D01*
X876745Y316926D01*
X875069Y318602D01*
X873017Y319787D01*
X871043Y320316D01*
D02*
G37*
G36*
X868043Y320316D02*
X866069Y319787D01*
X864017Y318602D01*
X862341Y316926D01*
X861156Y314874D01*
X860628Y312900D01*
X868043D01*
Y320316D01*
D02*
G37*
G36*
X911300Y319916D02*
Y312500D01*
X918716D01*
X918187Y314474D01*
X917002Y316526D01*
X915326Y318202D01*
X913274Y319387D01*
X911300Y319916D01*
D02*
G37*
G36*
X908300Y319916D02*
X906326Y319387D01*
X904274Y318202D01*
X902598Y316526D01*
X901413Y314474D01*
X900884Y312500D01*
X908300D01*
Y319916D01*
D02*
G37*
G36*
X856852Y316300D02*
X850602D01*
Y312300D01*
X856852D01*
Y316300D01*
D02*
G37*
G36*
X847602D02*
X841352D01*
Y312300D01*
X847602D01*
Y316300D01*
D02*
G37*
G36*
X897252Y315583D02*
X891002D01*
Y311583D01*
X897252D01*
Y315583D01*
D02*
G37*
G36*
X888002D02*
X881752D01*
Y311583D01*
X888002D01*
Y315583D01*
D02*
G37*
G36*
X936152Y314100D02*
X929902D01*
Y310100D01*
X936152D01*
Y314100D01*
D02*
G37*
G36*
X926902D02*
X920652D01*
Y310100D01*
X926902D01*
Y314100D01*
D02*
G37*
G36*
X837815Y310700D02*
X830400D01*
Y303284D01*
X832374Y303813D01*
X834426Y304998D01*
X836102Y306674D01*
X837287Y308726D01*
X837815Y310700D01*
D02*
G37*
G36*
X827400D02*
X819984D01*
X820513Y308726D01*
X821698Y306674D01*
X823374Y304998D01*
X825426Y303813D01*
X827400Y303284D01*
Y310700D01*
D02*
G37*
G36*
X878459Y309900D02*
X871043D01*
Y302484D01*
X873017Y303013D01*
X875069Y304198D01*
X876745Y305874D01*
X877930Y307926D01*
X878459Y309900D01*
D02*
G37*
G36*
X868043D02*
X860628D01*
X861156Y307926D01*
X862341Y305874D01*
X864017Y304198D01*
X866069Y303013D01*
X868043Y302484D01*
Y309900D01*
D02*
G37*
G36*
X908300Y309500D02*
X900884D01*
X901413Y307526D01*
X902598Y305474D01*
X904274Y303798D01*
X906326Y302613D01*
X908300Y302085D01*
Y309500D01*
D02*
G37*
G36*
X918716D02*
X911300D01*
Y302084D01*
X913274Y302613D01*
X915326Y303798D01*
X917002Y305474D01*
X918187Y307526D01*
X918716Y309500D01*
D02*
G37*
%LPD*%
D11*
X1115200Y439205D02*
X1258805D01*
X1814400Y322800D02*
X1887203Y249997D01*
X1680700Y552100D02*
X1814400Y418400D01*
Y322800D02*
Y418400D01*
X1887203Y249997D02*
X1915000D01*
X1930000Y249500D02*
X1947700Y231800D01*
Y134500D02*
Y231800D01*
X1925300Y112100D02*
X1947700Y134500D01*
X1915497Y249500D02*
X1930000D01*
X1849100Y112100D02*
X1925300D01*
X1793700Y56700D02*
X1849100Y112100D01*
X1770402Y56700D02*
X1793700D01*
X1766103Y108303D02*
X1857798Y199998D01*
X1915000D01*
X200101Y497401D02*
X236399D01*
X236500Y497502D01*
X200000Y497300D02*
X200101Y497401D01*
X370000Y497300D02*
X406861D01*
X540101Y497401D02*
X576799D01*
X576900Y497502D01*
X540000Y497300D02*
X540101Y497401D01*
X710101D02*
X744499D01*
X744600Y497502D01*
X710000Y497300D02*
X710101Y497401D01*
X1049401Y498401D02*
X1081699D01*
X1081800Y498502D01*
X1049300Y498300D02*
X1049401Y498401D01*
X879365Y497501D02*
X912843D01*
X1049300Y498300D02*
X1049550Y498050D01*
X1009632Y286167D02*
X1010000Y285798D01*
X962530Y286535D02*
X962898Y286167D01*
X1009554Y260644D02*
X1010000Y260198D01*
X962530Y261090D02*
X962976Y260644D01*
X1009873Y235772D02*
X1010000Y235898D01*
X962530Y235645D02*
X962657Y235772D01*
X134200Y139800D02*
Y240200D01*
Y139800D02*
X174250Y99750D01*
Y75747D02*
X174998Y75000D01*
X174250Y75747D02*
Y99750D01*
X224700Y75297D02*
Y107225D01*
X171293Y160632D02*
X224700Y107225D01*
X191880Y245519D02*
X212880D01*
X212893Y245532D01*
X171293Y160632D02*
Y224932D01*
X191880Y245519D01*
X134200Y240200D02*
X188300Y294300D01*
X387000Y138500D02*
Y245440D01*
X435597Y294037D02*
X464037D01*
X387000Y245440D02*
X435597Y294037D01*
X387000Y138500D02*
X424998Y100502D01*
X674998Y157102D02*
Y225998D01*
X693287Y244287D01*
X674998Y157102D02*
X724997Y107102D01*
X424998Y75000D02*
Y100502D01*
X442280Y247119D02*
X463280D01*
X463293Y247132D01*
X473990Y77832D02*
Y109935D01*
X421693Y162232D02*
X473990Y109935D01*
X421693Y162232D02*
Y226532D01*
X442280Y247119D01*
X641200Y135300D02*
Y252300D01*
X683900Y295000D01*
X641200Y135300D02*
X674998Y101502D01*
X724997Y75000D02*
Y107102D01*
X674998Y75000D02*
Y101502D01*
X714287Y244287D02*
X714300Y244300D01*
X693287Y244287D02*
X714287D01*
X683900Y295000D02*
X715000D01*
X188300Y294300D02*
X214300D01*
X85000Y280200D02*
X150600Y345800D01*
X217678D01*
X85000Y225000D02*
Y280200D01*
X335000Y225000D02*
Y261800D01*
X417687Y344487D02*
X464487D01*
X335000Y261800D02*
X417687Y344487D01*
X464487D02*
X465000Y345000D01*
X585000Y225000D02*
Y257000D01*
X673000Y345000D02*
X715000D01*
X585000Y257000D02*
X673000Y345000D01*
X551501Y353750D02*
X571150D01*
X587300Y328000D02*
Y337600D01*
X571150Y353750D02*
X587300Y337600D01*
X45400Y354600D02*
X60700D01*
X87300Y328000D01*
X293200Y354400D02*
X311200D01*
X337300Y328300D01*
X45350Y306200D02*
Y322600D01*
X45300Y306200D02*
X45350D01*
Y322600D02*
X45400D01*
X45350Y258000D02*
Y274200D01*
Y258000D02*
X45400D01*
X45300Y274200D02*
X45350D01*
X45400Y226000D02*
X84000D01*
X85000Y225000D01*
X293100Y305900D02*
Y322400D01*
X293000Y305900D02*
X293100D01*
Y322400D02*
X293200D01*
X293000Y257400D02*
Y273900D01*
X296000Y225400D02*
X296400Y225000D01*
X293000Y225400D02*
X296000D01*
X296400Y225000D02*
X335000D01*
X551501Y305371D02*
Y321750D01*
X551500Y256600D02*
Y273370D01*
X551500Y256600D02*
X551500D01*
Y273370D02*
X551501D01*
X554500Y224600D02*
X554900Y225000D01*
X585000D01*
X551500Y224600D02*
X554500D01*
X464037Y294037D02*
X465000Y295000D01*
X1308800Y489200D02*
Y530000D01*
X1258805Y439205D02*
X1308800Y489200D01*
D12*
X1725502Y46500D02*
X1725852Y46850D01*
X1746052D02*
X1746402Y47200D01*
X760800Y562402D02*
X760902Y562300D01*
X406861Y497300D02*
X407063Y497502D01*
X646002Y587500D02*
X646102Y587600D01*
X676800D02*
X676900Y587700D01*
D16*
X45400Y354600D02*
D03*
Y322600D02*
D03*
Y258000D02*
D03*
Y226000D02*
D03*
X293000Y273900D02*
D03*
Y305900D02*
D03*
X551500Y224600D02*
D03*
Y256600D02*
D03*
X293200Y322400D02*
D03*
Y354400D02*
D03*
X45300Y306200D02*
D03*
Y274200D02*
D03*
X551501Y305371D02*
D03*
Y273370D02*
D03*
Y321750D02*
D03*
Y353750D02*
D03*
X293000Y225400D02*
D03*
Y257400D02*
D03*
D33*
X174800Y887000D02*
X231800Y830000D01*
X174800Y887000D02*
Y924798D01*
X231800Y830000D02*
X260000D01*
X1054500Y878900D02*
X1182300D01*
X1294766Y766434D01*
Y700000D02*
Y766434D01*
Y700000D02*
X1304766Y690000D01*
X1308800D01*
X1024303Y909098D02*
X1054500Y878900D01*
X1024303Y909098D02*
Y926000D01*
X1578300Y602900D02*
X1696700D01*
X1463000D02*
X1578300D01*
X1570700Y595300D02*
X1578300Y602900D01*
X1570700Y292000D02*
Y595300D01*
X1458300Y598200D02*
X1463000Y602900D01*
X1445797Y674997D02*
X1790800D01*
X1915000D01*
X1790800D02*
Y782700D01*
X1409700Y638900D02*
X1445797Y674997D01*
X1352472Y116172D02*
X1434300Y198000D01*
X1352472Y114200D02*
Y116172D01*
X1409700Y598800D02*
Y638900D01*
X1458300Y567316D02*
Y598200D01*
X1434300Y198000D02*
Y513200D01*
X1446584Y555600D02*
X1458300Y567316D01*
X1349400Y555600D02*
X1446584D01*
X1308800Y530000D02*
X1323800D01*
X1349400Y555600D01*
X1306400Y868900D02*
X1344100Y831200D01*
X1409300D01*
X1464300Y836200D02*
X1469300D01*
X1459300Y831200D02*
X1464300Y836200D01*
X1498800Y865700D02*
Y865800D01*
X1469300Y836200D02*
X1498800Y865700D01*
X853464Y887600D02*
Y924698D01*
X911564Y829500D02*
X938764D01*
X853464Y887600D02*
X911564Y829500D01*
X514900Y887500D02*
Y924598D01*
X573000Y829400D02*
X600200D01*
X514900Y887500D02*
X573000Y829400D01*
X344700Y888100D02*
X402800Y830000D01*
X430000D01*
X344700Y888100D02*
Y925198D01*
D34*
X1198030Y176098D02*
X1222402D01*
X1351033Y47467D01*
X1356933D01*
X1358100Y46300D01*
X1323808Y193802D02*
X1337806Y207800D01*
X1197630Y193802D02*
X1323808D01*
X1209898Y255000D02*
X1283600D01*
X1402500Y373900D01*
X1354100Y47600D02*
X1355300D01*
X1145200Y210200D02*
X1161598Y193802D01*
X1177630D01*
X1115200Y210200D02*
X1145200D01*
X1177630Y193802D02*
X1177830Y193602D01*
Y176298D02*
Y193602D01*
Y176298D02*
X1178030Y176098D01*
X1177980Y158348D02*
Y176048D01*
X1177930Y158298D02*
X1177980Y158348D01*
Y176048D02*
X1178030Y176098D01*
X986201Y479300D02*
X988701Y476800D01*
X986201Y479300D02*
Y567000D01*
X988701Y465599D02*
Y476800D01*
Y465599D02*
X989000Y465300D01*
X1005700Y77000D02*
X1055900Y26800D01*
X1643600D01*
X1683300Y66500D01*
X963400Y42700D02*
X977500Y56800D01*
X845000Y42700D02*
X963400D01*
X1513100Y207400D02*
X1513300Y207600D01*
X1512900Y127299D02*
X1513100Y127499D01*
Y207400D01*
X1512900Y104002D02*
Y127299D01*
X1612600Y78100D02*
X1613200Y77500D01*
X1512900Y87100D02*
X1521900Y78100D01*
X1612600D01*
X1534002Y102900D02*
X1613200D01*
X1532900Y104002D02*
X1534002Y102900D01*
X1532900Y127299D02*
X1534301Y128700D01*
X1612800D02*
X1613200Y128300D01*
X1534301Y128700D02*
X1612800D01*
X1512900Y87100D02*
Y104002D01*
X1683300Y66500D02*
X1725502D01*
X985702Y567499D02*
X986201Y567000D01*
X985702Y567499D02*
Y568500D01*
X910200Y336000D02*
X928002D01*
X928402Y335600D01*
X909800Y336400D02*
X910200Y336000D01*
X719800Y436200D02*
X774700Y381300D01*
X214300Y436200D02*
X719800D01*
X662700Y475400D02*
X738100D01*
X812400Y401100D01*
X646002Y492098D02*
X662700Y475400D01*
X731200Y462300D02*
X801700Y391800D01*
X476402Y498298D02*
X512400Y462300D01*
X731200D01*
X726600Y450100D02*
X790400Y386300D01*
X306002Y480067D02*
X335968Y450100D01*
X726600D01*
X136400Y514100D02*
X214300Y436200D01*
X1030000Y260198D02*
Y386571D01*
X1403000Y374729D02*
Y375000D01*
X1402500Y374229D02*
X1403000Y374729D01*
X1402500Y373900D02*
Y374229D01*
X1746402Y87300D02*
X1765803D01*
X1746102Y87000D02*
X1746402Y87300D01*
X1765803D02*
X1766103Y87600D01*
X1746102Y87000D02*
X1746402Y86700D01*
Y66200D02*
Y86700D01*
X1725852Y46850D02*
X1746052D01*
X1173902Y235322D02*
X1209576D01*
X931775Y498771D02*
X932944Y497602D01*
X887564Y551500D02*
X931775Y507289D01*
X887564Y551500D02*
Y586600D01*
X931775Y498771D02*
Y507289D01*
X1101421Y498881D02*
X1101800Y498502D01*
X1057500Y552900D02*
X1101421Y508979D01*
X1057500Y552900D02*
Y588000D01*
X1101421Y498881D02*
Y508979D01*
X763100Y499002D02*
Y509300D01*
Y499002D02*
X764600Y497502D01*
X718200Y554200D02*
X763100Y509300D01*
X718200Y554200D02*
Y587000D01*
X548000Y552400D02*
Y586600D01*
X595400Y499002D02*
X596900Y497502D01*
X548000Y552400D02*
X595400Y505000D01*
Y499002D02*
Y505000D01*
X377200Y556000D02*
X425952Y507248D01*
Y498612D02*
X427063Y497502D01*
X377200Y556000D02*
Y587100D01*
X425952Y498612D02*
Y507248D01*
X206300Y554900D02*
Y587100D01*
X255000Y499002D02*
Y506200D01*
Y499002D02*
X256500Y497502D01*
X206300Y554900D02*
X255000Y506200D01*
X245400Y640000D02*
X264000D01*
X206500Y601100D02*
X245400Y640000D01*
X206500Y587300D02*
Y601100D01*
X377200Y587100D02*
Y600700D01*
X416900Y640400D02*
X433600D01*
X377200Y600700D02*
X416900Y640400D01*
X433600D02*
X434000Y640000D01*
X586900D02*
X604000D01*
X548000Y601100D02*
X586900Y640000D01*
X548000Y586600D02*
Y601100D01*
X756600Y640000D02*
X774000D01*
X718200Y601600D02*
X756600Y640000D01*
X718200Y587000D02*
Y601600D01*
X1057500Y588000D02*
Y601900D01*
X1096600Y641000D02*
X1113300D01*
X1057500Y601900D02*
X1096600Y641000D01*
X887564Y586600D02*
Y600800D01*
X926864Y640100D02*
X943264D01*
X887564Y600800D02*
X926864Y640100D01*
X251000Y562300D02*
X251201Y562501D01*
X261301D02*
X261400Y562600D01*
X251201Y562501D02*
X261301D01*
X760902Y562300D02*
X761002Y562401D01*
X771199D02*
X771200Y562400D01*
X761002Y562401D02*
X771199D01*
X1100302Y563300D02*
X1100302Y563301D01*
X1110499D02*
X1110600Y563200D01*
X1100302Y563301D02*
X1110499D01*
X815966Y567600D02*
X816066Y567500D01*
Y528557D02*
X816166Y528457D01*
X816066Y528557D02*
Y567500D01*
X897163Y562502D02*
X910264D01*
X421900Y562300D02*
X431400D01*
X591002D02*
X601000D01*
X930466D02*
X939564D01*
X1067000Y564000D02*
X1079602D01*
X727700Y563000D02*
X740202D01*
X557500Y562600D02*
X570702D01*
X386700Y563100D02*
X400202D01*
X215800D02*
X230000D01*
X912843Y497501D02*
X912944Y497602D01*
X879264Y497400D02*
X879365Y497501D01*
X812400Y296071D02*
Y401100D01*
X849464Y587800D02*
X849664Y588000D01*
X815966Y587600D02*
X816166Y587800D01*
X849464D01*
X985802Y588600D02*
X1015700D01*
X1015800Y588700D01*
X985702Y588500D02*
X985802Y588600D01*
X646102Y587600D02*
X676800D01*
X476402Y587500D02*
X506600D01*
X306002D02*
X337300D01*
X136402D02*
X167500D01*
X801700Y289000D02*
Y391800D01*
X790400Y284100D02*
Y386300D01*
X939225Y82975D02*
X962530D01*
X924800Y97400D02*
X939225Y82975D01*
X924800Y97400D02*
Y165900D01*
X801700Y289000D02*
X924800Y165900D01*
X790400Y284100D02*
X863900Y210600D01*
X923716Y184755D02*
X962530D01*
X812400Y296071D02*
X923716Y184755D01*
X874911Y261090D02*
X962530D01*
X874071Y260250D02*
X874911Y261090D01*
X873800Y260250D02*
X874071D01*
X943300Y314909D02*
X946229Y311980D01*
X940371Y335600D02*
X943300Y332671D01*
X946229Y311980D02*
X962530D01*
X943300Y314909D02*
Y332671D01*
X961930Y210800D02*
X962530Y210200D01*
X646002Y492098D02*
Y567500D01*
X476402Y498298D02*
Y567500D01*
X306002Y480067D02*
Y567500D01*
X136400Y514100D02*
Y567500D01*
X1019300Y400400D02*
X1028200Y409300D01*
X1011500Y392600D02*
X1019300Y400400D01*
X1115523Y235322D02*
X1173902D01*
X1209576D02*
X1209898Y235000D01*
X1115200Y235645D02*
X1115523Y235322D01*
X1042360Y401860D02*
Y425140D01*
X1032137Y435363D02*
X1042360Y425140D01*
X1032548Y392048D02*
X1042360Y401860D01*
X1030000Y436863D02*
X1031500Y435363D01*
X1030000Y436863D02*
Y439113D01*
X1031500Y435363D02*
X1032137D01*
X1030000Y390548D02*
X1031500Y392048D01*
X1030000Y388298D02*
Y390548D01*
X1031500Y392048D02*
X1032548D01*
X1028200Y409300D02*
Y410448D01*
X1010000Y388298D02*
X1011500Y389798D01*
Y392600D01*
X1028200Y410448D02*
X1029450Y411698D01*
X1008500Y439500D02*
X1010000Y438000D01*
Y437998D02*
Y438000D01*
X962825Y439500D02*
X1008500D01*
X901305Y439205D02*
X962530D01*
X963561Y412729D02*
X1008969D01*
X1010000Y411698D01*
X962530Y413760D02*
X963561Y412729D01*
X849102Y337800D02*
Y387002D01*
X901305Y439205D01*
X1005700Y77000D02*
Y140900D01*
X986269Y160331D02*
X1005700Y140900D01*
X963551Y160331D02*
X986269D01*
X962530Y159310D02*
X963551Y160331D01*
X928402Y335600D02*
X940371D01*
X962889Y312339D02*
X1009641D01*
X962530Y311980D02*
X962889Y312339D01*
X1009641D02*
X1010000Y312698D01*
X940848Y355051D02*
X958475Y337425D01*
X897929Y355051D02*
X940848D01*
X958475Y337425D02*
X1010000D01*
X843752Y337600D02*
X845202Y336150D01*
X828900Y337600D02*
X843752D01*
X869685Y336942D02*
X889360D01*
X889502Y337083D01*
X869543Y336800D02*
X869685Y336942D01*
X889502Y337083D02*
Y346624D01*
X897929Y355051D01*
X845000Y129300D02*
X848200D01*
X869200Y85900D02*
Y108300D01*
X848200Y129300D02*
X869200Y108300D01*
X845000Y61700D02*
X869200Y85900D01*
X845000Y42700D02*
Y61700D01*
X962286Y286291D02*
X962530Y286535D01*
X849800Y286100D02*
X849991Y286291D01*
X962286D01*
X962898Y286167D02*
X1009632D01*
X962976Y260644D02*
X1009554D01*
X962657Y235772D02*
X1009873D01*
X1030000Y235898D02*
Y260198D01*
D36*
X1352900Y47900D02*
D03*
D03*
X1570700Y292000D02*
D03*
X1696700Y602900D02*
D03*
D37*
X1607000Y755000D02*
D03*
Y883000D02*
D03*
X1659300Y754700D02*
D03*
Y882700D02*
D03*
X895000Y67700D02*
D03*
X845000Y92700D02*
D03*
Y42700D02*
D03*
X895000Y154300D02*
D03*
X845000Y179300D02*
D03*
Y129300D02*
D03*
X985300Y641000D02*
D03*
X1113300D02*
D03*
X646000Y640000D02*
D03*
X774000D02*
D03*
X476000D02*
D03*
X604000D02*
D03*
X306000D02*
D03*
X434000D02*
D03*
X85000Y175000D02*
D03*
Y225000D02*
D03*
X335000D02*
D03*
Y175000D02*
D03*
X585000Y225000D02*
D03*
Y175000D02*
D03*
X264000Y640000D02*
D03*
X136000D02*
D03*
X943264Y640100D02*
D03*
X815264D02*
D03*
X1352472Y114200D02*
D03*
X1306400Y868900D02*
D03*
X1498800Y865800D02*
D03*
D38*
X1800000Y780000D02*
D03*
Y850000D02*
D03*
Y920000D02*
D03*
D40*
X1613200Y128300D02*
D03*
Y102900D02*
D03*
Y77500D02*
D03*
Y52100D02*
D03*
X869543Y336800D02*
D03*
Y311400D02*
D03*
X828900Y337600D02*
D03*
Y312200D02*
D03*
X909800Y336400D02*
D03*
Y311000D02*
D03*
D41*
X370000Y497300D02*
D03*
Y522700D02*
D03*
X200000Y497300D02*
D03*
Y522700D02*
D03*
X540000Y497300D02*
D03*
Y522700D02*
D03*
X710000Y497300D02*
D03*
Y522700D02*
D03*
X1049300Y498300D02*
D03*
Y523700D02*
D03*
X879264Y497400D02*
D03*
Y522800D02*
D03*
D42*
X1115200Y108420D02*
D03*
Y82975D02*
D03*
Y133865D02*
D03*
Y159310D02*
D03*
Y286535D02*
D03*
Y311980D02*
D03*
Y337425D02*
D03*
Y362870D02*
D03*
Y388315D02*
D03*
Y413760D02*
D03*
Y439205D02*
D03*
X962530D02*
D03*
Y413760D02*
D03*
Y388315D02*
D03*
Y362870D02*
D03*
Y337425D02*
D03*
Y311980D02*
D03*
Y286535D02*
D03*
Y261090D02*
D03*
Y235645D02*
D03*
Y210200D02*
D03*
Y184755D02*
D03*
Y159310D02*
D03*
Y133865D02*
D03*
Y108420D02*
D03*
Y82975D02*
D03*
X1115200Y184755D02*
D03*
Y210200D02*
D03*
Y235645D02*
D03*
Y261090D02*
D03*
X770000Y708000D02*
D03*
X650000Y830000D02*
D03*
Y708000D02*
D03*
X710000Y688000D02*
D03*
X770000Y830000D02*
D03*
X1109300Y709000D02*
D03*
X989300Y831000D02*
D03*
Y709000D02*
D03*
X1049300Y689000D02*
D03*
X1109300Y831000D02*
D03*
X939264Y708100D02*
D03*
X819264Y830100D02*
D03*
Y708100D02*
D03*
X879264Y688100D02*
D03*
X939264Y830100D02*
D03*
X430000Y708000D02*
D03*
X310000Y830000D02*
D03*
Y708000D02*
D03*
X370000Y688000D02*
D03*
X430000Y830000D02*
D03*
X600000D02*
D03*
X540000Y688000D02*
D03*
X480000Y708000D02*
D03*
Y830000D02*
D03*
X600000Y708000D02*
D03*
X260000Y830000D02*
D03*
X200000Y688000D02*
D03*
X140000Y708000D02*
D03*
Y830000D02*
D03*
X260000Y708000D02*
D03*
D43*
X1915000Y199998D02*
D03*
Y249997D02*
D03*
Y674997D02*
D03*
X474997Y75000D02*
D03*
X224998D02*
D03*
X854267Y925100D02*
D03*
X1024303Y926000D02*
D03*
X685003Y925000D02*
D03*
X515003D02*
D03*
X345003Y925500D02*
D03*
X175002Y925000D02*
D03*
X724997Y75000D02*
D03*
X1915000Y374997D02*
D03*
Y524997D02*
D03*
D44*
Y149998D02*
D03*
Y624998D02*
D03*
Y324998D02*
D03*
Y474998D02*
D03*
D45*
X215000Y195000D02*
D03*
Y345000D02*
D03*
Y295000D02*
D03*
Y245000D02*
D03*
X465000Y195000D02*
D03*
Y345000D02*
D03*
Y295000D02*
D03*
Y245000D02*
D03*
X715000Y195000D02*
D03*
Y345000D02*
D03*
Y295000D02*
D03*
Y245000D02*
D03*
D46*
X424998Y75000D02*
D03*
X174998D02*
D03*
X904267Y925100D02*
D03*
X1074302Y926000D02*
D03*
X735002Y925000D02*
D03*
X565002D02*
D03*
X395002Y925500D02*
D03*
X225002Y925000D02*
D03*
X674998Y75000D02*
D03*
D48*
X1337806Y207800D02*
D03*
X989000Y465300D02*
D03*
X1680700Y552100D02*
D03*
X977500Y56800D02*
D03*
X1513300Y207600D02*
D03*
X774700Y381300D02*
D03*
X1030000Y362870D02*
D03*
X1403000Y375000D02*
D03*
X261400Y562600D02*
D03*
X771200Y562400D02*
D03*
X1110600Y563200D02*
D03*
X816166Y528457D02*
D03*
X431400Y562300D02*
D03*
X601000D02*
D03*
X939564D02*
D03*
X849664Y588000D02*
D03*
X1015800Y588700D02*
D03*
X676900Y587700D02*
D03*
X506600Y587500D02*
D03*
X337300D02*
D03*
X167500D02*
D03*
X863900Y210600D02*
D03*
X1019300Y400400D02*
D03*
X849800Y286100D02*
D03*
X873800Y260250D02*
D03*
X87300Y328000D02*
D03*
X337300D02*
D03*
X587300D02*
D03*
D49*
X1197930Y158298D02*
D03*
X1177930D02*
D03*
X1198030Y176098D02*
D03*
X1178030D02*
D03*
X1177630Y193802D02*
D03*
X1197630D02*
D03*
X1512900Y127299D02*
D03*
X1532900D02*
D03*
X1512900Y104002D02*
D03*
X1532900D02*
D03*
X570900Y562402D02*
D03*
X590900D02*
D03*
X910264Y562502D02*
D03*
X930264D02*
D03*
X400900Y562402D02*
D03*
X420900D02*
D03*
X740800D02*
D03*
X760800D02*
D03*
X1080200Y563402D02*
D03*
X1100200D02*
D03*
X231000Y562402D02*
D03*
X251000D02*
D03*
X1030000Y439113D02*
D03*
X1010000D02*
D03*
X1029700Y414198D02*
D03*
X1009700D02*
D03*
X1030000Y388298D02*
D03*
X1010000D02*
D03*
Y337425D02*
D03*
X1030000D02*
D03*
Y312698D02*
D03*
X1010000D02*
D03*
X912944Y497602D02*
D03*
X932944D02*
D03*
X1081800Y498502D02*
D03*
X1101800D02*
D03*
X744600Y497502D02*
D03*
X764600D02*
D03*
X576900D02*
D03*
X596900D02*
D03*
X407063D02*
D03*
X427063D02*
D03*
X236500D02*
D03*
X256500D02*
D03*
X1030000Y235898D02*
D03*
X1010000D02*
D03*
X1030000Y285798D02*
D03*
X1010000D02*
D03*
X1030000Y260198D02*
D03*
X1010000D02*
D03*
D50*
X1746402Y47200D02*
D03*
Y66200D02*
D03*
X1770402Y56700D02*
D03*
D51*
X1746102Y87000D02*
D03*
Y107000D02*
D03*
X1725502Y46500D02*
D03*
Y66500D02*
D03*
X815966Y587600D02*
D03*
Y567600D02*
D03*
X476402Y587500D02*
D03*
Y567500D02*
D03*
X646002Y587500D02*
D03*
Y567500D02*
D03*
X985702Y588500D02*
D03*
Y568500D02*
D03*
X1209898Y235000D02*
D03*
Y255000D02*
D03*
X1173902Y235000D02*
D03*
Y255000D02*
D03*
X1138198Y418900D02*
D03*
Y438900D02*
D03*
X889502Y317083D02*
D03*
Y337083D02*
D03*
X928402Y335600D02*
D03*
Y315600D02*
D03*
X849102Y317800D02*
D03*
Y337800D02*
D03*
X1766103Y87600D02*
D03*
Y107600D02*
D03*
X306002Y567500D02*
D03*
Y587500D02*
D03*
X136402Y567500D02*
D03*
Y587500D02*
D03*
D52*
X897064Y562600D02*
D03*
X878064D02*
D03*
X887564Y586600D02*
D03*
X215800Y563100D02*
D03*
X196800D02*
D03*
X206300Y587100D02*
D03*
X386700Y563100D02*
D03*
X367700D02*
D03*
X377200Y587100D02*
D03*
X557500Y562600D02*
D03*
X538500D02*
D03*
X548000Y586600D02*
D03*
X727700Y563000D02*
D03*
X708700D02*
D03*
X718200Y587000D02*
D03*
X1067000Y564000D02*
D03*
X1048000D02*
D03*
X1057500Y588000D02*
D03*
D53*
X1458300Y598200D02*
D03*
X1459300Y831200D02*
D03*
X1409300D02*
D03*
X1410300Y598200D02*
D03*
D54*
X1434300Y513200D02*
D03*
D55*
X1308800Y530000D02*
D03*
X1212800D02*
D03*
Y690000D02*
D03*
X1308800D02*
D03*
M02*
