G04*
G04 #@! TF.GenerationSoftware,Altium Limited,Altium Designer,22.10.1 (41)*
G04*
G04 Layer_Color=65535*
%FSLAX44Y44*%
%MOMM*%
G71*
G04*
G04 #@! TF.SameCoordinates,B602C00A-04D7-4507-9B25-3B951254DDD7*
G04*
G04*
G04 #@! TF.FilePolarity,Positive*
G04*
G01*
G75*
%ADD10C,0.2540*%
%ADD11C,0.2000*%
%ADD12C,0.5000*%
D10*
X325200Y162300D02*
Y190300D01*
Y162300D02*
X448200D01*
Y190300D01*
X325200D02*
X448200D01*
X478400Y-5700D02*
Y114300D01*
X158400D02*
X478400D01*
X158400Y-5700D02*
Y114300D01*
Y-5700D02*
X478400D01*
X328400Y54300D02*
X408400D01*
X228400D02*
X308400D01*
Y24300D02*
Y74300D01*
Y84300D01*
X328400Y54300D02*
Y84300D01*
Y24300D02*
Y54300D01*
X340200Y51800D02*
Y79800D01*
X217200D02*
X340200D01*
X217200Y51800D02*
Y79800D01*
Y51800D02*
X340200D01*
X166800Y124400D02*
Y164400D01*
Y124400D02*
X318800D01*
Y164400D01*
X166800D02*
X318800D01*
X233800Y129400D02*
Y159400D01*
Y144400D02*
X248800Y159400D01*
Y129400D02*
Y159400D01*
X233800Y144400D02*
X248800Y129400D01*
Y144400D02*
X270800D01*
X218800D02*
X233800D01*
X325500Y129886D02*
Y155886D01*
X431500Y129886D02*
Y155886D01*
X325500D02*
X431500D01*
X325500Y129886D02*
X431500D01*
X286500Y84000D02*
Y124000D01*
Y84000D02*
X438500D01*
Y124000D01*
X286500D02*
X438500D01*
X353500Y89000D02*
Y119000D01*
Y104000D02*
X368500Y119000D01*
Y89000D02*
Y119000D01*
X353500Y104000D02*
X368500Y89000D01*
Y104000D02*
X390500D01*
X338500D02*
X353500D01*
X374299Y187563D02*
Y182232D01*
X372966D01*
X367634Y187563D01*
X366301D01*
X374299Y174234D02*
Y179566D01*
X370300D01*
X371633Y176900D01*
Y175567D01*
X370300Y174234D01*
X367634D01*
X366301Y175567D01*
Y178233D01*
X367634Y179566D01*
X374299Y171568D02*
X366301D01*
X368967D01*
X374299Y166237D01*
X370300Y170236D01*
X366301Y166237D01*
X387501Y181622D02*
X395499D01*
Y177623D01*
X394166Y176290D01*
X391500D01*
X390167Y177623D01*
Y181622D01*
Y178956D02*
X387501Y176290D01*
X394166Y173624D02*
X395499Y172291D01*
Y169626D01*
X394166Y168293D01*
X392833D01*
X391500Y169626D01*
Y170958D01*
Y169626D01*
X390167Y168293D01*
X388834D01*
X387501Y169626D01*
Y172291D01*
X388834Y173624D01*
X299568Y199766D02*
X298235Y201099D01*
X295570D01*
X294237Y199766D01*
Y198433D01*
X295570Y197100D01*
X298235D01*
X299568Y195767D01*
Y194434D01*
X298235Y193101D01*
X295570D01*
X294237Y194434D01*
X302234Y201099D02*
Y193101D01*
X304900Y195767D01*
X307566Y193101D01*
Y201099D01*
X315563Y193101D02*
X310232D01*
X315563Y198433D01*
Y199766D01*
X314230Y201099D01*
X311565D01*
X310232Y199766D01*
X302952Y15969D02*
X301285Y17636D01*
X297953D01*
X296287Y15969D01*
Y9305D01*
X297953Y7639D01*
X301285D01*
X302952Y9305D01*
X306284Y7639D02*
Y14303D01*
X309616Y17636D01*
X312948Y14303D01*
Y7639D01*
Y12637D01*
X306284D01*
X316281Y7639D02*
Y17636D01*
X321279D01*
X322945Y15969D01*
Y12637D01*
X321279Y10971D01*
X316281D01*
X342939Y7639D02*
X336274D01*
X342939Y14303D01*
Y15969D01*
X341273Y17636D01*
X337940D01*
X336274Y15969D01*
X352935Y7639D02*
X346271D01*
X352935Y14303D01*
Y15969D01*
X351269Y17636D01*
X347937D01*
X346271Y15969D01*
X362932Y17636D02*
X356268D01*
Y12637D01*
X359600Y14303D01*
X361266D01*
X362932Y12637D01*
Y9305D01*
X361266Y7639D01*
X357934D01*
X356268Y9305D01*
X372929Y17636D02*
X369597D01*
X371263D01*
Y9305D01*
X369597Y7639D01*
X367931D01*
X366264Y9305D01*
X391256Y7639D02*
Y17636D01*
X386258Y12637D01*
X392923D01*
X396255Y15969D02*
X397921Y17636D01*
X401253D01*
X402919Y15969D01*
Y9305D01*
X401253Y7639D01*
X397921D01*
X396255Y9305D01*
Y15969D01*
X406252D02*
X407918Y17636D01*
X411250D01*
X412916Y15969D01*
Y9305D01*
X411250Y7639D01*
X407918D01*
X406252Y9305D01*
Y15969D01*
X416248Y17636D02*
Y10971D01*
X419581Y7639D01*
X422913Y10971D01*
Y17636D01*
X173934Y79632D02*
X172268Y81298D01*
X168936D01*
X167269Y79632D01*
Y72968D01*
X168936Y71302D01*
X172268D01*
X173934Y72968D01*
X183931Y71302D02*
X177266D01*
X183931Y77966D01*
Y79632D01*
X182264Y81298D01*
X178932D01*
X177266Y79632D01*
X268730Y69799D02*
X274062D01*
X268730Y64467D01*
Y63134D01*
X270063Y61801D01*
X272729D01*
X274062Y63134D01*
X260733Y69799D02*
X266064D01*
X260733Y64467D01*
Y63134D01*
X262066Y61801D01*
X264732D01*
X266064Y63134D01*
X258067D02*
X256734Y61801D01*
X254068D01*
X252736Y63134D01*
Y68466D01*
X254068Y69799D01*
X256734D01*
X258067Y68466D01*
Y63134D01*
X250070Y61801D02*
Y69799D01*
Y67133D01*
X244738Y61801D01*
X248737Y65800D01*
X244738Y69799D01*
X309065Y71199D02*
Y63201D01*
X305066D01*
X303733Y64534D01*
Y67200D01*
X305066Y68533D01*
X309065D01*
X306399D02*
X303733Y71199D01*
X295735D02*
X301067D01*
X295735Y65867D01*
Y64534D01*
X297068Y63201D01*
X299734D01*
X301067Y64534D01*
X328335Y221301D02*
Y229299D01*
X332334D01*
X333667Y227966D01*
Y225300D01*
X332334Y223967D01*
X328335D01*
X341665Y221301D02*
X336333D01*
X341665Y226633D01*
Y227966D01*
X340332Y229299D01*
X337666D01*
X336333Y227966D01*
X131268Y63302D02*
Y73298D01*
X137932Y63302D01*
Y73298D01*
X126068Y168598D02*
Y158602D01*
X132732D01*
X396720Y232286D02*
Y240283D01*
X400719D01*
X402052Y238950D01*
Y236285D01*
X400719Y234952D01*
X396720D01*
X404717Y232286D02*
X407383D01*
X406050D01*
Y240283D01*
X404717Y238950D01*
X126970Y225996D02*
X125637Y227329D01*
X122971D01*
X121638Y225996D01*
Y224664D01*
X122971Y223331D01*
X125637D01*
X126970Y221998D01*
Y220665D01*
X125637Y219332D01*
X122971D01*
X121638Y220665D01*
X129635Y227329D02*
Y219332D01*
X132301Y221998D01*
X134967Y219332D01*
Y227329D01*
X137633Y219332D02*
X140299D01*
X138966D01*
Y227329D01*
X137633Y225996D01*
X532578Y196483D02*
X522421D01*
X532578Y206639D01*
Y209178D01*
X530039Y211717D01*
X524960D01*
X522421Y209178D01*
X537656Y211717D02*
Y196483D01*
Y201561D01*
X547813Y211717D01*
X540195Y204100D01*
X547813Y196483D01*
X568126D02*
X573205D01*
X570666D01*
Y211717D01*
X568126Y209178D01*
X580822Y211717D02*
Y196483D01*
X585901Y201561D01*
X590979Y196483D01*
Y211717D01*
X473904Y196082D02*
Y211318D01*
X481522D01*
X484061Y208778D01*
Y203700D01*
X481522Y201161D01*
X473904D01*
X478983D02*
X484061Y196082D01*
X496757D02*
Y211318D01*
X489139Y203700D01*
X499296D01*
X656671Y204198D02*
X653339D01*
X651673Y202532D01*
Y195868D01*
X653339Y194202D01*
X656671D01*
X658337Y195868D01*
Y202532D01*
X656671Y204198D01*
X661669D02*
Y195868D01*
X663335Y194202D01*
X666668D01*
X668334Y195868D01*
Y204198D01*
X671666D02*
X678331D01*
X674998D01*
Y194202D01*
X688327D02*
X681663D01*
X688327Y200866D01*
Y202532D01*
X686661Y204198D01*
X683329D01*
X681663Y202532D01*
X659737Y57098D02*
X656405D01*
X654739Y55432D01*
Y48768D01*
X656405Y47102D01*
X659737D01*
X661403Y48768D01*
Y55432D01*
X659737Y57098D01*
X664735D02*
Y48768D01*
X666402Y47102D01*
X669734D01*
X671400Y48768D01*
Y57098D01*
X674732D02*
X681397D01*
X678064D01*
Y47102D01*
X684729D02*
X688061D01*
X686395D01*
Y57098D01*
X684729Y55432D01*
X351737Y145785D02*
Y140453D01*
X354403Y137787D01*
X357068Y140453D01*
Y145785D01*
X359734D02*
Y137787D01*
X363733D01*
X365066Y139120D01*
Y144452D01*
X363733Y145785D01*
X359734D01*
X367732Y144452D02*
X369064Y145785D01*
X371730D01*
X373063Y144452D01*
Y143119D01*
X371730Y141786D01*
X370397D01*
X371730D01*
X373063Y140453D01*
Y139120D01*
X371730Y137787D01*
X369064D01*
X367732Y139120D01*
X384437Y145585D02*
Y137587D01*
X388436D01*
X389768Y138920D01*
Y144252D01*
X388436Y145585D01*
X384437D01*
X392434D02*
Y137587D01*
X396433D01*
X397766Y138920D01*
Y140253D01*
X396433Y141586D01*
X392434D01*
X396433D01*
X397766Y142919D01*
Y144252D01*
X396433Y145585D01*
X392434D01*
X400432Y144252D02*
X401764Y145585D01*
X404430D01*
X405763Y144252D01*
Y142919D01*
X404430Y141586D01*
X403097D01*
X404430D01*
X405763Y140253D01*
Y138920D01*
X404430Y137587D01*
X401764D01*
X400432Y138920D01*
X407305Y117129D02*
X400640D01*
X397308Y113797D01*
X400640Y110464D01*
X407305D01*
Y107132D02*
X397308D01*
Y102134D01*
X398974Y100468D01*
X405639D01*
X407305Y102134D01*
Y107132D01*
X397308Y90471D02*
Y97135D01*
X403973Y90471D01*
X405639D01*
X407305Y92137D01*
Y95469D01*
X405639Y97135D01*
X197002Y133537D02*
X203666D01*
X206998Y136869D01*
X203666Y140202D01*
X197002D01*
Y143534D02*
X206998D01*
Y148532D01*
X205332Y150198D01*
X198668D01*
X197002Y148532D01*
Y143534D01*
X206998Y153531D02*
Y156863D01*
Y155197D01*
X197002D01*
X198668Y153531D01*
X544101Y145570D02*
X549433D01*
X552099Y148236D01*
X549433Y150901D01*
X544101D01*
Y153567D02*
Y158899D01*
Y156233D01*
X552099D01*
Y161565D02*
Y164230D01*
Y162897D01*
X544101D01*
X545434Y161565D01*
X543172Y75407D02*
Y80739D01*
Y78073D01*
X551170D01*
X543172Y83405D02*
X544505D01*
X547171Y86070D01*
X544505Y88736D01*
X543172D01*
X547171Y86070D02*
X551170D01*
Y91402D02*
X543172D01*
X551170Y96734D01*
X543172D01*
X551170Y103398D02*
X543172D01*
X547171Y99399D01*
Y104731D01*
X551170Y107397D02*
Y110063D01*
Y108730D01*
X543172D01*
X544505Y107397D01*
X551170Y119393D02*
Y114061D01*
X545838Y119393D01*
X544505D01*
X543172Y118060D01*
Y115394D01*
X544505Y114061D01*
D11*
X452600Y186350D02*
X612850D01*
Y245100D01*
X452600Y186350D02*
Y245100D01*
X612850D01*
X490200Y64800D02*
Y168800D01*
X536200D01*
Y64800D02*
Y168800D01*
X490200Y64800D02*
X536200D01*
X503900D02*
Y168800D01*
D12*
X452600Y186350D02*
Y245100D01*
X612850Y186350D02*
Y245100D01*
X452600D02*
X612850D01*
X452600Y186350D02*
X612850D01*
M02*
