M48
;Layer_Color=9474304
;FILE_FORMAT=4:4
METRIC,LZ
;TYPE=PLATED
T1F00S00C1.0000
T2F00S00C1.2000
;TYPE=NON_PLATED
T3F00S00C1.0000
%
T01
X005924Y000717
Y001537
X006526Y001605
Y001351
Y001097
X0067Y0003
Y0022
X005462Y002316
X00195Y0023
Y0002
T02
X005175Y00062
Y00188
X002425
X00182Y001751
X001325
Y001251
Y000751
X00182
X002425Y00062
T03
X0067Y0003
Y0022
X00195Y0023
X001953Y0002
M30
