G04*
G04 #@! TF.GenerationSoftware,Altium Limited,Altium Designer,22.10.1 (41)*
G04*
G04 Layer_Physical_Order=2*
G04 Layer_Color=16711680*
%FSLAX44Y44*%
%MOMM*%
G71*
G04*
G04 #@! TF.SameCoordinates,FA340068-F1DC-43B8-B5E1-3386DD3F2D8B*
G04*
G04*
G04 #@! TF.FilePolarity,Positive*
G04*
G01*
G75*
%ADD20C,2.0000*%
%ADD22C,3.0000*%
%ADD23C,2.0000*%
%ADD24C,2.2000*%
%ADD25C,1.8000*%
%ADD26R,1.8000X1.8000*%
%ADD27C,1.6000*%
%ADD28C,1.0000*%
%ADD29C,0.4000*%
%ADD30C,1.5000*%
D20*
X634500Y90500D02*
Y149500D01*
Y90500D02*
X662500Y62500D01*
X40000Y30000D02*
Y65000D01*
X407500Y150000D02*
X442500D01*
X506000D01*
X626000Y30000D02*
X775000D01*
X506000Y150000D02*
X626000Y30000D01*
X372500Y75000D02*
Y115000D01*
X407500Y150000D01*
X302500Y75000D02*
X372500D01*
X662500Y62500D02*
X720000D01*
X22300Y82700D02*
X40000Y65000D01*
X22300Y82700D02*
Y112500D01*
X38087Y31913D02*
X40000Y30000D01*
X47700Y187500D02*
X75000D01*
X112500Y225000D01*
X385000Y237500D02*
X445000D01*
X362500Y215000D02*
X385000Y237500D01*
X292500Y215000D02*
X362500D01*
X182500Y225000D02*
X192500Y215000D01*
X112500Y225000D02*
X182500D01*
X292500Y85000D02*
X302500Y75000D01*
X182500D02*
X192500Y85000D01*
X112500Y75000D02*
X182500D01*
X75000Y112500D02*
X112500Y75000D01*
X22300Y112500D02*
X75000D01*
D22*
X635000Y150000D02*
D03*
X445000D02*
D03*
X776000Y30000D02*
D03*
Y220000D02*
D03*
X47700Y270000D02*
D03*
X40000Y30000D02*
D03*
D23*
X680000Y200000D02*
D03*
Y100000D02*
D03*
X720000Y200000D02*
D03*
Y100000D02*
D03*
X47700Y187500D02*
D03*
X22300Y112500D02*
D03*
X445000Y237500D02*
D03*
X720000D02*
D03*
X445000Y62500D02*
D03*
X720000D02*
D03*
X192500Y215000D02*
D03*
Y85000D02*
D03*
X292500Y215000D02*
D03*
Y85000D02*
D03*
X112500Y225000D02*
D03*
Y75000D02*
D03*
X372500D02*
D03*
Y225000D02*
D03*
X860000Y30000D02*
D03*
X47700Y270000D02*
D03*
X40000Y30000D02*
D03*
X860000Y270000D02*
D03*
Y230000D02*
D03*
D24*
D03*
Y270000D02*
D03*
Y30000D02*
D03*
D25*
X834000Y125400D02*
D03*
Y100000D02*
D03*
X47700Y270000D02*
D03*
X40000Y30000D02*
D03*
X860000Y230000D02*
D03*
Y270000D02*
D03*
Y30000D02*
D03*
D26*
X834000Y74600D02*
D03*
D27*
Y170000D02*
D03*
Y195400D02*
D03*
D28*
X679750Y100250D02*
Y126650D01*
X703100Y150000D01*
X680000Y247026D02*
X702974Y270000D01*
X680000Y200000D02*
Y247026D01*
X702974Y270000D02*
X860000D01*
X761800Y150000D02*
X807200Y195400D01*
X703100Y150000D02*
X761800D01*
X807200Y195400D02*
X834000D01*
X720000Y100000D02*
X775000D01*
X800400Y125400D02*
X834000D01*
X775000Y100000D02*
X800400Y125400D01*
X831228Y170000D02*
X834000Y167228D01*
Y125400D02*
Y167228D01*
X830228Y170000D02*
X831228D01*
D29*
X47700Y187500D02*
Y270000D01*
Y270750D01*
D30*
X792500Y62500D02*
X825750Y29250D01*
X861250D01*
X773713Y225000D02*
X775000D01*
X720000Y62500D02*
X792500D01*
X851213Y100574D02*
X860000Y109361D01*
Y227500D01*
X834574Y100574D02*
X851213D01*
X834000Y100000D02*
X834574Y100574D01*
X720000Y200000D02*
Y237500D01*
X721353D01*
X723853Y240000D01*
X758713D02*
X773713Y225000D01*
X723853Y240000D02*
X758713D01*
M02*
