M48
;Layer_Color=9474304
;FILE_FORMAT=4:4
METRIC,LZ
;TYPE=PLATED
T1F00S00C0.3000
T2F00S00C0.9000
T3F00S00C1.0000
T4F00S00C1.2000
T5F00S00C1.3000
T6F00S00C1.8000
;TYPE=NON_PLATED
T8F00S00C1.0000
%
T01
X01337806Y002078
X015133Y002076
X008639Y002106
X008738Y0026025
X009775Y000568
X000873Y00328
X001675Y005875
X002614Y005626
X003373Y005875
X004314Y005623
X005066Y005875
X00601Y005623
X006769Y005877
X005873Y00328
X003373
X007747Y003813
X008498Y002861
X0103Y0036287
X010193Y004004
X00989Y004653
X00939564Y005623
X010158Y005887
X011106Y005632
X00849664Y00588
X00816166Y00528457
X007712Y005624
X01403Y00375
X016807Y005521
T02
X016132Y000521
Y000775
Y001029
Y001283
X009098Y00311
Y003364
X00869543Y003368
Y003114
X008289Y003122
Y003376
T03
X013529Y000479
X01352472Y001142
X00895Y001543
X00845Y001793
Y001293
Y000927
Y000427
X00895Y000677
X00585Y00175
Y00225
X00335
Y00175
X00085
Y00225
X002Y004973
Y005227
X00264Y0064
X00306Y0064
X00136Y0064
X00434Y0064
X00476
X00604
X00646
X0071Y005227
Y004973
X0054
Y005227
X0037
Y004973
X00879264Y004974
Y005228
X010493Y005237
Y004983
X009853Y00641
X00943264Y006401
X00815264
X00774Y0064
X011133Y00641
X016967Y006029
X015707Y00292
X01607Y00755
X016593Y007547
Y008827
X01607Y00883
X014988Y008658
X013064Y008689
T04
X01212942Y0053
X01308942
Y0069
X01212942
T05
X01915Y00149998
Y00199998
Y00249997
X011152Y0026109
Y00235645
Y002102
Y00184755
Y0015931
Y00133865
Y0010842
Y00082975
X0096253
Y0010842
Y00133865
Y0015931
Y00184755
Y002102
Y00235645
Y0026109
X00724997Y00075
X00674998
X00474997
X00424998
X00224998
X00174998
X0096253Y00286535
Y0031198
Y00337425
Y0036287
Y00388315
Y0041376
Y00439205
X011152
Y0041376
Y00388315
Y0036287
Y00337425
Y0031198
Y00286535
X01915Y00324998
Y00374997
Y00474998
Y00524997
Y00624998
Y00674997
X011093Y00709
X010493Y00689
X009893Y00709
X00939264Y007081
X00879264Y006881
X00819264Y007081
X0077Y00708
Y0083
X00819264Y008301
X00939264
X009893Y00831
X011093
X01074302Y00926
X01024303
X00904267Y009251
X00854267
X00735002Y00925
X00685003
X00565002
X00515003
X00395002Y009255
X00345003
X0043Y0083
X0048
X006
X0065
Y00708
X006
X0054Y00688
X0048Y00708
X0043
X0037Y00688
X0071
X0031Y00708
X0026
X002Y00688
X0014Y00708
Y0083
X0026
X0031
X00225002Y00925
X00175002
T06
X00465Y00195
Y00245
X00715
Y00195
X00215
Y00245
Y00295
Y00345
X00465
Y00295
X00715
Y00345
T08
X013529Y000479
M30
