G04*
G04 #@! TF.GenerationSoftware,Altium Limited,Altium Designer,22.10.1 (41)*
G04*
G04 Layer_Color=128*
%FSLAX44Y44*%
%MOMM*%
G71*
G04*
G04 #@! TF.SameCoordinates,925E1407-17B4-44B6-9F2D-65EEED7EDF2A*
G04*
G04*
G04 #@! TF.FilePolarity,Positive*
G04*
G01*
G75*
%ADD29R,1.0000X0.6000*%
%ADD30R,1.2500X0.8000*%
%ADD31R,0.8000X1.2500*%
%ADD32R,0.7000X1.0000*%
%ADD33R,0.6000X1.0000*%
%ADD34R,1.0000X0.7000*%
D29*
X307236Y477920D02*
D03*
X283236Y487420D02*
D03*
Y468420D02*
D03*
X388415Y609099D02*
D03*
Y590099D02*
D03*
X364415Y599599D02*
D03*
X546112Y272258D02*
D03*
Y291258D02*
D03*
X570112Y281758D02*
D03*
X551569Y133099D02*
D03*
Y152099D02*
D03*
X575569Y142599D02*
D03*
X687569Y434719D02*
D03*
Y415719D02*
D03*
X663569Y425219D02*
D03*
X1911621Y628410D02*
D03*
X1887621Y637910D02*
D03*
Y618910D02*
D03*
X1951121Y572160D02*
D03*
X1975121Y562660D02*
D03*
Y581660D02*
D03*
X1520250Y470654D02*
D03*
X1496250Y480154D02*
D03*
Y461154D02*
D03*
X1593000Y541154D02*
D03*
X1617000Y531654D02*
D03*
Y550654D02*
D03*
X1576000Y541404D02*
D03*
X1552000Y550904D02*
D03*
Y531904D02*
D03*
D30*
X462502Y596099D02*
D03*
Y616099D02*
D03*
X1102252Y459750D02*
D03*
Y439750D02*
D03*
X1139259Y487750D02*
D03*
Y467750D02*
D03*
X1056208Y427750D02*
D03*
Y407750D02*
D03*
X1056204Y368750D02*
D03*
Y388750D02*
D03*
X1056203Y445279D02*
D03*
Y465279D02*
D03*
X541913Y564170D02*
D03*
Y544170D02*
D03*
X559667Y564599D02*
D03*
Y544599D02*
D03*
X577417Y564349D02*
D03*
Y544349D02*
D03*
X725318Y153599D02*
D03*
Y173599D02*
D03*
X792248Y460000D02*
D03*
Y480000D02*
D03*
X858071Y388599D02*
D03*
Y368599D02*
D03*
X840571Y388599D02*
D03*
Y368599D02*
D03*
X875571Y388599D02*
D03*
Y368599D02*
D03*
X714502Y537500D02*
D03*
Y517500D02*
D03*
X737914Y517345D02*
D03*
Y537345D02*
D03*
X781419Y536750D02*
D03*
Y516750D02*
D03*
X756043Y517413D02*
D03*
Y537413D02*
D03*
X1092160Y215750D02*
D03*
Y195750D02*
D03*
X1267218Y220750D02*
D03*
Y200750D02*
D03*
X1051661Y215750D02*
D03*
Y195750D02*
D03*
X1016414Y207500D02*
D03*
Y227500D02*
D03*
X291002Y706000D02*
D03*
Y726000D02*
D03*
X171748Y660500D02*
D03*
Y640500D02*
D03*
X175618Y550250D02*
D03*
Y530250D02*
D03*
X149817Y625250D02*
D03*
Y605250D02*
D03*
X125502Y530000D02*
D03*
Y550000D02*
D03*
X2003373Y688160D02*
D03*
Y708160D02*
D03*
X1984621Y688410D02*
D03*
Y708410D02*
D03*
X1984619Y675660D02*
D03*
Y655660D02*
D03*
X2205564Y591696D02*
D03*
Y571696D02*
D03*
X2180002Y535000D02*
D03*
Y555000D02*
D03*
X2061243Y434181D02*
D03*
Y414181D02*
D03*
X2061247Y447620D02*
D03*
Y467620D02*
D03*
X1862493Y423534D02*
D03*
Y403534D02*
D03*
X1674502Y337904D02*
D03*
Y357904D02*
D03*
X1759998Y426486D02*
D03*
Y406486D02*
D03*
X1670251Y491905D02*
D03*
Y511905D02*
D03*
X287443Y77250D02*
D03*
Y57250D02*
D03*
X262046Y56500D02*
D03*
Y76500D02*
D03*
X319998Y76250D02*
D03*
Y56250D02*
D03*
X236646Y134750D02*
D03*
Y154750D02*
D03*
X312843Y142500D02*
D03*
Y122500D02*
D03*
X390998Y157250D02*
D03*
Y137250D02*
D03*
D31*
X641415Y617075D02*
D03*
X661415D02*
D03*
X1246675Y294383D02*
D03*
X1266675D02*
D03*
Y276630D02*
D03*
X1246675D02*
D03*
X1266925Y312380D02*
D03*
X1246925D02*
D03*
X1266675Y258380D02*
D03*
X1246675D02*
D03*
X1246925Y240133D02*
D03*
X1266925D02*
D03*
X1419000Y539152D02*
D03*
X1399000D02*
D03*
X1197162Y180748D02*
D03*
X1177162D02*
D03*
X277915Y252600D02*
D03*
X297915D02*
D03*
X333165Y301347D02*
D03*
X313165D02*
D03*
X334250Y334502D02*
D03*
X354250D02*
D03*
X313666Y369100D02*
D03*
X333666D02*
D03*
X238165Y375847D02*
D03*
X218165D02*
D03*
X387665Y646097D02*
D03*
X367665D02*
D03*
X388415Y627679D02*
D03*
X368415D02*
D03*
X369915Y571851D02*
D03*
X389915D02*
D03*
X470599Y339099D02*
D03*
X450599D02*
D03*
X590112Y193599D02*
D03*
X570112D02*
D03*
X480500Y666502D02*
D03*
X500500D02*
D03*
X550915Y701597D02*
D03*
X530915D02*
D03*
X577746Y615921D02*
D03*
X557745D02*
D03*
X584500Y701596D02*
D03*
X564500D02*
D03*
X635000Y122600D02*
D03*
X655000D02*
D03*
X636819Y169100D02*
D03*
X656819D02*
D03*
X637569Y193601D02*
D03*
X657569D02*
D03*
X683250Y352154D02*
D03*
X663250D02*
D03*
X662750Y398261D02*
D03*
X682750D02*
D03*
X941500Y385752D02*
D03*
X961500D02*
D03*
X687569Y453219D02*
D03*
X667569D02*
D03*
X687569Y470967D02*
D03*
X667569D02*
D03*
X643750Y563252D02*
D03*
X663750D02*
D03*
X757417Y438752D02*
D03*
X777417D02*
D03*
X958750Y437248D02*
D03*
X938750D02*
D03*
X857250Y438447D02*
D03*
X837250D02*
D03*
X839819Y528347D02*
D03*
X819819D02*
D03*
X872819Y528349D02*
D03*
X852819D02*
D03*
X1103412Y272998D02*
D03*
X1123412D02*
D03*
X1067412D02*
D03*
X1087412D02*
D03*
X1040912Y272752D02*
D03*
X1020912D02*
D03*
X2651250Y830002D02*
D03*
X2631250D02*
D03*
X252750Y686748D02*
D03*
X272750D02*
D03*
X1984621Y620162D02*
D03*
X1964621D02*
D03*
X1984871Y600912D02*
D03*
X1964871D02*
D03*
X1984546Y639412D02*
D03*
X1964546D02*
D03*
X2201745Y412036D02*
D03*
X2181745D02*
D03*
X2198745Y523633D02*
D03*
X2218745D02*
D03*
X2198745Y498233D02*
D03*
X2218745D02*
D03*
X2067995Y364286D02*
D03*
X2047995D02*
D03*
X2082495Y364283D02*
D03*
X2102495D02*
D03*
X2098495Y483536D02*
D03*
X2078495D02*
D03*
X1953995Y498283D02*
D03*
X1973995D02*
D03*
X1899495Y405036D02*
D03*
X1879495D02*
D03*
X1974495Y449286D02*
D03*
X1954495D02*
D03*
X1898495Y472036D02*
D03*
X1878495D02*
D03*
Y454033D02*
D03*
X1898495D02*
D03*
X1654686Y568905D02*
D03*
X1634686D02*
D03*
X1617000Y508655D02*
D03*
X1597000D02*
D03*
X1597249Y442405D02*
D03*
X1617249D02*
D03*
X1738750Y317154D02*
D03*
X1718750D02*
D03*
X1738750Y334655D02*
D03*
X1718750D02*
D03*
X1760000Y390124D02*
D03*
X1740000D02*
D03*
X1690250Y527155D02*
D03*
X1670250D02*
D03*
X1688750Y569405D02*
D03*
X1668750D02*
D03*
X1668250Y614902D02*
D03*
X1688250D02*
D03*
X1521548Y402341D02*
D03*
X1501548D02*
D03*
X348750Y133973D02*
D03*
X368750D02*
D03*
X355250Y61748D02*
D03*
X375250D02*
D03*
X1860000Y857002D02*
D03*
X1840000D02*
D03*
D32*
X1286925Y239382D02*
D03*
Y274382D02*
D03*
X1185456Y456631D02*
D03*
Y421631D02*
D03*
X816250Y286000D02*
D03*
Y251000D02*
D03*
X1890621Y655160D02*
D03*
Y690160D02*
D03*
X1915371D02*
D03*
Y655160D02*
D03*
X1938621D02*
D03*
Y690160D02*
D03*
X1962871Y690660D02*
D03*
Y655660D02*
D03*
X1556750Y624404D02*
D03*
Y589404D02*
D03*
X262750Y123170D02*
D03*
Y158170D02*
D03*
D33*
X218915Y355599D02*
D03*
X237915D02*
D03*
X228415Y331599D02*
D03*
X262341Y729250D02*
D03*
X252841Y705250D02*
D03*
X271842D02*
D03*
X1939121Y638910D02*
D03*
X1929621Y614910D02*
D03*
X1948621D02*
D03*
X1643750Y551154D02*
D03*
X1634250Y527154D02*
D03*
X1653250D02*
D03*
X1511207Y443143D02*
D03*
X1501707Y419143D02*
D03*
X1520708D02*
D03*
D34*
X278415Y275349D02*
D03*
X313415D02*
D03*
X317236Y605420D02*
D03*
X282236D02*
D03*
X317354Y509287D02*
D03*
X282354D02*
D03*
X317736Y557170D02*
D03*
X282736D02*
D03*
Y580670D02*
D03*
X317736D02*
D03*
X282736Y629170D02*
D03*
X317736D02*
D03*
X282947Y532631D02*
D03*
X317947D02*
D03*
X579362Y406258D02*
D03*
X544362D02*
D03*
X544612Y429258D02*
D03*
X579612D02*
D03*
X580112Y359008D02*
D03*
X545112D02*
D03*
Y382008D02*
D03*
X580112D02*
D03*
X545612Y335258D02*
D03*
X580612D02*
D03*
Y312258D02*
D03*
X545612D02*
D03*
X616569Y100349D02*
D03*
X651569D02*
D03*
X1917871Y595410D02*
D03*
X1882871D02*
D03*
X1617249Y462905D02*
D03*
X1582249D02*
D03*
X1581538Y487155D02*
D03*
X1616538D02*
D03*
X1530658Y525158D02*
D03*
X1495658D02*
D03*
Y501158D02*
D03*
X1530658D02*
D03*
X1495658Y549658D02*
D03*
X1530658D02*
D03*
Y572908D02*
D03*
X1495658D02*
D03*
X1495358Y596908D02*
D03*
X1530358D02*
D03*
X1495036Y621618D02*
D03*
X1530035D02*
D03*
X1618500Y614904D02*
D03*
X1653500D02*
D03*
X1583500Y589154D02*
D03*
X1618500D02*
D03*
M02*
